# Alias OBJ Model File
# Exported from SketchUp, (c) 2000-2012 Trimble Navigation Limited
# File units = meters

mtllib 6CorridorWorld.mtl

g Mesh1 Component_3_1 Model

usemtl FrontColor
v 21 38 1.69649e-14
vt -120.866 1555.12
vn -1 0 -0
v 21 30 1.33554e-14
vt -120.866 1240.16
v 21 30 3.07
vt -1.56319e-13 1240.16
v 21 38 3.07
vt -1.42109e-14 1555.12
f 1/1/1 2/2/1 3/3/1 4/4/1 

vt -885.827 1240.16
vn 0 4.44089e-16 -1
v 16 38 1.69649e-14
vt -688.976 1555.12
vt -885.827 1555.12
f 2/5/2 5/6/2 1/7/2

v 16 30 1.33554e-14
vt -688.976 1240.16
f 5/6/2 2/5/2 6/8/2

vt 885.827 120.866
vn 0 1 4.44089e-16
vt 688.976 120.866
v 16 30 3.07
vt 688.976 7.0706e-13
vt 885.827 7.0706e-13
f 2/9/3 6/10/3 7/11/3 3/12/3 

vt 120.866 1240.16
vn 1 0 -0
vt 120.866 1555.12
v 16 38 3.07
vt 1.42109e-14 1555.12
vt 1.56319e-13 1240.16
f 6/13/4 5/14/4 8/15/4 7/16/4 

v 13 38 1.69649e-14
vt 570.866 120.866
v 13 38 3.07
vt 570.866 7.04822e-13
vt 688.976 7.04822e-13
f 5/10/3 9/17/3 10/18/3 8/19/3 

vt -570.866 1555.12
v 0 39.5 1.76868e-14
vt -59.0551 1614.17
f 9/20/2 11/21/2 5/6/2

v 8 38 1.69649e-14
vt -374.016 1555.12
f 12/22/2 11/21/2 9/20/2

v 5 38 1.69649e-14
vt -255.906 1555.12
f 13/23/2 11/21/2 12/22/2

v 0 38 1.69649e-14
vt -59.0551 1555.12
f 13/23/2 14/24/2 11/21/2

v 5 30 1.33554e-14
vt -255.906 1240.16
f 15/25/2 14/24/2 13/23/2

v -1.5 38 1.69649e-14
vt 0 1555.12
f 15/25/2 16/26/2 14/24/2

v 0 30 1.33554e-14
vt -59.0551 1240.16
f 17/27/2 16/26/2 15/25/2

v 0 27.5 1.22725e-14
vt -59.0551 1141.73
f 18/28/2 16/26/2 17/27/2

v 0 20.75 9.38485e-15
vt -59.0551 875.984
f 19/29/2 16/26/2 18/28/2

v 0 8 3.60956e-15
vt -59.0551 374.016
f 20/30/2 16/26/2 19/29/2

v 0 9.02389e-16 -0
vt -59.0551 59.0551
f 21/31/2 16/26/2 20/30/2

v -1.5 9.02389e-16 -0
vt 0 59.0551
f 16/26/2 21/31/2 22/32/2

vt 59.0551 120.866
vt 0 120.866
v -1.5 -5.41434e-16 3.07
vt 0 7.08347e-13
v 0 -5.41434e-16 3.07
vt 59.0551 7.08347e-13
v 0 9.02389e-16 0.07
vt 59.0551 118.11
f 21/33/3 22/34/3 23/35/3 24/36/3 25/37/3 

vt 120.866 59.0551
v -1.5 38 3.07
vt 6.82121e-13 59.0551
f 22/38/4 16/14/4 26/15/4 23/39/4 

vn 0 -1 -4.44089e-16
vt -59.0551 120.866
v 0 38 3.07
vt -59.0551 7.04822e-13
vt 0 7.04822e-13
f 16/34/5 14/40/5 27/41/5 26/42/5 

vt 120.866 1614.17
v 0 39.5 3.07
vt 0 1614.17
f 14/14/4 11/43/4 28/44/4 27/15/4 

v 30 39.5 1.76868e-14
vt -1240.16 120.866
v 30 39.5 3.07
vt -1240.16 7.16837e-13
vt -59.0551 7.16837e-13
f 11/40/5 29/45/5 30/46/5 28/47/5 

vt -1240.16 1614.17
v 24 38 1.69649e-14
vt -1003.94 1555.12
f 29/48/2 31/49/2 11/21/2

v 30 38 1.69649e-14
vt -1240.16 1555.12
f 32/50/2 31/49/2 29/48/2

v 30 30 1.33554e-14
vt -1240.16 1240.16
f 33/51/2 31/49/2 32/50/2

v 24 30 1.33554e-14
vt -1003.94 1240.16
f 31/49/2 33/51/2 34/52/2

vt 1240.16 120.866
vt 1003.94 120.866
v 24 30 3.07
vt 1003.94 7.0706e-13
v 30 30 3.07
vt 1240.16 7.0706e-13
f 33/53/3 34/54/3 35/55/3 36/56/3 

v 24 38 3.07
f 34/13/4 31/14/4 37/15/4 35/16/4 

vt 885.827 7.04822e-13
vt 1003.94 7.04822e-13
f 31/54/3 1/9/3 4/57/3 37/58/3 

f 1/7/2 11/21/2 31/49/2

f 5/6/2 11/21/2 1/7/2

f 4/7/2 28/21/2 37/49/2

f 8/6/2 28/21/2 4/7/2

f 10/20/2 28/21/2 8/6/2

v 8 38 3.07
f 38/22/2 28/21/2 10/20/2

v 5 38 3.07
f 39/23/2 28/21/2 38/22/2

f 39/23/2 27/24/2 28/21/2

v 5 30 3.07
f 40/25/2 27/24/2 39/23/2

f 40/25/2 26/26/2 27/24/2

v 0 30 3.07
f 41/27/2 26/26/2 40/25/2

v 0 27.5 3.07
f 42/28/2 26/26/2 41/27/2

v 0 20.75 3.07
f 43/29/2 26/26/2 42/28/2

v 0 8 3.07
f 44/30/2 26/26/2 43/29/2

f 24/31/2 26/26/2 44/30/2

f 26/26/2 24/31/2 23/32/2

v 6 -5.41434e-16 3.07
vt -295.276 59.0551
f 24/31/2 44/30/2 45/59/2

v 6 8 3.07
vt -295.276 374.016
f 46/60/2 45/59/2 44/30/2

v 6 8 3.60956e-15
vt -120.866 374.016
v 6 9.02389e-16 -0
vt -120.866 59.0551
v 6 9.02389e-16 0.07
vt -118.11 59.0551
vt -6.82121e-13 59.0551
vt -5.40012e-13 374.016
f 47/61/1 48/62/1 49/63/1 45/64/1 46/65/1 

f 47/60/2 48/59/2 20/30/2

f 21/31/2 20/30/2 48/59/2

v 30 9.02389e-16 -0
vt -1240.16 59.0551
f 50/66/2 21/31/2 48/59/2

v 30 -1.5 -7.21911e-16
vt -1240.16 3.16807e-15
f 51/67/2 21/31/2 50/66/2

v 0 -1.5 -7.21911e-16
vt -59.0551 3.16807e-15
f 21/31/2 51/67/2 52/68/2

v 0 -1.5 3.07
vt 59.0551 7.10543e-13
v 30 -1.5 3.07
vt 1240.16 7.10543e-13
f 51/53/3 52/33/3 53/69/3 54/70/3 

vt 120.866 5.68434e-14
vt 118.11 59.0551
vt 7.10543e-13 0
f 52/71/4 21/38/4 25/72/4 24/39/4 53/73/4 

vt -1240.16 -3.15544e-28
vt -59.0551 -3.15544e-28
f 24/31/2 54/74/2 53/75/2

v 30 -5.41434e-16 3.07
f 54/74/2 24/31/2 55/66/2

f 55/66/2 24/31/2 45/59/2

v 9 -5.41434e-16 3.07
vt -413.386 59.0551
f 55/66/2 45/59/2 56/76/2

vt -295.276 120.866
v 9 9.02389e-16 -0
vt -413.386 120.866
vt -413.386 7.08347e-13
vt -295.276 7.08347e-13
vt -295.276 118.11
f 48/77/5 57/78/5 56/79/5 45/80/5 49/81/5 

f 50/66/2 48/59/2 57/76/2

v 14 9.02389e-16 -0
vt -610.236 59.0551
f 50/66/2 57/76/2 58/82/2

v 9 8 3.60956e-15
vt -413.386 374.016
f 59/83/2 58/82/2 57/76/2

v 14 8 3.60956e-15
vt -610.236 374.016
f 58/82/2 59/83/2 60/84/2

vt -610.236 120.866
v 14 8 3.07
vt -610.236 7.06109e-13
v 9 8 3.07
vt -413.386 7.06109e-13
f 59/78/5 60/85/5 61/86/5 62/87/5 

v 14 -5.41434e-16 3.07
f 60/61/1 58/62/1 63/64/1 61/65/1 

v 17 9.02389e-16 -0
vt -728.346 120.866
v 17 -5.41434e-16 3.07
vt -728.346 7.08347e-13
vt -610.236 7.08347e-13
f 58/85/5 64/88/5 65/89/5 63/90/5 

vt -728.346 59.0551
f 50/66/2 58/82/2 64/91/2

v 22 9.02389e-16 -0
vt -925.197 59.0551
f 50/66/2 64/91/2 66/92/2

v 17 8 3.60956e-15
vt -728.346 374.016
f 67/93/2 66/92/2 64/91/2

v 22 8 3.60956e-15
vt -925.197 374.016
f 66/92/2 67/93/2 68/94/2

vt -925.197 120.866
v 22 8 3.07
vt -925.197 7.06109e-13
v 17 8 3.07
vt -728.346 7.06109e-13
f 67/88/5 68/95/5 69/96/5 70/97/5 

v 22 -5.41434e-16 3.07
f 68/61/1 66/62/1 71/64/1 69/65/1 

v 25 9.02389e-16 -0
vt -1043.31 120.866
v 25 -5.41434e-16 3.07
vt -1043.31 7.08347e-13
vt -925.197 7.08347e-13
f 66/95/5 72/98/5 73/99/5 71/100/5 

vt -1043.31 59.0551
f 50/66/2 66/92/2 72/101/2

v 25 8 3.60956e-15
vt -1043.31 374.016
f 50/66/2 72/101/2 74/102/2

vt 120.866 374.016
v 25 8 3.07
vt 5.40012e-13 374.016
f 72/38/4 74/103/4 75/104/4 73/39/4 

v 30 8 3.60956e-15
v 30 8 3.07
vt -1240.16 7.06109e-13
vt -1043.31 7.06109e-13
f 74/98/5 76/45/5 77/105/5 75/106/5 

v 31.5 9.02389e-16 -0
vt -1299.21 59.0551
vt -1240.16 374.016
f 78/107/2 74/102/2 76/108/2

f 50/66/2 74/102/2 78/107/2

vt 1299.21 120.866
vt 1240.16 7.08347e-13
v 31.5 -5.41434e-16 3.07
vt 1299.21 7.08347e-13
f 78/109/3 50/53/3 55/110/3 79/111/3 

vt -120.866 5.68434e-14
vt -7.10543e-13 0
f 50/62/1 51/112/1 54/113/1 55/64/1 

f 55/66/2 75/102/2 79/107/2

f 55/66/2 73/101/2 75/102/2

f 55/66/2 71/92/2 73/101/2

f 55/66/2 65/91/2 71/92/2

f 55/66/2 63/82/2 65/91/2

f 55/66/2 56/76/2 63/82/2

f 62/83/2 63/82/2 56/76/2

f 63/82/2 62/83/2 61/84/2

f 57/38/4 59/103/4 62/104/4 56/39/4 

f 70/93/2 71/92/2 65/91/2

f 71/92/2 70/93/2 69/94/2

f 64/38/4 67/103/4 70/104/4 65/39/4 

f 79/107/2 75/102/2 77/108/2

v 31.5 38 3.07
vt -1299.21 1555.12
f 79/107/2 77/108/2 80/114/2

v 30 10.5 3.07
vt -1240.16 472.441
f 80/114/2 77/108/2 81/115/2

v 30 10.5 4.69242e-15
vt 120.866 472.441
vt 4.9738e-13 472.441
f 76/103/4 82/116/4 81/117/4 77/104/4 

v 31.5 38 1.69649e-14
f 83/114/2 76/108/2 82/115/2

f 78/107/2 76/108/2 83/114/2

f 83/1/1 78/62/1 79/64/1 80/4/1 

vt -1299.21 120.866
vt -1299.21 7.04822e-13
v 30 38 3.07
vt -1240.16 7.04822e-13
f 32/45/5 83/118/5 80/119/5 84/120/5 

f 83/114/2 33/51/2 32/50/2

v 30 17.25 7.58007e-15
vt -1240.16 738.189
f 83/114/2 85/121/2 33/51/2

f 83/114/2 82/115/2 85/121/2

v 3 17.25 7.58007e-15
vt -177.165 738.189
f 85/121/2 82/115/2 86/122/2

v 3 10.5 4.69242e-15
vt -177.165 472.441
f 86/122/2 82/115/2 87/123/2

vt 177.165 120.866
v 3 10.5 3.07
vt 177.165 7.07186e-13
vt 1240.16 7.07186e-13
f 82/53/3 87/124/3 88/125/3 81/126/3 

vt 120.866 738.189
v 3 17.25 3.07
vt 3.69482e-13 738.189
f 87/116/4 86/127/4 89/128/4 88/117/4 

vt -177.165 120.866
v 30 17.25 3.07
vt -1240.16 6.97304e-13
vt -177.165 6.97304e-13
f 86/129/5 85/45/5 90/130/5 89/131/5 

f 85/127/4 33/13/4 36/16/4 90/128/4 

f 80/114/2 90/121/2 36/51/2

f 80/114/2 81/115/2 90/121/2

f 90/121/2 81/115/2 89/122/2

f 89/122/2 81/115/2 88/123/2

f 80/114/2 36/51/2 84/50/2

f 36/51/2 37/49/2 84/50/2

f 37/49/2 36/51/2 35/52/2

f 84/50/2 37/49/2 30/48/2

f 30/48/2 37/49/2 28/21/2

vt -120.866 1614.17
f 29/132/1 32/1/1 84/4/1 30/44/1 

vt -295.276 7.06109e-13
vt -59.0551 7.06109e-13
f 20/40/5 47/77/5 46/133/5 44/134/5 

vt -120.866 875.984
vt -3.41061e-13 875.984
f 19/135/1 20/61/1 44/65/1 43/136/1 

v 27 20.75 9.38485e-15
vt -1122.05 120.866
v 27 20.75 3.07
vt -1122.05 7.30076e-13
vt -59.0551 7.30076e-13
f 19/40/5 91/137/5 92/138/5 43/139/5 

vt -1122.05 875.984
f 19/29/2 18/28/2 91/140/2

v 27 27.5 1.22725e-14
vt -1122.05 1141.73
f 93/141/2 91/140/2 18/28/2

vt -120.866 1141.73
v 27 27.5 3.07
vt -2.13163e-13 1141.73
f 93/142/1 91/135/1 92/136/1 94/143/1 

f 94/141/2 92/140/2 42/28/2

f 43/29/2 42/28/2 92/140/2

vt -1122.05 7.20194e-13
vt -59.0551 7.20194e-13
f 18/40/5 93/137/5 94/144/5 42/145/5 

f 17/2/1 18/142/1 42/143/1 41/3/1 

vt 255.906 120.866
vt 59.0551 7.0706e-13
vt 255.906 7.0706e-13
f 15/146/3 17/33/3 41/147/3 40/148/3 

f 13/1/1 15/2/1 40/3/1 39/4/1 

vt 374.016 120.866
vt 255.906 7.04822e-13
vt 374.016 7.04822e-13
f 12/149/3 13/146/3 39/150/3 38/151/3 

v 8 30 1.33554e-14
v 8 30 3.07
f 95/13/4 12/14/4 38/15/4 96/16/4 

v 13 30 1.33554e-14
vt -570.866 1240.16
vt -374.016 1240.16
f 12/22/2 97/152/2 95/153/2

f 97/152/2 12/22/2 9/20/2

v 13 30 3.07
f 9/1/1 97/2/1 98/3/1 10/4/1 

vt 374.016 7.0706e-13
vt 570.866 7.0706e-13
f 97/17/3 95/149/3 96/154/3 98/155/3 

f 38/22/2 98/152/2 96/153/2

f 98/152/2 38/22/2 10/20/2

f 3/5/2 8/6/2 4/7/2

f 8/6/2 3/5/2 7/8/2

g Mesh2 Component_3_1 Model

v 14.2715 19.9088 3.07
vt 620.925 842.868
vn 0 -3.11728e-16 1
v 14.4325 20.1877 3.07
vt 627.264 853.847
v 14.2715 20.4666 3.07
vt 620.925 864.825
v 13.9495 20.4666 3.07
vt 608.248 864.825
v 13.7885 20.1877 3.07
vt 601.91 853.847
v 13.9495 19.9088 3.07
vt 608.248 842.868
f 99/156/6 100/157/6 101/158/6 102/159/6 103/160/6 104/161/6 

vt 2.28168e-13 1053.08
vn 0.866025 -0.5 -1.55864e-16
vt 2.43519e-13 1040.41
v 14.2715 19.9088 0.07
vt 118.11 1040.41
v 14.4325 20.1877 0.07
vt 118.11 1053.08
f 100/162/7 99/163/7 105/164/7 106/165/7 

vt -620.925 6.18017e-13
vn 0 -1 -3.11728e-16
vt -608.248 6.18017e-13
v 13.9495 19.9088 0.07
vt -608.248 118.11
vt -620.925 118.11
f 99/166/8 104/167/8 107/168/8 105/169/8 

vt -4.64742e-13 425.821
vn -0.866025 -0.5 -1.55864e-16
vt -4.4939e-13 438.498
v 13.7885 20.1877 0.07
vt -118.11 438.498
vt -118.11 425.821
f 104/170/9 103/171/9 108/172/9 107/173/9 

vt -2.32731e-13 1040.41
vn -0.866025 0.5 1.55864e-16
vt -2.17379e-13 1053.08
v 13.9495 20.4666 0.07
vt -118.11 1053.08
vt -118.11 1040.41
f 103/174/10 102/175/10 109/176/10 108/177/10 

vt 608.248 5.9644e-13
vn 0 1 3.11728e-16
vt 620.925 5.9644e-13
v 14.2715 20.4666 0.07
vt 620.925 118.11
vt 608.248 118.11
f 102/178/11 101/179/11 110/180/11 109/181/11 

vt 4.38602e-13 438.498
vn 0.866025 0.5 1.55864e-16
vt 4.53953e-13 425.821
vt 118.11 425.821
vt 118.11 438.498
f 101/182/12 100/183/12 106/184/12 110/185/12 

vt -627.264 853.847
vn 0 3.11728e-16 -1
vt -620.925 842.868
vt -608.248 842.868
vt -601.91 853.847
vt -608.248 864.825
vt -620.925 864.825
f 106/186/13 105/187/13 107/188/13 108/189/13 109/190/13 110/191/13 

g Mesh3 Component_3_1 Model

v 15.3721 17.3316 -0
vt 120.866 741.402
v 15.3721 17.7016 -0
vt 120.866 755.969
v 15.3721 17.7016 3
vt 2.75591 755.969
v 15.3721 17.3316 3
vt 2.75591 741.402
f 111/192/4 112/193/4 113/194/4 114/195/4 

v 13.0221 17.7016 -0
vt -571.735 755.969
vn 0 0 -1
vt -664.254 755.969
vt -664.254 741.402
v 13.0221 17.3316 -0
vt -571.735 741.402
f 115/196/14 112/197/14 111/198/14 116/199/14 

vt 664.254 120.866
vn 0 1 -0
vt 571.735 120.866
v 13.0221 17.7016 3
vt 571.735 2.75591
vt 664.254 2.75591
f 112/200/15 115/201/15 117/202/15 113/203/15 

vt -120.866 755.969
vt -120.866 741.402
v 13.0221 17.3316 3
vt -2.75591 741.402
vt -2.75591 755.969
f 115/204/1 116/205/1 118/206/1 117/207/1 

vt -571.735 120.866
vn 0 -1 -0
vt -664.254 120.866
vt -664.254 2.75591
vt -571.735 2.75591
f 116/208/16 111/209/16 114/210/16 118/211/16 

vt 664.254 755.969
vn 0 0 1
vt 571.735 755.969
vt 571.735 741.402
vt 664.254 741.402
f 113/212/17 117/213/17 118/214/17 114/215/17 

