# Alias OBJ Model File
# Exported from SketchUp, (c) 2000-2012 Trimble Navigation Limited
# File units = meters

mtllib ArduinoRobot.mtl

g Mesh1 Component_1_1 Model

usemtl FrontColor
v 0.0869333 0.0232937 -2.36171e-18
vt 1.45513 0
vn 0.965926 0.258819 9.90906e-17
v 0.0779423 0.045 5.94869e-18
vt 2.38012 0
vn 0.866025 0.5 1.91428e-16
v 0.0779423 0.045 0.18
vt 2.38012 7.08661
v 0.0869333 0.0232937 0.18
vt 1.45513 7.08661
f 1/1/1 2/2/2 3/3/2 4/4/1 

vt -6.6119 5.31496
vn 0 3.82857e-16 -1
vt -6.96588 4.46038
v 0.09 -1.12799e-17 -1.12799e-17
vt -7.08661 3.54331
v 0.0869333 -0.0232937 -2.0198e-17
vt -6.96588 2.62623
v 0.0779423 -0.045 -2.85084e-17
vt -6.6119 1.77165
v 0.0636396 -0.0636396 -3.56447e-17
vt -6.0488 1.03781
v 0.045 -0.0779423 -4.11206e-17
vt -5.31496 0.474713
v 0.0232937 -0.0869333 -4.45629e-17
vt -4.46038 0.120735
v -1.12799e-17 -0.09 -4.5737e-17
vt -3.54331 0
v -0.0232937 -0.0869333 -4.45629e-17
vt -2.62623 0.120735
v -0.045 -0.0779423 -4.11206e-17
vt -1.77165 0.474713
v -0.0636396 -0.0636396 -3.56447e-17
vt -1.03781 1.03781
v -0.0779423 -0.045 -2.85084e-17
vt -0.474713 1.77165
v -0.0869333 -0.0232937 -2.0198e-17
vt -0.120735 2.62623
v -0.09 0 -1.12799e-17
vt 0 3.54331
v -0.0869333 0.0232937 -2.36171e-18
vt -0.120735 4.46038
v -0.0779423 0.045 5.94869e-18
vt -0.474713 5.31496
v -0.0636396 0.0636396 1.3085e-17
vt -1.03781 6.0488
v -0.045 0.0779423 1.85609e-17
vt -1.77165 6.6119
v -0.0232937 0.0869333 2.20032e-17
vt -2.62623 6.96588
v 0 0.09 2.31773e-17
vt -3.54331 7.08661
v 0.0232937 0.0869333 2.20032e-17
vt -4.46038 6.96588
v 0.045 0.0779423 1.85609e-17
vt -5.31496 6.6119
v 0.0636396 0.0636396 1.3085e-17
vt -6.0488 6.0488
f 2/5/3 1/6/3 5/7/3 6/8/3 7/9/3 8/10/3 9/11/3 10/12/3 11/13/3 12/14/3 13/15/3 14/16/3 15/17/3 16/18/3 17/19/3 18/20/3 19/21/3 20/22/3 21/23/3 22/24/3 23/25/3 24/26/3 25/27/3 26/28/3 

vt 2.588 0
vn 1 -2.79951e-16 -1.07181e-31
vt 3.51299 0
vt 3.51299 7.08661
v 0.09 -7.89591e-17 0.18
vt 2.588 7.08661
f 5/29/4 1/30/1 4/31/1 27/32/4 

vt 6.96588 4.46038
vn 0 -3.82857e-16 1
vt 6.6119 5.31496
v 0.0636396 0.0636396 0.18
vt 6.0488 6.0488
v 0.045 0.0779423 0.18
vt 5.31496 6.6119
v 0.0232937 0.0869333 0.18
vt 4.46038 6.96588
v 0 0.09 0.18
vt 3.54331 7.08661
v -0.0232937 0.0869333 0.18
vt 2.62623 6.96588
v -0.045 0.0779423 0.18
vt 1.77165 6.6119
v -0.0636396 0.0636396 0.18
vt 1.03781 6.0488
v -0.0779423 0.045 0.18
vt 0.474713 5.31496
v -0.0869333 0.0232937 0.18
vt 0.120735 4.46038
v -0.09 -6.76792e-17 0.18
v -0.0869333 -0.0232937 0.18
vt 0.120735 2.62623
v -0.0779423 -0.045 0.18
vt 0.474713 1.77165
v -0.0636396 -0.0636396 0.18
vt 1.03781 1.03781
v -0.045 -0.0779423 0.18
vt 1.77165 0.474713
v -0.0232937 -0.0869333 0.18
vt 2.62623 0.120735
v -1.12799e-17 -0.09 0.18
vt 3.54331 0
v 0.0232937 -0.0869333 0.18
vt 4.46038 0.120735
v 0.045 -0.0779423 0.18
vt 5.31496 0.474713
v 0.0636396 -0.0636396 0.18
vt 6.0488 1.03781
v 0.0779423 -0.045 0.18
vt 6.6119 1.77165
v 0.0869333 -0.0232937 0.18
vt 6.96588 2.62623
vt 7.08661 3.54331
f 4/33/5 3/34/5 28/35/5 29/36/5 30/37/5 31/38/5 32/39/5 33/40/5 34/41/5 35/42/5 36/43/5 37/19/5 38/44/5 39/45/5 40/46/5 41/47/5 42/48/5 43/49/5 44/50/5 45/51/5 46/52/5 47/53/5 48/54/5 27/55/5 

vt 0.191571 0
vt 1.11656 0
vn 0.707107 0.707107 2.70721e-16
vt 1.11656 7.08661
vt 0.191571 7.08661
f 2/56/2 26/57/6 28/58/6 3/59/2 

vt -1.11656 0
vt -0.191571 0
vn 0.5 0.866025 3.31564e-16
vt -0.191571 7.08661
vt -1.11656 7.08661
f 26/60/6 25/61/7 29/62/7 28/63/6 

vt -2.38012 0
vt -1.45513 0
vn 0.258819 0.965926 3.69811e-16
vt -1.45513 7.08661
vt -2.38012 7.08661
f 25/64/7 24/65/8 30/66/8 29/67/7 

vt -3.51299 0
vt -2.588 0
vn 1.81968e-16 1 3.82857e-16
vt -2.588 7.08661
vt -3.51299 7.08661
f 24/68/8 23/69/9 31/70/9 30/71/8 

vt -4.43798 0
vn -0.258819 0.965926 3.69811e-16
vt -4.43798 7.08661
f 23/72/9 22/68/10 32/71/10 31/73/9 

vt -5.09205 0
vt -4.16706 0
vn -0.5 0.866025 3.31564e-16
vt -4.16706 7.08661
vt -5.09205 7.08661
f 22/74/10 21/75/11 33/76/11 32/77/10 

vt -5.43062 0
vt -4.50563 0
vn -0.707107 0.707107 2.70721e-16
vt -4.50563 7.08661
vt -5.43062 7.08661
f 21/78/11 20/79/12 34/80/12 33/81/11 

vn -0.866025 0.5 1.91428e-16
f 20/78/12 19/79/13 35/80/13 34/81/12 

vn -0.965926 0.258819 9.90906e-17
f 19/74/13 18/75/14 36/76/14 35/77/13 

vn -1 1.39975e-16 5.35905e-32
f 18/72/14 17/68/15 37/71/15 36/73/14 

vn -0.965926 -0.258819 -9.90906e-17
f 17/68/15 16/69/16 38/70/16 37/71/15 

vn -0.866025 -0.5 -1.91428e-16
f 16/64/16 15/65/17 39/66/17 38/67/16 

vn -0.707107 -0.707107 -2.70721e-16
f 15/60/17 14/61/18 40/62/18 39/63/17 

vn -0.5 -0.866025 -3.31564e-16
f 14/56/18 13/57/19 41/58/19 40/59/18 

vn -0.258819 -0.965926 -3.69811e-16
f 13/1/19 12/2/20 42/3/20 41/4/19 

vn -2.65953e-16 -1 -3.82857e-16
f 12/29/20 11/30/21 43/31/21 42/32/20 

vt 4.43798 0
vn 0.258819 -0.965926 -3.69811e-16
vt 4.43798 7.08661
f 11/30/21 10/82/22 44/83/22 43/31/21 

vt 4.16706 0
vt 5.09205 0
vn 0.5 -0.866025 -3.31564e-16
vt 5.09205 7.08661
vt 4.16706 7.08661
f 10/84/22 9/85/23 45/86/23 44/87/22 

vt 4.50563 0
vt 5.43062 0
vn 0.707107 -0.707107 -2.70721e-16
vt 5.43062 7.08661
vt 4.50563 7.08661
f 9/88/23 8/89/24 46/90/24 45/91/23 

vn 0.866025 -0.5 -1.91428e-16
f 8/88/24 7/89/25 47/90/25 46/91/24 

vn 0.965926 -0.258819 -9.90906e-17
f 7/84/25 6/85/26 48/86/26 47/87/25 

f 6/30/26 5/82/4 27/83/4 48/31/26 

