# Alias OBJ Model File
# Exported from SketchUp, (c) 2000-2012 Trimble Navigation Limited
# File units = meters

mtllib ArduinoRobot.mtl

g Mesh1 Component_2_1 Model

usemtl FrontColor
v 0.0936678 -0.0565408 -0
vt 7.79528 4.58377
vn 0.866025 -0.5 -1.91428e-16
v 0.104468 -0.0304669 -0
vt 7.79528 5.60125
vn 0.965926 -0.258819 -9.90906e-17
v 0.104468 -0.0304669 0.216218
vt 5.61208e-16 5.60125
v 0.0936678 -0.0565408 0.216218
vt 6.22957e-16 4.58377
f 1/1/1 2/2/2 3/3/2 4/4/1 

v 0.0936678 0.0515684 -0
vt -7.27309 5.84646
vn 0 3.82857e-16 -1
v 0.104468 0.0254945 -0
vt -7.66247 4.90642
v 0.108152 -0.00248622 -0
vt -7.79528 3.89764
vt -7.66247 2.88885
vt -7.27309 1.94882
v 0.0764873 -0.078931 -4.51195e-17
vt -6.65368 1.14159
v 0.0540971 -0.0961115 -4.51195e-17
vt -5.84646 0.522184
v 0.0280232 -0.106912 -4.51195e-17
vt -4.90642 0.132809
v 4.2528e-05 -0.110595 -4.51195e-17
vt -3.89764 1.2415e-16
v -0.0279382 -0.106912 -4.51195e-17
vt -2.88885 0.132809
v -0.0540121 -0.0961115 -4.51195e-17
vt -1.94882 0.522184
v -0.0764022 -0.078931 -4.51195e-17
vt -1.14159 1.14159
v -0.0935828 -0.0565408 -0
vt -0.522184 1.94882
v -0.104383 -0.0304669 -0
vt -0.132809 2.88885
v -0.108067 -0.00248622 -0
vt 0 3.89764
v -0.104383 0.0254945 -0
vt -0.132809 4.90642
v -0.0935828 0.0515684 -0
vt -0.522184 5.84646
v -0.0764022 0.0739585 4.51195e-17
vt -1.14159 6.65368
v -0.0540121 0.0911391 4.51195e-17
vt -1.94882 7.27309
v -0.0279382 0.101939 4.51195e-17
vt -2.88885 7.66247
v 4.2528e-05 0.105623 4.51195e-17
vt -3.89764 7.79528
v 0.0280232 0.101939 4.51195e-17
vt -4.90642 7.66247
v 0.0540971 0.0911391 4.51195e-17
vt -5.84646 7.27309
v 0.0764873 0.0739585 4.51195e-17
vt -6.65368 6.65368
f 5/5/3 6/6/3 7/7/3 2/8/3 1/9/3 8/10/3 9/11/3 10/12/3 11/13/3 12/14/3 13/15/3 14/16/3 15/17/3 16/18/3 17/19/3 18/20/3 19/21/3 20/22/3 21/23/3 22/24/3 23/25/3 24/26/3 25/27/3 26/28/3 

vt 7.79528 1.60064
vn 0.965926 0.258819 9.90906e-17
vt 7.79528 2.61813
vn 0.866025 0.5 1.91428e-16
v 0.0936678 0.0515684 0.216218
vt 2.04158e-15 2.61813
v 0.104468 0.0254945 0.216218
vt 2.10333e-15 1.60064
f 6/29/4 5/30/5 27/31/5 28/32/4 

vt 7.79528 0.210729
vt 7.79528 1.22822
vn 0.707107 0.707107 2.70721e-16
v 0.0764873 0.0739585 0.216218
vt 1.9547e-15 1.22822
vt 3.02484e-15 0.210729
f 5/33/5 26/34/6 29/35/6 27/36/5 

vt 7.79528 -1.22822
vt 7.79528 -0.210729
vn 0.5 0.866025 3.31564e-16
v 0.0540971 0.0911391 0.216218
vt 2.91708e-15 -0.210729
vt 3.31985e-15 -1.22822
f 26/37/6 25/38/7 30/39/7 29/40/6 

vt 7.79528 -2.61813
vt 7.79528 -1.60064
vn 0.258819 0.965926 3.69811e-16
v 0.0280232 0.101939 0.216218
vt 4.535e-15 -1.60064
vt 5.40387e-15 -2.61813
f 25/41/7 24/42/8 31/43/8 30/44/7 

vt 7.79528 -3.86429
vt 7.79528 -2.84681
vn 1.95966e-16 1 3.82857e-16
v 4.2528e-05 0.105623 0.216218
vt 1.13347e-14 -2.84681
vt 1.42683e-14 -3.86429
f 24/45/8 23/46/9 32/47/9 31/48/8 

vt -7.79528 4.88178
vt -7.79528 3.86429
vn -0.258819 0.965926 3.69811e-16
v -0.0279382 0.101939 0.216218
vt 8.40104e-15 3.86429
vt 1.13347e-14 4.88178
f 23/49/9 22/50/10 33/51/10 32/52/9 

vt -7.79528 5.60125
vt -7.79528 4.58377
vn -0.5 0.866025 3.31564e-16
v -0.0540121 0.0911391 0.216218
vt 1.80129e-15 4.58377
vt 2.67016e-15 5.60125
f 22/53/10 21/54/11 34/55/11 33/56/10 

vt -7.79528 5.97368
vt -7.79528 4.95619
vn -0.707107 0.707107 2.70721e-16
v -0.0764022 0.0739585 0.216218
vt 5.69596e-16 4.95619
vt 9.72361e-16 5.97368
f 21/57/11 20/58/12 35/59/12 34/60/11 

vn -0.866025 0.5 1.91428e-16
v -0.0935828 0.0515684 0.216218
vt -7.34773e-16 4.95619
vt 3.35373e-16 5.97368
f 20/57/12 19/58/13 36/61/13 35/62/12 

vn -0.965926 0.258819 9.90906e-17
v -0.104383 0.0254945 0.216218
vt -8.67117e-16 4.58377
vt -8.05368e-16 5.60125
f 19/53/13 18/54/14 37/63/14 36/64/13 

vn -1 1.39975e-16 5.28373e-32
v -0.108067 -0.00248622 0.216218
vt -8.88178e-16 3.86429
vt -8.81484e-16 4.88178
f 18/49/14 17/50/15 38/65/15 37/66/14 

vt -7.79528 2.84681
vn -0.965926 -0.258819 -9.90906e-17
v -0.104383 -0.0304669 0.216218
vt -1.78305e-15 2.84681
f 17/50/15 16/67/16 39/68/16 38/65/15 

vt -7.79528 2.61813
vt -7.79528 1.60064
vn -0.866025 -0.5 -1.91428e-16
v -0.0935828 -0.0565408 0.216218
vt -1.85917e-15 1.60064
vt -1.79742e-15 2.61813
f 16/69/16 15/70/17 40/71/17 39/72/16 

vt -7.79528 1.22822
vt -7.79528 0.210729
vn -0.707107 -0.707107 -2.70721e-16
v -0.0764022 -0.078931 0.216218
vt -2.99991e-15 0.210729
vt -1.92976e-15 1.22822
f 15/73/17 14/74/18 41/75/18 40/76/17 

vt -7.79528 -0.210729
vt -7.79528 -1.22822
vn -0.5 -0.866025 -3.31564e-16
v -0.0540121 -0.0961115 0.216218
vt -3.6369e-15 -1.22822
vt -3.23413e-15 -0.210729
f 14/77/18 13/78/19 42/79/19 41/80/18 

vt -7.79528 -1.60064
vt -7.79528 -2.61813
vn -0.258819 -0.965926 -3.69811e-16
v -0.0279382 -0.106912 0.216218
vt -5.3347e-15 -2.61813
vt -4.46583e-15 -1.60064
f 13/81/19 12/82/20 43/83/20 42/84/19 

vt -7.79528 -2.84681
vt -7.79528 -3.86429
vn -2.79951e-16 -1 -3.82857e-16
v 4.2528e-05 -0.110595 0.216218
vt -1.39992e-14 -3.86429
vt -1.10656e-14 -2.84681
f 12/85/20 11/86/21 44/87/21 43/88/20 

vt 7.79528 3.86429
vt 7.79528 4.88178
vn 0.258819 -0.965926 -3.69811e-16
v 0.0280232 -0.106912 0.216218
vt -1.16038e-14 4.88178
vt -8.67013e-15 3.86429
f 11/89/21 10/90/22 45/91/22 44/92/21 

vn 0.5 -0.866025 -3.31564e-16
v 0.0540971 -0.0961115 0.216218
vt -2.73933e-15 5.60125
vt -1.87046e-15 4.58377
f 10/1/22 9/2/23 46/93/23 45/94/22 

vt 7.79528 4.95619
vt 7.79528 5.97368
vn 0.707107 -0.707107 -2.70721e-16
v 0.0764873 -0.078931 0.216218
vt -6.55312e-16 5.97368
vt -2.52547e-16 4.95619
f 9/95/23 8/96/24 47/97/24 46/98/23 

vt -3.60306e-16 5.97368
vt 7.0984e-16 4.95619
f 8/95/24 1/96/1 4/99/1 47/100/24 

vt 7.66247 4.90642
vn 0 -3.82857e-16 1
vt 7.27309 5.84646
vt 6.65368 6.65368
vt 5.84646 7.27309
vt 4.90642 7.66247
vt 3.89764 7.79528
vt 2.88885 7.66247
vt 1.94882 7.27309
vt 1.14159 6.65368
vt 0.522184 5.84646
vt 0.132809 4.90642
vt 0.132809 2.88885
vt 0.522184 1.94882
vt 1.14159 1.14159
vt 1.94882 0.522184
vt 2.88885 0.132809
vt 3.89764 -1.02014e-30
vt 4.90642 0.132809
vt 5.84646 0.522184
vt 6.65368 1.14159
vt 7.27309 1.94882
vt 7.66247 2.88885
v 0.108152 -0.00248622 0.216218
vt 7.79528 3.89764
f 28/101/25 27/102/25 29/103/25 30/104/25 31/105/25 32/106/25 33/107/25 34/108/25 35/109/25 36/110/25 37/111/25 38/19/25 39/112/25 40/113/25 41/114/25 42/115/25 43/116/25 44/117/25 45/118/25 46/119/25 47/120/25 4/121/25 3/122/25 48/123/25 

vn 1 -3.07946e-16 -1.11891e-31
vt 4.95265e-16 4.88178
vt 1.39014e-15 3.86429
f 2/89/2 7/90/26 48/124/26 3/125/2 

vt 7.79528 2.84681
vt 1.2744e-15 3.86429
vt 1.28109e-15 2.84681
f 7/126/26 6/89/4 28/127/4 48/128/26 

