# Alias OBJ Model File
# Exported from SketchUp, (c) 2000-2012 Trimble Navigation Limited
# File units = meters

mtllib ArduinoRobot.mtl

g Mesh1 Component_1_1 Model

usemtl FrontColor
v -0.06 0.09 3.44571e-17
vt -7.08661 0
vn -1 0 0
v -0.06 -0.09 -3.44571e-17
vt 0 0
v -0.06 -0.09 0.18
vt 0 7.08661
v -0.06 0.09 0.18
vt -7.08661 7.08661
f 1/1/1 2/2/1 3/3/1 4/4/1 

v 0.06 0.09 3.44571e-17
vt -4.72441 7.08661
vn 0 3.82857e-16 -1
v 0.06 -0.09 -3.44571e-17
vt -4.72441 0
f 5/5/2 6/6/2 2/2/2 1/3/2 

vn 1 0 -0
vt 7.08661 0
v 0.06 0.09 0.18
vt 7.08661 7.08661
v 0.06 -0.09 0.18
f 6/2/3 5/7/3 7/8/3 8/3/3 

vn 0 1 3.82857e-16
f 5/6/4 1/2/4 4/3/4 7/5/4 

vt 4.72441 0
vn 0 -3.82857e-16 1
vt 4.72441 7.08661
f 8/9/5 7/10/5 4/3/5 3/2/5 

vn 0 -1 -3.82857e-16
f 2/2/6 6/9/6 8/10/6 3/3/6 

