# Alias OBJ Model File
# Exported from SketchUp, (c) 2000-2012 Trimble Navigation Limited
# File units = meters

mtllib simpleFIRMEnv.mtl

g Mesh1 env1 Model

usemtl FrontColor
v 18.1566 7.74707 1.27287
vt 9.9476e-14 340.157
vn 1 0 -0
v 18.1566 -0.892929 1.27287
vt 0 0
v 18.1566 -0.892929 -0.337126
vt 63.3858 0
v 18.1566 7.74707 -0.337126
vt 63.3858 340.157
f 1/1/1 2/2/1 3/3/1 4/4/1 

v 17.0494 0.0424615 1.27287
vt 731.606 36.8264
vn 0 2.92441e-16 1
vt 775.197 0
vt 775.197 340.157
f 5/5/2 2/6/2 1/7/2

v -1.53342 -0.892929 1.27287
f 2/6/2 5/5/2 6/2/2

v -0.0406388 0.0424615 1.27287
vt 58.7709 36.8264
f 7/8/2 6/2/2 5/5/2

v -1.53342 7.74707 1.27287
vt 0 340.157
f 6/2/2 7/8/2 8/9/2

v -0.0406388 6.99246 1.27287
vt 58.7709 310.448
f 8/9/2 7/8/2 9/10/2

vt 1.13687e-13 310.448
vt 4.26326e-14 36.8264
v -0.0406388 0.0424615 -0.337126
vt 63.3858 36.8264
v -0.0406388 6.99246 -0.337126
vt 63.3858 310.448
f 9/11/1 7/12/1 10/13/1 11/14/1 

vt 58.7709 9.60724e-15
vn 0 1 -8.96784e-16
vt 731.606 9.60724e-15
v 17.0494 0.0424615 -0.337126
vt 731.606 63.3858
vt 58.7709 63.3858
f 7/15/3 5/16/3 12/17/3 10/18/3 

vt -4.26326e-14 36.8264
vn -1 0 -0
v 17.0494 6.99246 1.27287
vt -1.13687e-13 310.448
v 17.0494 6.99246 -0.337126
vt -63.3858 310.448
vt -63.3858 36.8264
f 5/19/4 13/20/4 14/21/4 12/22/4 

vt 731.606 310.448
f 5/5/2 1/7/2 13/23/2

f 13/23/2 1/7/2 9/10/2

f 8/9/2 9/10/2 1/7/2

vt 0 1.31967e-12
vn 0 1 3.58714e-15
vt 775.197 1.31967e-12
vt 775.197 63.3858
v -1.53342 7.74707 -0.337126
vt 0 63.3858
f 8/24/5 1/25/5 4/26/5 15/27/5 

vt -775.197 340.157
vn 0 -7.51991e-16 -1
vt -731.606 310.448
f 4/28/6 14/29/6 15/9/6

vt -731.606 36.8264
f 4/28/6 12/30/6 14/29/6

vt -775.197 4.76656e-14
f 3/31/6 12/30/6 4/28/6

vt -58.7709 36.8264
f 12/30/6 3/31/6 10/32/6

v -1.53342 -0.892929 -0.337126
vt 0 4.76656e-14
f 16/33/6 10/32/6 3/31/6

f 10/32/6 16/33/6 15/9/6

vt -9.9476e-14 340.157
vt -63.3858 340.157
vt -63.3858 0
f 6/2/4 8/34/4 15/35/4 16/36/4 

vt -775.197 0
vn 0 -1 -0
vt -775.197 63.3858
f 2/37/7 6/2/7 16/27/7 3/38/7 

vt -58.7709 310.448
f 10/32/6 15/9/6 11/39/6

f 11/39/6 15/9/6 14/29/6

vt -731.606 -4.43124e-13
vn 0 -1 1.79357e-15
vt -58.7709 -4.43124e-13
vt -58.7709 63.3858
vt -731.606 63.3858
f 13/40/8 9/41/8 11/42/8 14/43/8 

g Mesh2 env1 Model

v 2.29935 5.17247 1.27287
vt 150.896 238.795
vn -1.66183e-48 4.91093e-16 1
v 2.29935 2.23245 1.27287
vt 150.896 123.046
v 14.7094 2.23245 1.27287
vt 639.48 123.046
v 14.7094 5.17247 1.27287
vt 639.48 238.795
f 17/44/9 18/45/9 19/46/9 20/47/9 

vt -1.42109e-14 123.046
vt -7.10543e-14 238.795
v 2.29935 5.17247 -0.0271255
vt -51.1811 238.795
v 2.29935 2.23245 -0.0271255
vt -51.1811 123.046
f 18/48/4 17/49/4 21/50/4 22/51/4 

vt 150.896 -1.9416e-13
vn 0 1 -1.11063e-15
vt 639.48 -1.9416e-13
v 14.7094 5.17247 -0.0271255
vt 639.48 51.1811
vt 150.896 51.1811
f 17/52/10 20/53/10 23/54/10 21/55/10 

vt 7.10543e-14 238.795
vt 1.42109e-14 123.046
v 14.7094 2.23245 -0.0271255
vt 51.1811 123.046
vt 51.1811 238.795
f 20/56/1 19/57/1 24/58/1 23/59/1 

vt -639.48 -5.41188e-14
vn 0 -1 5.55316e-16
vt -150.896 -5.41188e-14
vt -150.896 51.1811
vt -639.48 51.1811
f 19/60/11 18/61/11 22/62/11 24/63/11 

vt -150.896 123.046
vn 0 0 -1
vt -150.896 238.795
vt -639.48 238.795
vt -639.48 123.046
f 22/64/12 21/65/12 23/66/12 24/67/12 

