# Alias OBJ Model File
# Exported from SketchUp, (c) 2000-2012 Trimble Navigation Limited
# File units = meters

mtllib FIRMEnvExp2.mtl

g Mesh1 Component_3_1 Model

usemtl FrontColor
v 16.9511 0.681286 0.0126559
vt 686.579 324.386
vn 0 1 3.82857e-16
v 12.0311 0.681286 0.0126559
vt 492.879 324.386
v 12.0311 0.681286 3.01266
vt 492.879 206.275
v 16.9511 0.681286 3.01266
vt 686.579 206.275
f 1/1/1 2/2/1 3/3/1 4/4/1 

vt -492.879 47.863
vn 0 3.82857e-16 -1
vt -686.579 47.863
v 16.9511 0.151286 0.0126559
vt -686.579 26.9969
v 12.0311 0.151286 0.0126559
vt -492.879 26.9969
f 2/5/2 1/6/2 5/7/2 6/8/2 

vt 324.386 26.9969
vn 1 0 -0
vt 324.386 47.863
vt 206.275 47.863
v 16.9511 0.151286 3.01266
vt 206.275 26.9969
f 5/9/3 1/10/3 4/11/3 7/12/3 

vt 686.579 47.863
vn 0 -3.82857e-16 1
vt 492.879 47.863
v 12.0311 0.151286 3.01266
vt 492.879 26.9969
vt 686.579 26.9969
f 4/13/4 3/14/4 8/15/4 7/16/4 

vt -324.386 47.863
vn -1 0 -0
vt -324.386 26.9969
vt -206.275 26.9969
vt -206.275 47.863
f 2/17/5 6/18/5 8/19/5 3/20/5 

vt -492.879 324.386
vn 0 -1 -3.82857e-16
vt -686.579 324.386
vt -686.579 206.275
vt -492.879 206.275
f 6/21/6 5/22/6 7/23/6 8/24/6 

g Mesh2 Component_3_1 Model

v 18.0169 19.3009 0.0126559
vt 728.541 324.386
v 15.1769 19.3009 0.0126559
vt 616.73 324.386
v 15.1769 19.3009 3.01266
vt 616.73 206.275
v 18.0169 19.3009 3.01266
vt 728.541 206.275
f 9/25/1 10/26/1 11/27/1 12/28/1 

v 18.0169 18.7409 0.0126559
vt -728.541 758.873
v 15.1769 18.7409 0.0126559
vt -616.73 758.873
vt -616.73 780.921
vt -728.541 780.921
f 13/29/2 14/30/2 10/31/2 9/32/2 

vt -616.73 324.386
vt -728.541 324.386
v 18.0169 18.7409 3.01266
vt -728.541 206.275
v 15.1769 18.7409 3.01266
vt -616.73 206.275
f 14/33/6 13/34/6 15/35/6 16/36/6 

vt 324.386 758.873
vt 324.386 780.921
vt 206.275 780.921
vt 206.275 758.873
f 13/37/3 9/38/3 12/39/3 15/40/3 

vt 616.73 758.873
vt 728.541 758.873
vt 728.541 780.921
vt 616.73 780.921
f 16/41/4 15/42/4 12/43/4 11/44/4 

vt -324.386 780.921
vt -324.386 758.873
vt -206.275 758.873
vt -206.275 780.921
f 10/45/5 14/46/5 16/47/5 11/48/5 

g Mesh3 Component_3_1 Model

v 11.9396 16.596 0.0802891
vt -489.276 674.427
v 9.52958 16.596 0.0802891
vt -394.394 674.427
v 9.52958 17.616 0.0802891
vt -394.394 714.585
v 11.9396 17.616 0.0802891
vt -489.276 714.585
f 17/49/2 18/50/2 19/51/2 20/52/2 

vt -394.394 321.723
vt -489.276 321.723
v 11.9396 16.596 3.08029
vt -489.276 203.613
v 9.52958 16.596 3.08029
vt -394.394 203.613
f 18/53/6 17/54/6 21/55/6 22/56/6 

vt 321.723 674.427
vt 321.723 714.585
v 11.9396 17.616 3.08029
vt 203.613 714.585
vt 203.613 674.427
f 17/57/3 20/58/3 23/59/3 21/60/3 

vt 489.276 321.723
vt 394.394 321.723
v 9.52958 17.616 3.08029
vt 394.394 203.613
vt 489.276 203.613
f 20/61/1 19/62/1 24/63/1 23/64/1 

vt -321.723 714.585
vt -321.723 674.427
vt -203.613 674.427
vt -203.613 714.585
f 19/65/5 18/66/5 22/67/5 24/68/5 

vt 394.394 674.427
vt 489.276 674.427
vt 489.276 714.585
vt 394.394 714.585
f 22/69/4 21/70/4 23/71/4 24/72/4 

g Mesh4 Component_3_1 Model

v 10.9142 2.69117 0.0802891
vt 448.906 321.723
v 6.47418 2.69117 0.0802891
vt 274.103 321.723
v 6.47418 2.69117 3.08029
vt 274.103 203.613
v 10.9142 2.69117 3.08029
vt 448.906 203.613
f 25/73/1 26/74/1 27/75/1 28/76/1 

v 6.47418 1.68117 0.0802891
vt -274.103 87.2286
vt -274.103 126.992
vt -448.906 126.992
v 10.9142 1.68117 0.0802891
vt -448.906 87.2286
f 29/77/2 26/78/2 25/79/2 30/80/2 

vt -321.723 126.992
vt -321.723 87.2286
v 6.47418 1.68117 3.08029
vt -203.613 87.2286
vt -203.613 126.992
f 26/81/5 29/82/5 31/83/5 27/84/5 

vt -274.103 321.723
vt -448.906 321.723
v 10.9142 1.68117 3.08029
vt -448.906 203.613
vt -274.103 203.613
f 29/85/6 30/86/6 32/87/6 31/88/6 

vt 321.723 87.2286
vt 321.723 126.992
vt 203.613 126.992
vt 203.613 87.2286
f 30/89/3 25/90/3 28/91/3 32/92/3 

vt 274.103 126.992
vt 274.103 87.2286
vt 448.906 87.2286
vt 448.906 126.992
f 27/93/4 31/94/4 32/95/4 28/96/4 

g Mesh5 Component_3_1 Model

v 16.9974 2.45859 0.0802891
vt -321.723 -154.574
vn -0.965926 -0.258819 -9.90906e-17
v 17.0713 2.28011 0.0802891
vt -321.723 -162.18
vn -0.866025 -0.5 -1.91428e-16
v 17.0713 2.28011 3.08029
vt -203.613 -162.18
v 16.9974 2.45859 3.08029
vt -203.613 -154.574
f 33/97/7 34/98/8 35/99/8 36/100/7 

v 18.353 3.02011 0.0802891
vt -741.774 139.943
v 18.427 2.84164 0.0802891
vt -744.685 132.916
v 18.4522 2.65011 0.0802891
vt -745.677 125.376
v 18.427 2.45859 0.0802891
vt -744.685 117.836
v 18.353 2.28011 0.0802891
vt -741.774 110.809
v 18.2354 2.12686 0.0802891
vt -737.144 104.775
v 18.0822 2.00926 0.0802891
vt -731.11 100.145
v 17.9037 1.93533 0.0802891
vt -724.084 97.2348
v 17.7122 1.91011 0.0802891
vt -716.543 96.2421
v 17.5206 1.93533 0.0802891
vt -709.003 97.2348
v 17.3422 2.00926 0.0802891
vt -701.977 100.145
v 17.1889 2.12686 0.0802891
vt -695.943 104.775
vt -691.313 110.809
vt -688.402 117.836
v 16.9722 2.65011 0.0802891
vt -687.41 125.376
v 16.9974 2.84164 0.0802891
vt -688.402 132.916
v 17.0713 3.02011 0.0802891
vt -691.313 139.943
v 17.1889 3.17337 0.0802891
vt -695.943 145.977
v 17.3422 3.29097 0.0802891
vt -701.977 150.607
v 17.5206 3.3649 0.0802891
vt -709.003 153.517
v 17.7122 3.39011 0.0802891
vt -716.543 154.51
v 17.9037 3.3649 0.0802891
vt -724.084 153.517
v 18.0822 3.29097 0.0802891
vt -731.11 150.607
v 18.2354 3.17337 0.0802891
vt -737.144 145.977
f 37/101/2 38/102/2 39/103/2 40/104/2 41/105/2 42/106/2 43/107/2 44/108/2 45/109/2 46/110/2 47/111/2 48/112/2 34/113/2 33/114/2 49/115/2 50/116/2 51/117/2 52/118/2 53/119/2 54/120/2 55/121/2 56/122/2 57/123/2 58/124/2 

vt 321.723 -162.18
vn 0.965926 0.258819 9.90906e-17
vt 321.723 -154.574
vn 0.866025 0.5 1.91428e-16
v 18.353 3.02011 3.08029
vt 203.613 -154.574
v 18.427 2.84164 3.08029
vt 203.613 -162.18
f 38/125/9 37/126/10 59/127/10 60/128/9 

vt 321.723 -340.539
vt 321.723 -332.934
vn 0.707107 0.707107 2.70721e-16
v 18.2354 3.17337 3.08029
vt 203.613 -332.934
vt 203.613 -340.539
f 37/129/10 58/130/11 61/131/11 59/132/10 

vt 321.723 -495.951
vt 321.723 -488.345
vn 0.5 0.866025 3.31564e-16
v 18.0822 3.29097 3.08029
vt 203.613 -488.345
vt 203.613 -495.951
f 58/133/11 57/134/12 62/135/12 61/136/11 

vt 321.723 -617.823
vt 321.723 -610.218
vn 0.258819 0.965926 3.69811e-16
v 17.9037 3.3649 3.08029
vt 203.613 -610.218
vt 203.613 -617.823
f 57/137/12 56/138/13 63/139/13 62/140/12 

vt 321.723 -697.851
vt 321.723 -690.246
v 17.7122 3.39011 3.08029
vt 203.613 -690.246
vt 203.613 -697.851
f 56/141/13 55/142/1 64/143/1 63/144/13 

vt -321.723 730.581
vt -321.723 722.975
vn -0.258819 0.965926 3.69811e-16
v 17.5206 3.3649 3.08029
vt -203.613 722.975
vt -203.613 730.581
f 55/145/1 54/146/14 65/147/14 64/148/1 

vt -321.723 713.782
vt -321.723 706.176
vn -0.5 0.866025 3.31564e-16
v 17.3422 3.29097 3.08029
vt -203.613 706.176
vt -203.613 713.782
f 54/149/14 53/150/15 66/151/15 65/152/14 

vt -321.723 648.599
vt -321.723 640.993
vn -0.707107 0.707107 2.70721e-16
v 17.1889 3.17337 3.08029
vt -203.613 640.993
vt -203.613 648.599
f 53/153/15 52/154/16 67/155/16 66/156/15 

vt -321.723 539.474
vt -321.723 531.869
vn -0.866025 0.5 1.91428e-16
v 17.0713 3.02011 3.08029
vt -203.613 531.869
vt -203.613 539.474
f 52/157/16 51/158/17 68/159/17 67/160/16 

vt -321.723 393.844
vt -321.723 386.239
vn -0.965926 0.258819 9.90906e-17
v 16.9974 2.84164 3.08029
vt -203.613 386.239
vt -203.613 393.844
f 51/161/17 50/162/18 69/163/18 68/164/17 

vt -321.723 221.634
vt -321.723 214.028
vn -1 -2.37958e-16 -9.01343e-32
v 16.9722 2.65011 3.08029
vt -203.613 214.028
vt -203.613 221.634
f 50/165/18 49/166/19 70/167/19 69/168/18 

vt -321.723 34.5784
vt -321.723 26.973
vt -203.613 26.973
vt -203.613 34.5784
f 49/169/19 33/170/7 36/171/7 70/172/19 

vt 744.685 132.916
vt 741.774 139.943
vt 737.144 145.977
vt 731.11 150.607
vt 724.084 153.517
vt 716.543 154.51
vt 709.003 153.517
vt 701.977 150.607
vt 695.943 145.977
vt 691.313 139.943
vt 688.402 132.916
vt 687.41 125.376
vt 688.402 117.836
vt 691.313 110.809
v 17.1889 2.12686 3.08029
vt 695.943 104.775
v 17.3422 2.00926 3.08029
vt 701.977 100.145
v 17.5206 1.93533 3.08029
vt 709.003 97.2348
v 17.7122 1.91011 3.08029
vt 716.543 96.2421
v 17.9037 1.93533 3.08029
vt 724.084 97.2348
v 18.0822 2.00926 3.08029
vt 731.11 100.145
v 18.2354 2.12686 3.08029
vt 737.144 104.775
v 18.353 2.28011 3.08029
vt 741.774 110.809
v 18.427 2.45859 3.08029
vt 744.685 117.836
v 18.4522 2.65011 3.08029
vt 745.677 125.376
f 60/173/4 59/174/4 61/175/4 62/176/4 63/177/4 64/178/4 65/179/4 66/180/4 67/181/4 68/182/4 69/183/4 70/184/4 36/185/4 35/186/4 71/187/4 72/188/4 73/189/4 74/190/4 75/191/4 76/192/4 77/193/4 78/194/4 79/195/4 80/196/4 

vt -321.723 -332.934
vt -321.723 -340.539
vn -0.707107 -0.707107 -2.70721e-16
vt -203.613 -340.539
vt -203.613 -332.934
f 34/197/8 48/198/20 71/199/20 35/200/8 

vt -321.723 -488.345
vt -321.723 -495.951
vn -0.5 -0.866025 -3.31564e-16
vt -203.613 -495.951
vt -203.613 -488.345
f 48/201/20 47/202/21 72/203/21 71/204/20 

vt -321.723 -610.218
vt -321.723 -617.823
vn -0.258819 -0.965926 -3.69811e-16
vt -203.613 -617.823
vt -203.613 -610.218
f 47/205/21 46/206/22 73/207/22 72/208/21 

vt -321.723 -690.246
vt -321.723 -697.851
vn -9.23838e-16 -1 -3.82857e-16
vt -203.613 -697.851
vt -203.613 -690.246
f 46/209/22 45/210/23 74/211/23 73/212/22 

vt 321.723 722.975
vt 321.723 730.581
vn 0.258819 -0.965926 -3.69811e-16
vt 203.613 730.581
vt 203.613 722.975
f 45/213/23 44/214/24 75/215/24 74/216/23 

vt 321.723 706.176
vt 321.723 713.782
vn 0.5 -0.866025 -3.31564e-16
vt 203.613 713.782
vt 203.613 706.176
f 44/217/24 43/218/25 76/219/25 75/220/24 

vt 321.723 640.993
vt 321.723 648.599
vn 0.707107 -0.707107 -2.70721e-16
vt 203.613 648.599
vt 203.613 640.993
f 43/221/25 42/222/26 77/223/26 76/224/25 

vt 321.723 531.869
vt 321.723 539.474
vn 0.866025 -0.5 -1.91428e-16
vt 203.613 539.474
vt 203.613 531.869
f 42/225/26 41/226/27 78/227/27 77/228/26 

vt 321.723 386.239
vt 321.723 393.844
vn 0.965926 -0.258819 -9.90906e-17
vt 203.613 393.844
vt 203.613 386.239
f 41/229/27 40/230/28 79/231/28 78/232/27 

vt 321.723 214.028
vt 321.723 221.634
vn 1 2.37958e-16 9.01343e-32
vt 203.613 221.634
vt 203.613 214.028
f 40/233/28 39/234/29 80/235/29 79/236/28 

vt 321.723 26.973
vt 321.723 34.5784
vt 203.613 34.5784
vt 203.613 26.973
f 39/237/29 38/238/9 60/239/9 80/240/29 

g Mesh6 Component_3_1 Model

v 10.1155 4.76696 0.0802891
vt -417.462 321.723
v 11.4155 4.76696 0.0802891
vt -468.643 321.723
v 11.4155 4.76696 3.08029
vt -468.643 203.613
v 10.1155 4.76696 3.08029
vt -417.462 203.613
f 81/241/6 82/242/6 83/243/6 84/244/6 

v 11.4155 9.20696 0.0802891
vt -468.643 383.52
vt -468.643 208.716
vt -417.462 208.716
v 10.1155 9.20696 0.0802891
vt -417.462 383.52
f 85/245/2 82/246/2 81/247/2 86/248/2 

vt 321.723 208.716
vt 321.723 383.52
v 11.4155 9.20696 3.08029
vt 203.613 383.52
vt 203.613 208.716
f 82/249/3 85/250/3 87/251/3 83/252/3 

vt 468.643 321.723
vt 417.462 321.723
v 10.1155 9.20696 3.08029
vt 417.462 203.613
vt 468.643 203.613
f 85/253/1 86/254/1 88/255/1 87/256/1 

vt -321.723 383.52
vt -321.723 208.716
vt -203.613 208.716
vt -203.613 383.52
f 86/257/5 81/258/5 84/259/5 88/260/5 

vt 468.643 208.716
vt 468.643 383.52
vt 417.462 383.52
vt 417.462 208.716
f 83/261/4 87/262/4 88/263/4 84/264/4 

g Mesh7 Component_3_1 Model

v 7.89062 6.59858 0.0802891
vt 321.723 78.2696
v 7.40062 7.44728 0.0802891
vt 321.723 116.852
v 7.40062 7.44728 3.08029
vt 203.613 116.852
v 7.89062 6.59858 3.08029
vt 203.613 78.2696
f 89/265/10 90/266/10 91/267/10 92/268/10 

vt -310.577 314.241
vt -329.868 280.827
v 7.40062 5.74987 0.0802891
vt -310.577 247.414
v 6.42062 5.74987 0.0802891
vt -271.994 247.414
v 5.93062 6.59858 0.0802891
vt -252.703 280.827
v 6.42062 7.44728 0.0802891
vt -271.994 314.241
f 90/269/2 89/270/2 93/271/2 94/272/2 95/273/2 96/274/2 

vt 321.723 369.555
vt 321.723 408.138
vt 203.613 408.138
v 7.40062 5.74987 3.08029
vt 203.613 369.555
f 93/275/27 89/276/27 92/277/27 97/278/27 

vt 329.868 280.827
vt 310.577 314.241
v 6.42062 7.44728 3.08029
vt 271.994 314.241
v 5.93062 6.59858 3.08029
vt 252.703 280.827
v 6.42062 5.74987 3.08029
vt 271.994 247.414
vt 310.577 247.414
f 92/279/4 91/280/4 98/281/4 99/282/4 100/283/4 97/284/4 

vt 310.577 321.723
vt 271.994 321.723
vt 271.994 203.613
vt 310.577 203.613
f 90/285/1 96/286/1 98/287/1 91/288/1 

vt -321.723 408.138
vt -321.723 369.555
vt -203.613 369.555
vt -203.613 408.138
f 96/289/17 95/290/17 99/291/17 98/292/17 

vt -321.723 116.852
vt -321.723 78.2696
vt -203.613 78.2696
vt -203.613 116.852
f 95/293/8 94/294/8 100/295/8 99/296/8 

vt -271.994 321.723
vn -7.36644e-16 -1 -3.82857e-16
vt -310.577 321.723
vt -310.577 203.613
vt -271.994 203.613
f 94/297/30 93/298/30 97/299/30 100/300/30 

g Mesh8 Component_3_1 Model

v 13.593 17.4851 0.0802891
vt -321.723 709.432
v 13.593 1.94514 0.0802891
vt -321.723 97.6211
v 13.593 1.94514 3.08029
vt -203.613 97.6211
v 13.593 17.4851 3.08029
vt -203.613 709.432
f 101/301/5 102/302/5 103/303/5 104/304/5 

vt -554.373 97.6211
vt -554.373 709.432
v 15.433 17.4851 0.0802891
vt -626.814 709.432
v 15.433 1.94514 0.0802891
vt -626.814 97.6211
f 102/305/2 101/306/2 105/307/2 106/308/2 

vt 626.814 321.723
vt 554.373 321.723
vt 554.373 203.613
v 15.433 17.4851 3.08029
vt 626.814 203.613
f 105/309/1 101/310/1 104/311/1 107/312/1 

vt 554.373 709.432
vt 554.373 97.6211
v 15.433 1.94514 3.08029
vt 626.814 97.6211
vt 626.814 709.432
f 104/313/4 103/314/4 108/315/4 107/316/4 

vt -554.373 321.723
vt -626.814 321.723
vt -626.814 203.613
vt -554.373 203.613
f 102/317/6 106/318/6 108/319/6 103/320/6 

vt 321.723 97.6211
vt 321.723 709.432
vt 203.613 709.432
vt 203.613 97.6211
f 106/321/3 105/322/3 107/323/3 108/324/3 

g Mesh9 Component_3_1 Model

v 18.2746 11.7866 3.08029
vt 738.688 485.08
v 16.9546 11.7866 3.08029
vt 686.719 485.08
v 16.9546 11.0366 3.08029
vt 686.719 455.553
v 18.2746 11.0366 3.08029
vt 738.688 455.553
f 109/325/4 110/326/4 111/327/4 112/328/4 

v 18.2746 11.7866 0.0802891
vt 738.688 321.723
v 16.9546 11.7866 0.0802891
vt 686.719 321.723
vt 686.719 203.613
vt 738.688 203.613
f 113/329/1 114/330/1 110/331/1 109/332/1 

vt -686.719 485.08
vt -738.688 485.08
v 18.2746 11.0366 0.0802891
vt -738.688 455.553
v 16.9546 11.0366 0.0802891
vt -686.719 455.553
f 114/333/2 113/334/2 115/335/2 116/336/2 

vt 321.723 455.553
vt 321.723 485.08
vt 203.613 485.08
vt 203.613 455.553
f 115/337/3 113/338/3 109/339/3 112/340/3 

vt -686.719 321.723
vt -738.688 321.723
vt -738.688 203.613
vt -686.719 203.613
f 116/341/6 115/342/6 112/343/6 111/344/6 

vt -321.723 485.08
vt -321.723 455.553
vt -203.613 455.553
vt -203.613 485.08
f 114/345/5 116/346/5 111/347/5 110/348/5 

g Mesh10 Component_3_1 Model

v 9.82312 13.5032 3.08029
vt 405.951 552.664
v 9.30812 14.3952 3.08029
vt 385.675 587.782
v 8.27812 14.3952 3.08029
vt 345.124 587.782
v 7.76312 13.5032 3.08029
vt 324.848 552.664
v 8.27812 12.6112 3.08029
vt 345.124 517.545
v 9.30812 12.6112 3.08029
vt 385.675 517.545
f 117/349/4 118/350/4 119/351/4 120/352/4 121/353/4 122/354/4 

v 9.82312 13.5032 0.0802891
vt 321.723 275.645
v 9.30812 14.3952 0.0802891
vt 321.723 316.197
vt 203.613 316.197
vt 203.613 275.645
f 123/355/10 124/356/10 118/357/10 117/358/10 

vt -385.675 587.782
vt -405.951 552.664
v 9.30812 12.6112 0.0802891
vt -385.675 517.545
v 8.27812 12.6112 0.0802891
vt -345.124 517.545
v 7.76312 13.5032 0.0802891
vt -324.848 552.664
v 8.27812 14.3952 0.0802891
vt -345.124 587.782
f 124/359/2 123/360/2 125/361/2 126/362/2 127/363/2 128/364/2 

vt 321.723 641.045
vt 321.723 681.596
vt 203.613 681.596
vt 203.613 641.045
f 125/365/27 123/366/27 117/367/27 122/368/27 

vt -345.124 321.723
vt -385.675 321.723
vt -385.675 203.613
vt -345.124 203.613
f 126/369/6 125/370/6 122/371/6 121/372/6 

vt -321.723 316.197
vt -321.723 275.645
vt -203.613 275.645
vt -203.613 316.197
f 127/373/8 126/374/8 121/375/8 120/376/8 

vt -321.723 681.596
vt -321.723 641.045
vt -203.613 641.045
vt -203.613 681.596
f 128/377/17 127/378/17 120/379/17 119/380/17 

vt 385.675 321.723
vt 345.124 321.723
vt 345.124 203.613
vt 385.675 203.613
f 124/381/1 128/382/1 119/383/1 118/384/1 

g Mesh11 Component_3_1 Model

v -0.488029 20.4656 0.0802891
vt -321.723 826.772
v -0.488029 -0.534436 0.0802891
vt -321.723 4.61853e-14
v -0.488029 -0.534436 3.08029
vt -203.613 0
v -0.488029 20.4656 3.08029
vt -203.613 826.772
f 129/385/5 130/386/5 131/387/5 132/388/5 

v -9.02389e-17 -0.184416 0.0802891
vt -19.2137 13.7803
vt 0 -7.69885e-14
vt 0 826.772
f 133/389/2 130/390/2 129/391/2

v 20.512 -0.534436 0.0802891
vt -826.772 -7.69885e-14
f 130/390/2 133/389/2 134/392/2

v 20 -0.184416 0.0802891
vt -806.615 13.7803
f 135/393/2 134/392/2 133/389/2

v 20.512 20.4656 0.0802891
vt -826.772 826.772
f 134/392/2 135/393/2 136/394/2

v 20 19.8156 0.0802891
vt -806.615 801.182
f 136/394/2 135/393/2 137/395/2

vt -321.723 801.182
vt -321.723 13.7803
v 20 -0.184416 3.08029
vt -203.613 13.7803
v 20 19.8156 3.08029
vt -203.613 801.182
f 137/396/5 135/397/5 138/398/5 139/399/5 

vt 806.615 321.723
vt 19.2137 321.723
v -9.02389e-17 -0.184416 3.08029
vt 19.2137 203.613
vt 806.615 203.613
f 135/400/1 133/401/1 140/402/1 138/403/1 

vt 321.723 13.7803
v -9.02389e-17 19.8156 0.0802891
vt 321.723 801.182
v -9.02389e-17 19.8156 3.08029
vt 203.613 801.182
vt 203.613 13.7803
f 133/404/3 141/405/3 142/406/3 140/407/3 

vt -19.2137 801.182
f 133/389/2 129/391/2 141/408/2

f 141/408/2 129/391/2 137/395/2

f 136/394/2 137/395/2 129/391/2

vt 826.772 321.723
vt 0 321.723
vt 0 203.613
v 20.512 20.4656 3.08029
vt 826.772 203.613
f 136/409/1 129/410/1 132/411/1 143/412/1 

vt 19.2137 801.182
vt 826.772 826.772
f 132/391/4 142/413/4 143/414/4

vt 19.2137 13.7803
f 132/391/4 140/415/4 142/413/4

vt 0 -7.79545e-14
f 131/416/4 140/415/4 132/391/4

vt 806.615 13.7803
f 140/415/4 131/416/4 138/417/4

v 20.512 -0.534436 3.08029
vt 826.772 -7.79545e-14
f 144/418/4 138/417/4 131/416/4

f 138/417/4 144/418/4 143/414/4

vt 321.723 4.61853e-14
vt 321.723 826.772
vt 203.613 826.772
vt 203.613 0
f 134/419/3 136/420/3 143/421/3 144/422/3 

vt -826.772 321.723
vt -826.772 203.613
f 130/410/6 134/423/6 144/424/6 131/411/6 

vt 806.615 801.182
f 138/417/4 143/414/4 139/425/4

f 139/425/4 143/414/4 142/413/4

vt -19.2137 321.723
vt -806.615 321.723
vt -806.615 203.613
vt -19.2137 203.613
f 141/426/6 137/427/6 139/428/6 142/429/6 

g Mesh12 Component_3_1 Model

v 19.1456 16.8822 0.0802891
vt 772.979 321.723
v 17.6956 16.8822 0.0802891
vt 715.892 321.723
v 17.6956 16.8822 3.08029
vt 715.892 203.613
v 19.1456 16.8822 3.08029
vt 772.979 203.613
f 145/430/1 146/431/1 147/432/1 148/433/1 

v 17.6956 14.2122 0.0802891
vt -715.892 580.576
vt -715.892 685.694
vt -772.979 685.694
v 19.1456 14.2122 0.0802891
vt -772.979 580.576
f 149/434/2 146/435/2 145/436/2 150/437/2 

vt -321.723 685.694
vt -321.723 580.576
v 17.6956 14.2122 3.08029
vt -203.613 580.576
vt -203.613 685.694
f 146/438/5 149/439/5 151/440/5 147/441/5 

vt -715.892 321.723
vt -772.979 321.723
v 19.1456 14.2122 3.08029
vt -772.979 203.613
vt -715.892 203.613
f 149/442/6 150/443/6 152/444/6 151/445/6 

vt 321.723 580.576
vt 321.723 685.694
vt 203.613 685.694
vt 203.613 580.576
f 150/446/3 145/447/3 148/448/3 152/449/3 

vt 715.892 685.694
vt 715.892 580.576
vt 772.979 580.576
vt 772.979 685.694
f 147/450/4 151/451/4 152/452/4 148/453/4 

g Mesh13 Component_3_1 Model

v 3.68512 6.88333 3.08029
vt 164.297 292.038
v 2.08512 6.88333 3.08029
vt 101.305 292.038
v 2.08512 1.97333 3.08029
vt 101.305 98.7311
v 3.68512 1.97333 3.08029
vt 164.297 98.7311
f 153/454/4 154/455/4 155/456/4 156/457/4 

v 3.68512 6.88333 0.0802891
vt 164.297 321.723
v 2.08512 6.88333 0.0802891
vt 101.305 321.723
vt 101.305 203.613
vt 164.297 203.613
f 157/458/1 158/459/1 154/460/1 153/461/1 

vt -101.305 292.038
vt -164.297 292.038
v 3.68512 1.97333 0.0802891
vt -164.297 98.7311
v 2.08512 1.97333 0.0802891
vt -101.305 98.7311
f 158/462/2 157/463/2 159/464/2 160/465/2 

vt 321.723 98.7311
vt 321.723 292.038
vt 203.613 292.038
vt 203.613 98.7311
f 159/466/3 157/467/3 153/468/3 156/469/3 

vt -101.305 321.723
vt -164.297 321.723
vt -164.297 203.613
vt -101.305 203.613
f 160/470/6 159/471/6 156/472/6 155/473/6 

vt -321.723 292.038
vt -321.723 98.7311
vt -203.613 98.7311
vt -203.613 292.038
f 158/474/5 160/475/5 155/476/5 154/477/5 

g Mesh14 Component_3_1 Model

v 5.92948 11.7407 3.08029
vt 252.658 483.274
v 5.92948 16.7307 3.08029
vt 252.658 679.73
v 2.60948 16.7307 3.08029
vt 121.949 679.73
v 2.60948 11.7407 3.08029
vt 121.949 483.274
f 161/478/4 162/479/4 163/480/4 164/481/4 

v 5.92948 11.7407 0.0802891
vt 321.723 483.274
v 5.92948 16.7307 0.0802891
vt 321.723 679.73
vt 203.613 679.73
vt 203.613 483.274
f 165/482/3 166/483/3 162/484/3 161/485/3 

vt -252.658 679.73
vt -252.658 483.274
v 2.60948 11.7407 0.0802891
vt -121.949 483.274
v 2.60948 16.7307 0.0802891
vt -121.949 679.73
f 166/486/2 165/487/2 167/488/2 168/489/2 

vt -121.949 321.723
vt -252.658 321.723
vt -252.658 203.613
vt -121.949 203.613
f 167/490/6 165/491/6 161/492/6 164/493/6 

vt -321.723 679.73
vt -321.723 483.274
vt -203.613 483.274
vt -203.613 679.73
f 168/494/5 167/495/5 164/496/5 163/497/5 

vt 252.658 321.723
vt 121.949 321.723
vt 121.949 203.613
vt 252.658 203.613
f 166/498/1 168/499/1 163/500/1 162/501/1 

