# Alias OBJ Model File
# Exported from SketchUp, (c) 2000-2012 Trimble Navigation Limited
# File units = meters

mtllib FIRMCP_Block_3.mtl

g Mesh1 Mesh2 iLQG_TRO_Task1_Pole1x1_obj Model

usemtl FrontColor
v -0.55 20.58 7.87919e-15
vt 3.10204e-13 810.236
vn -1 0 -0
v -0.55 -0.64 -2.45028e-16
vt -9.64677e-15 -25.1969
v -0.55 -0.64 2
vt 78.7402 -25.1969
v -0.55 20.58 2
vt 78.7402 810.236
f 1/1/1 2/2/1 3/3/1 4/4/1 

vt 21.6535 810.236
vn 1.24617e-20 3.82857e-16 -1
v 0 20 7.65714e-15
vt -3.75672e-33 787.402
vt 21.6535 -25.1969
f 1/5/2 5/6/2 2/7/2

vt 7.78174e-46 787.402
vn -2.58133e-33 3.82845e-16 -1
v 20.57 20.58 7.87919e-15
vt -809.843 810.236
f 5/8/3 1/5/3 6/9/3

vt 809.843 -3.10204e-13
vn 0 1 -0
vt -21.6535 -3.10204e-13
vt -21.6535 -78.7402
v 20.57 20.58 2
vt 809.843 -78.7402
f 6/10/4 1/11/4 4/12/4 7/13/4 

vt -21.6535 810.236
vn 0 0 1
v 0 20 2
vt 0 787.402
vt 809.843 810.236
f 4/14/5 8/15/5 7/16/5

v 0 -7.21911e-16 2
vt 0 -2.84217e-14
f 8/15/5 4/14/5 9/17/5

vt -21.6535 -25.1969
f 3/18/5 9/17/5 4/14/5

v 20.57 -0.64 2
vt 809.843 -25.1969
f 9/17/5 3/18/5 10/19/5

vt 21.6535 9.64677e-15
vn 0 -1 -0
v 20.57 -0.64 -2.45028e-16
vt -809.843 9.64677e-15
vt -809.843 -78.7402
vt 21.6535 -78.7402
f 2/20/6 11/21/6 10/22/6 3/23/6 

vn 2.82669e-33 3.82856e-16 -1
v 0 0 -0
vt 0 0
vt -809.843 -25.1969
f 2/7/7 12/24/7 11/25/7

vn -8.72727e-22 3.82857e-16 -1
vt 2.63094e-34 787.402
f 12/24/8 2/7/8 5/26/8

vn 1 0 -0
vt -3.01462e-13 787.402
vt -78.7402 787.402
vt -78.7402 -2.84217e-14
f 12/24/9 5/27/9 8/28/9 9/29/9 

vt 0 -3.01462e-13
v 20 20 7.65714e-15
vt -787.402 -3.01462e-13
v 20 20 2
vt -787.402 -78.7402
vt 0 -78.7402
f 5/30/6 13/31/6 14/32/6 8/33/6 

vn 0 3.82845e-16 -1
vt -787.402 787.402
f 5/15/10 6/9/10 13/34/10

vn -1.2386e-20 3.82857e-16 -1
v 20 0 -0
vt -787.402 3.7339e-33
f 13/34/11 6/9/11 15/35/11

vn 4.43144e-22 3.82857e-16 -1
vt -787.402 -1.33591e-34
f 11/25/12 15/36/12 6/9/12

vn 1.57607e-33 3.82856e-16 -1
vt -787.402 -4.75126e-46
f 11/25/13 12/24/13 15/37/13

vt 787.402 0
vn 0 1 3.60956e-16
v 20 -7.21911e-16 2
vt 787.402 -78.7402
f 15/38/14 12/24/14 9/33/14 16/39/14 

vt 787.402 -2.84217e-14
f 9/17/5 10/19/5 16/40/5

vt 787.402 787.402
f 16/40/5 10/19/5 14/41/5

f 7/16/5 14/41/5 10/19/5

f 7/16/5 8/15/5 14/41/5

vt 9.64677e-15 -25.1969
vt -3.10204e-13 810.236
vt -78.7402 810.236
vt -78.7402 -25.1969
f 11/42/9 6/43/9 7/44/9 10/45/9 

vt 3.01462e-13 787.402
vt 78.7402 -2.84217e-14
vt 78.7402 787.402
f 13/46/1 15/24/1 16/47/1 14/48/1 

g Mesh23 Group1 Model

v 0 3 -0
vt -59.0551 78.7402
v 1.5 3 -0
vt -118.11 78.7402
v 1.5 3 2
vt -118.11 0
v 0 3 2
vt -59.0551 0
f 17/49/6 18/50/6 19/51/6 20/52/6 

vn 2.82669e-33 0 -1
v 0 6 -0
vt -59.0551 118.11
v 1.5 6 -0
vt -118.11 118.11
f 18/51/15 17/52/15 21/53/15 22/54/15 

vt -78.7402 118.11
vn -1 0 -2.82669e-33
vt -78.7402 0
vt -1.66931e-31 0
v 0 6 2
vt -1.66931e-31 118.11
f 21/55/16 17/56/16 20/57/16 23/58/16 

vt 59.0551 0
vn -2.82669e-33 0 1
vt 118.11 0
v 1.5 6 2
vt 118.11 118.11
vt 59.0551 118.11
f 20/59/17 19/60/17 24/61/17 23/62/17 

vt 78.7402 0
vn 1 0 2.82669e-33
vt 78.7402 118.11
vt 3.33861e-31 118.11
vt 3.33861e-31 0
f 18/63/18 22/64/18 24/65/18 19/66/18 

vt 118.11 78.7402
vt 59.0551 78.7402
f 22/67/4 21/68/4 23/59/4 24/60/4 

g Mesh3 Group2 Model

v 2.5 3 -0
vt -2.22574e-31 78.7402
v 5.5 3 -0
v 5.5 3 2
v 2.5 3 2
f 25/69/6 26/50/6 27/51/6 28/24/6 

v 2.5 6 -0
vt 0 118.11
v 5.5 6 -0
f 26/51/15 25/24/15 29/70/15 30/54/15 

v 2.5 6 2
f 29/55/16 25/56/16 28/24/16 31/70/16 

v 5.5 6 2
f 28/24/17 27/60/17 32/61/17 31/70/17 

f 26/63/18 30/64/18 32/65/18 27/66/18 

vt 2.22574e-31 78.7402
f 30/67/4 29/71/4 31/24/4 32/60/4 

g Mesh4 Group3 Model

v 6.5 3 -0
v 9.5 3 -0
v 9.5 3 2
v 6.5 3 2
f 33/69/6 34/50/6 35/51/6 36/24/6 

v 6.5 6 -0
v 9.5 6 -0
f 34/51/15 33/24/15 37/70/15 38/54/15 

v 6.5 6 2
f 37/55/16 33/56/16 36/24/16 39/70/16 

v 9.5 6 2
f 36/24/17 35/60/17 40/61/17 39/70/17 

f 34/63/18 38/64/18 40/65/18 35/66/18 

f 38/67/4 37/71/4 39/24/4 40/60/4 

g Mesh5 Group4 Model

v 14.5 3 -0
v 17.5 3 -0
v 17.5 3 2
v 14.5 3 2
f 41/69/6 42/50/6 43/51/6 44/24/6 

v 14.5 6 -0
v 17.5 6 -0
f 42/51/15 41/24/15 45/70/15 46/54/15 

v 14.5 6 2
f 45/55/16 41/56/16 44/24/16 47/70/16 

v 17.5 6 2
f 44/24/17 43/60/17 48/61/17 47/70/17 

f 42/63/18 46/64/18 48/65/18 43/66/18 

f 46/67/4 45/71/4 47/24/4 48/60/4 

g Mesh6 Group5 Model

v 10.5 3 -0
v 13.5 3 -0
v 13.5 3 2
v 10.5 3 2
f 49/69/6 50/50/6 51/51/6 52/24/6 

v 10.5 6 -0
v 13.5 6 -0
f 50/51/15 49/24/15 53/70/15 54/54/15 

v 10.5 6 2
f 53/55/16 49/56/16 52/24/16 55/70/16 

v 13.5 6 2
f 52/24/17 51/60/17 56/61/17 55/70/17 

f 50/63/18 54/64/18 56/65/18 51/66/18 

f 54/67/4 53/71/4 55/24/4 56/60/4 

g Mesh7 Group6 Model

v 18.5 8.5 -0
v 20 8.5 -0
v 20 8.5 2
v 18.5 8.5 2
f 57/49/6 58/50/6 59/51/6 60/52/6 

v 18.5 11.5 -0
v 20 11.5 -0
f 58/51/15 57/52/15 61/53/15 62/54/15 

v 18.5 11.5 2
f 61/55/16 57/56/16 60/57/16 63/58/16 

v 20 11.5 2
f 60/59/17 59/60/17 64/61/17 63/62/17 

f 58/63/18 62/64/18 64/65/18 59/66/18 

f 62/67/4 61/68/4 63/59/4 64/60/4 

g Mesh8 Group7 Model

v 2.5 8.5 -0
v 5.5 8.5 -0
v 5.5 8.5 2
v 2.5 8.5 2
f 65/69/6 66/50/6 67/51/6 68/24/6 

v 2.5 11.5 -0
v 5.5 11.5 -0
f 66/51/15 65/24/15 69/70/15 70/54/15 

v 2.5 11.5 2
f 69/55/16 65/56/16 68/24/16 71/70/16 

v 5.5 11.5 2
f 68/24/17 67/60/17 72/61/17 71/70/17 

f 66/63/18 70/64/18 72/65/18 67/66/18 

f 70/67/4 69/71/4 71/24/4 72/60/4 

g Mesh9 Group8 Model

v 6.5 8.5 -0
v 9.5 8.5 -0
v 9.5 8.5 2
v 6.5 8.5 2
f 73/69/6 74/50/6 75/51/6 76/24/6 

v 6.5 11.5 -0
v 9.5 11.5 -0
f 74/51/15 73/24/15 77/70/15 78/54/15 

v 6.5 11.5 2
f 77/55/16 73/56/16 76/24/16 79/70/16 

v 9.5 11.5 2
f 76/24/17 75/60/17 80/61/17 79/70/17 

f 74/63/18 78/64/18 80/65/18 75/66/18 

f 78/67/4 77/71/4 79/24/4 80/60/4 

g Mesh10 Group9 Model

v 14.5 8.5 -0
v 17.5 8.5 -0
v 17.5 8.5 2
v 14.5 8.5 2
f 81/69/6 82/50/6 83/51/6 84/24/6 

v 14.5 11.5 -0
v 17.5 11.5 -0
f 82/51/15 81/24/15 85/70/15 86/54/15 

v 14.5 11.5 2
f 85/55/16 81/56/16 84/24/16 87/70/16 

v 17.5 11.5 2
f 84/24/17 83/60/17 88/61/17 87/70/17 

f 82/63/18 86/64/18 88/65/18 83/66/18 

f 86/67/4 85/71/4 87/24/4 88/60/4 

g Mesh11 Group10 Model

v 10.5 8.5 -0
v 13.5 8.5 -0
v 13.5 8.5 2
v 10.5 8.5 2
f 89/69/6 90/50/6 91/51/6 92/24/6 

v 10.5 11.5 -0
v 13.5 11.5 -0
f 90/51/15 89/24/15 93/70/15 94/54/15 

v 10.5 11.5 2
f 93/55/16 89/56/16 92/24/16 95/70/16 

v 13.5 11.5 2
f 92/24/17 91/60/17 96/61/17 95/70/17 

f 90/63/18 94/64/18 96/65/18 91/66/18 

f 94/67/4 93/71/4 95/24/4 96/60/4 

g Mesh12 Group11 Model

v 10.5 14 -0
v 13.5 14 -0
v 13.5 14 2
v 10.5 14 2
f 97/69/6 98/50/6 99/51/6 100/24/6 

v 10.5 17 -0
v 13.5 17 -0
f 98/51/15 97/24/15 101/70/15 102/54/15 

v 10.5 17 2
f 101/55/16 97/56/16 100/24/16 103/70/16 

v 13.5 17 2
f 100/24/17 99/60/17 104/61/17 103/70/17 

f 98/63/18 102/64/18 104/65/18 99/66/18 

f 102/67/4 101/71/4 103/24/4 104/60/4 

g Mesh13 Group12 Model

v 14.5 14 -0
v 17.5 14 -0
v 17.5 14 2
v 14.5 14 2
f 105/69/6 106/50/6 107/51/6 108/24/6 

v 14.5 17 -0
v 17.5 17 -0
f 106/51/15 105/24/15 109/70/15 110/54/15 

v 14.5 17 2
f 109/55/16 105/56/16 108/24/16 111/70/16 

v 17.5 17 2
f 108/24/17 107/60/17 112/61/17 111/70/17 

f 106/63/18 110/64/18 112/65/18 107/66/18 

f 110/67/4 109/71/4 111/24/4 112/60/4 

g Mesh14 Group13 Model

v 6.5 14 -0
v 9.5 14 -0
v 9.5 14 2
v 6.5 14 2
f 113/69/6 114/50/6 115/51/6 116/24/6 

v 6.5 17 -0
v 9.5 17 -0
f 114/51/15 113/24/15 117/70/15 118/54/15 

v 6.5 17 2
f 117/55/16 113/56/16 116/24/16 119/70/16 

v 9.5 17 2
f 116/24/17 115/60/17 120/61/17 119/70/17 

f 114/63/18 118/64/18 120/65/18 115/66/18 

f 118/67/4 117/71/4 119/24/4 120/60/4 

g Mesh15 Group14 Model

v 2.5 14 -0
v 5.5 14 -0
v 5.5 14 2
v 2.5 14 2
f 121/69/6 122/50/6 123/51/6 124/24/6 

v 2.5 17 -0
v 5.5 17 -0
f 122/51/15 121/24/15 125/70/15 126/54/15 

v 2.5 17 2
f 125/55/16 121/56/16 124/24/16 127/70/16 

v 5.5 17 2
f 124/24/17 123/60/17 128/61/17 127/70/17 

f 122/63/18 126/64/18 128/65/18 123/66/18 

f 126/67/4 125/71/4 127/24/4 128/60/4 

g Mesh16 Group15 Model

v 0 14 -0
v 1.5 14 -0
v 1.5 14 2
v 0 14 2
f 129/49/6 130/50/6 131/51/6 132/52/6 

v 0 17 -0
v 1.5 17 -0
f 130/51/15 129/52/15 133/53/15 134/54/15 

v 0 17 2
f 133/55/16 129/56/16 132/57/16 135/58/16 

v 1.5 17 2
f 132/59/17 131/60/17 136/61/17 135/62/17 

f 130/63/18 134/64/18 136/65/18 131/66/18 

f 134/67/4 133/68/4 135/59/4 136/60/4 

