# Alias OBJ Model File
# Exported from SketchUp, (c) 2000-2012 Trimble Navigation Limited
# File units = meters

mtllib ICRA_Exp2.mtl

g Mesh1 Env1 Model

usemtl FrontColor
v 12 15 3.00158
vt 531.496 649.606
vn 0 -3.82857e-16 1
v 10 22 3.00158
vt 452.756 925.197
v 10 15 3.00158
vt 452.756 649.606
f 1/1/1 2/2/1 3/3/1

v 12 22 3.00158
vt 531.496 925.197
f 4/4/1 2/2/1 1/1/1

v 23.5 23.5 3.00158
vt 984.252 984.252
f 5/5/1 2/2/1 4/4/1

v 0 22 3.00158
vt 59.0551 925.197
f 5/5/1 6/6/1 2/2/1

v -1.5 23.5 3.00158
vt 0 984.252
f 7/7/1 6/6/1 5/5/1

v -7.21911e-16 17 3.00158
vt 59.0551 728.346
f 6/6/1 7/7/1 8/8/1

v -7.21911e-16 16 3.00158
vt 59.0551 688.976
f 8/8/1 7/7/1 9/9/1

v -5.41434e-16 10.0161 3.00158
vt 59.0551 453.391
f 7/7/1 10/10/1 9/9/1

v 0 1.35171e-06 3.00158
vt 59.0551 59.0551
f 7/7/1 11/11/1 10/10/1

v -1.5 -1.5 3.00158
vt 0 0
f 12/12/1 11/11/1 7/7/1

v 23.5 -1.5 3.00158
vt 984.252 0
f 11/11/1 12/12/1 13/13/1

v -1.5 -1.5 0.00157916
vn 0 -1 -3.82857e-16
v 23.5 -1.5 0.00157916
vt 984.252 118.11
vt 0 118.11
f 14/12/2 15/13/2 13/14/2 12/15/2 

vn 0 3.82857e-16 -1
v 0 1.35171e-06 0.00157916
vt -59.0551 59.0551
vt -984.252 0
f 14/12/3 16/16/3 15/17/3

v -5.41434e-16 10.0161 0.00157916
vt -59.0551 453.391
f 16/16/3 14/12/3 17/18/3

v -7.21911e-16 16 0.00157916
vt -59.0551 688.976
f 17/18/3 14/12/3 18/19/3

v -7.21911e-16 17 0.00157916
vt -59.0551 728.346
f 18/19/3 14/12/3 19/20/3

v 0 22 0.00157916
vt -59.0551 925.197
f 14/12/3 20/21/3 19/20/3

v -1.5 23.5 0.00157916
f 21/7/3 20/21/3 14/12/3

v 23.5 23.5 0.00157916
vt -984.252 984.252
f 20/21/3 21/7/3 22/22/3

vn 0 1 3.82857e-16
vt -984.252 118.11
f 22/17/4 21/12/4 7/15/4 5/23/4 

vn -1 0 0
f 21/17/5 14/12/5 12/15/5 7/23/5 

vn 1 0 -0
f 15/12/6 22/13/6 5/14/6 13/15/6 

v 22 5 0.00157916
vt -925.197 255.906
f 15/17/3 23/24/3 22/22/3

v 22 1.35171e-06 0.00157916
vt -925.197 59.0551
f 15/17/3 24/25/3 23/24/3

v 12 1.35171e-06 0.00157916
vt -531.496 59.0551
f 15/17/3 25/26/3 24/25/3

v 10 1.35171e-06 0.00157916
vt -452.756 59.0551
f 15/17/3 26/27/3 25/26/3

v 6 1.35171e-06 0.00157916
vt -295.276 59.0551
f 15/17/3 27/28/3 26/27/3

v 5 1.35171e-06 0.00157916
vt -255.906 59.0551
f 15/17/3 28/29/3 27/28/3

f 15/17/3 16/16/3 28/29/3

vt -255.906 0
vt -59.0551 0
vt -59.0551 118.11
v 5 1.35171e-06 3.00158
vt -255.906 118.11
f 28/30/4 16/31/4 11/32/4 29/33/4 

vt 59.0551 0
vn 1 4.51195e-17 1.72743e-32
vt 453.391 -1.42109e-14
vt 453.391 118.11
vt 59.0551 118.11
f 16/34/7 17/35/7 10/36/7 11/37/7 

vt 59.0551 -1.42109e-14
v 7 10.0161 0.00157916
vt 334.646 -1.42109e-14
v 7 10.0161 3.00158
vt 334.646 118.11
f 17/38/2 30/39/2 31/40/2 10/37/2 

v 7 12.0161 0.00157916
vt -334.646 532.132
vt -334.646 453.391
f 17/18/3 32/41/3 30/42/3

v -5.41434e-16 12.0161 0.00157916
vt -59.0551 532.132
f 32/41/3 17/18/3 33/43/3

f 17/18/3 18/19/3 33/43/3

vt 532.132 -1.42109e-14
vt 688.976 0
vt 688.976 118.11
v -5.41434e-16 12.0161 3.00158
vt 532.132 118.11
f 33/44/7 18/45/7 9/46/7 34/47/7 

v 6 16 0.00157916
vt 295.276 0
v 6 16 3.00158
vt 295.276 118.11
f 18/34/2 35/48/2 36/49/2 9/37/2 

v 5 17 0.00157916
vt -255.906 728.346
vt -295.276 688.976
f 18/19/3 37/50/3 35/51/3

f 37/50/3 18/19/3 19/20/3

v 5 17 3.00158
f 37/30/4 19/31/4 8/32/4 38/33/4 

vt 728.346 0
vn 1 -1.44382e-16 -5.52777e-32
vt 925.197 0
vt 925.197 118.11
vt 728.346 118.11
f 19/52/8 20/53/8 6/54/8 8/55/8 

v 10 22 0.00157916
vt 452.756 0
vt 452.756 118.11
f 20/34/2 39/56/2 2/57/2 6/37/2 

vt -452.756 925.197
f 20/21/3 22/22/3 39/58/3

v 12 22 0.00157916
vt -531.496 925.197
f 39/58/3 22/22/3 40/59/3

v 16 22 0.00157916
vt -688.976 925.197
f 40/59/3 22/22/3 41/60/3

v 17 22 0.00157916
vt -728.346 925.197
f 41/60/3 22/22/3 42/61/3

v 22 22 0.00157916
vt -925.197 925.197
f 42/61/3 22/22/3 43/62/3

v 22 12 0.00157916
vt -925.197 531.496
f 43/62/3 22/22/3 44/63/3

v 22 10 0.00157916
vt -925.197 452.756
f 44/63/3 22/22/3 45/64/3

v 22 6 0.00157916
vt -925.197 295.276
f 45/64/3 22/22/3 46/65/3

f 46/65/3 22/22/3 23/24/3

v 17 5 0.00157916
vt -728.346 255.906
f 47/66/3 46/65/3 23/24/3

v 16 6 0.00157916
vt -688.976 295.276
f 47/66/3 48/67/3 46/65/3

v 16 1.5 0.00157916
vt -688.976 118.11
f 48/67/3 47/66/3 49/68/3

v 17 1.5 0.00157916
vt -728.346 118.11
f 50/69/3 49/68/3 47/66/3

vt 688.976 -1.42109e-14
vt 728.346 -1.42109e-14
v 17 1.5 3.00158
v 16 1.5 3.00158
f 49/70/2 50/71/2 51/55/2 52/46/2 

vt 118.11 -1.42109e-14
vt 255.906 0
v 17 5 3.00158
vt 255.906 118.11
vt 118.11 118.11
f 50/72/6 47/73/6 53/74/6 51/75/6 

v 22 5 3.00158
f 47/52/2 23/53/2 54/54/2 53/55/2 

vn -1 5.77529e-16 2.21111e-31
v 22 1.35171e-06 3.00158
f 23/30/9 24/31/9 55/32/9 54/33/9 

vt -925.197 0
vt -531.496 0
v 12 1.35171e-06 3.00158
vt -531.496 118.11
vt -925.197 118.11
f 24/76/4 25/77/4 56/78/4 55/79/4 

v 12 7 0.00157916
vt 334.646 0
v 12 7 3.00158
f 25/34/6 57/80/6 58/40/6 56/37/6 

vt -531.496 334.646
f 25/26/3 26/27/3 57/81/3

v 10 7 0.00157916
vt -452.756 334.646
f 57/81/3 26/27/3 59/82/3

vt -334.646 0
v 10 1.35171e-06 3.00158
v 10 7 3.00158
vt -334.646 118.11
f 59/83/5 26/31/5 60/32/5 61/84/5 

vt -452.756 0
vt -295.276 0
v 6 1.35171e-06 3.00158
vt -295.276 118.11
vt -452.756 118.11
f 26/85/4 27/86/4 62/87/4 60/88/4 

v 6 6 0.00157916
v 6 6 3.00158
f 27/34/6 63/48/6 64/49/6 62/37/6 

vt -295.276 295.276
f 27/28/3 28/29/3 63/89/3

v 5 5 0.00157916
vt -255.906 255.906
f 65/90/3 63/89/3 28/29/3

v 1.5 5 0.00157916
vt -118.11 255.906
f 66/91/3 63/89/3 65/90/3

v 1.5 6 0.00157916
vt -118.11 295.276
f 63/89/3 66/91/3 67/92/3

v 1.5 5 3.00158
v 1.5 6 3.00158
f 67/86/5 66/30/5 68/33/5 69/87/5 

vt 118.11 0
v 5 5 3.00158
f 66/93/2 65/73/2 70/74/2 68/75/2 

f 65/30/5 28/31/5 29/32/5 70/33/5 

vt 255.906 59.0551
vt 295.276 59.0551
vt 255.906 255.906
f 29/94/1 62/95/1 70/96/1

f 29/94/1 13/13/1 62/95/1

f 11/11/1 13/13/1 29/94/1

vt 452.756 59.0551
f 62/95/1 13/13/1 60/97/1

vt 531.496 59.0551
f 60/97/1 13/13/1 56/98/1

vt 925.197 59.0551
f 56/98/1 13/13/1 55/99/1

vt 925.197 255.906
f 55/99/1 13/13/1 54/100/1

v 22 6 3.00158
vt 925.197 295.276
f 54/100/1 13/13/1 71/101/1

f 5/5/1 71/101/1 13/13/1

v 22 22 3.00158
vt 925.197 925.197
f 5/5/1 72/102/1 71/101/1

v 17 22 3.00158
vt 728.346 925.197
f 5/5/1 73/103/1 72/102/1

v 16 22 3.00158
vt 688.976 925.197
f 5/5/1 74/104/1 73/103/1

f 5/5/1 4/4/1 74/104/1

vt 531.496 0
vn -7.21911e-16 -1 -3.82857e-16
vt 531.496 118.11
f 40/105/10 41/45/10 74/46/10 4/106/10 

v 16 16 0.00157916
vt -688.976 0
v 16 16 3.00158
f 41/76/5 75/107/5 76/68/5 74/79/5 

vt -688.976 688.976
f 41/60/3 42/61/3 75/108/3

v 17 17 0.00157916
vt -728.346 728.346
f 77/109/3 75/108/3 42/61/3

v 20.5 16 0.00157916
vt -866.142 688.976
f 75/108/3 77/109/3 78/110/3

v 20.5 17 0.00157916
vt -866.142 728.346
f 78/110/3 77/109/3 79/111/3

vt -866.142 0
vt -728.346 0
v 17 17 3.00158
v 20.5 17 3.00158
vt -866.142 118.11
f 79/112/4 77/113/4 80/69/4 81/114/4 

f 77/52/6 42/53/6 73/54/6 80/55/6 

vn 5.77529e-16 -1 -3.82857e-16
f 42/52/11 43/53/11 72/54/11 73/55/11 

vt -531.496 -1.42109e-14
v 22 12 3.00158
f 43/76/5 44/115/5 82/78/5 72/79/5 

vt -925.197 -1.42109e-14
v 15 12 0.00157916
vt -649.606 -1.42109e-14
v 15 12 3.00158
vt -649.606 118.11
f 44/116/4 83/117/4 84/118/4 82/79/4 

v 15 10 0.00157916
vt -649.606 452.756
vt -649.606 531.496
f 44/63/3 85/119/3 83/120/3

f 85/119/3 44/63/3 45/64/3

vt 649.606 -1.42109e-14
vt 925.197 -1.42109e-14
v 22 10 3.00158
v 15 10 3.00158
vt 649.606 118.11
f 85/121/2 45/122/2 86/54/2 87/123/2 

vt -452.756 -1.42109e-14
vn -1 -7.21911e-16 -2.76389e-31
f 45/124/12 46/86/12 71/87/12 86/88/12 

v 16 6 3.00158
f 46/76/4 48/107/4 88/68/4 71/79/4 

vt -118.11 -1.42109e-14
vt -118.11 118.11
f 48/86/5 49/125/5 52/126/5 88/87/5 

vt 688.976 295.276
f 51/55/1 88/127/1 52/46/1

vt 728.346 255.906
f 88/127/1 51/55/1 53/128/1

f 88/127/1 53/128/1 71/101/1

f 71/101/1 53/128/1 54/100/1

vt 925.197 531.496
vt 925.197 452.756
f 82/129/1 86/130/1 71/101/1

vt 649.606 531.496
f 84/131/1 86/130/1 82/129/1

vt 649.606 452.756
f 86/130/1 84/131/1 87/132/1

f 83/115/5 85/124/5 87/88/5 84/78/5 

f 82/129/1 71/101/1 72/102/1

vt 728.346 728.346
f 73/103/1 74/104/1 80/133/1

vt 688.976 688.976
f 76/134/1 80/133/1 74/104/1

v 20.5 16 3.00158
vt 866.142 688.976
f 80/133/1 76/134/1 89/135/1

vt 866.142 0
vt 866.142 118.11
f 75/45/2 78/136/2 89/137/2 76/46/2 

f 78/45/6 79/52/6 81/55/6 89/46/6 

vt 866.142 728.346
f 80/133/1 89/135/1 81/138/1

v 12 15 0.00157916
vt 649.606 0
f 90/139/6 40/53/6 4/54/6 1/123/6 

vt -531.496 649.606
v 10 15 0.00157916
vt -452.756 649.606
f 90/140/3 91/141/3 40/59/3

f 91/56/2 90/105/2 1/106/2 3/57/2 

vt -649.606 0
f 39/76/5 91/142/5 3/118/5 2/79/5 

f 39/58/3 40/59/3 91/141/3

vt 452.756 334.646
f 60/97/1 56/98/1 61/143/1

vt 531.496 334.646
f 58/144/1 61/143/1 56/98/1

f 57/77/4 59/85/4 61/88/4 58/78/4 

vt 295.276 295.276
f 64/145/1 70/96/1 62/95/1

vt 118.11 295.276
f 69/146/1 70/96/1 64/145/1

vt 118.11 255.906
f 70/96/1 69/146/1 68/147/1

vt -118.11 0
f 63/86/4 67/148/4 69/126/4 64/87/4 

vt 295.276 688.976
vt 255.906 728.346
f 8/8/1 36/149/1 38/150/1

f 36/149/1 8/8/1 9/9/1

v 5 20.5 3.00158
vt 255.906 866.142
f 38/150/1 36/149/1 92/151/1

v 6 20.5 3.00158
vt 295.276 866.142
f 92/151/1 36/149/1 93/152/1

v 6 20.5 0.00157916
vt 866.142 -1.42109e-14
f 35/45/6 94/153/6 93/137/6 36/46/6 

vt -295.276 866.142
f 35/51/3 37/50/3 94/154/3

v 5 20.5 0.00157916
vt -255.906 866.142
f 94/154/3 37/50/3 95/155/3

vt -866.142 -1.42109e-14
f 95/156/5 37/113/5 38/69/5 92/114/5 

vt -295.276 -1.42109e-14
vt -255.906 -1.42109e-14
f 94/157/4 95/158/4 92/33/4 93/87/4 

vt 59.0551 532.132
f 10/10/1 34/159/1 9/9/1

vt 334.646 453.391
f 34/159/1 10/10/1 31/160/1

v 7 12.0161 3.00158
vt 334.646 532.132
f 34/159/1 31/160/1 96/161/1

f 30/35/6 32/44/6 96/47/6 31/36/6 

vt -334.646 -1.42109e-14
vt -59.0551 -1.42109e-14
f 32/162/4 33/163/4 34/32/4 96/84/4 

g Mesh2 Env1 Model

v 10.2336 11.6424 0.00157916
vt -684.533 0
vn -0.766385 0.642382 2.4594e-16
v 10.0935 11.4221 0.00157916
vt -674.255 0
vn -0.906532 0.422138 1.61618e-16
v 10.0935 11.4221 3.00158
vt -674.255 118.11
v 10.2336 11.6424 3.00158
vt -684.533 118.11
f 97/164/13 98/165/14 99/166/14 100/167/13 

v 11.9961 11.0877 0.00157916
vt -531.344 495.578
v 11.9849 10.8269 0.00157916
vt -530.902 485.31
v 11.9065 10.5779 0.00157916
vt -527.816 475.506
v 11.7664 10.3576 0.00157916
vt -522.299 466.835
v 11.574 10.1812 0.00157916
vt -514.725 459.888
v 11.3425 10.0605 0.00157916
vt -505.611 455.137
v 11.0877 10.0039 0.00157916
vt -495.578 452.908
v 10.8269 10.0151 0.00157916
vt -485.31 453.35
v 10.5779 10.0935 0.00157916
vt -475.506 456.436
v 10.3576 10.2336 0.00157916
vt -466.835 461.953
v 10.1812 10.426 0.00157916
vt -459.888 469.527
v 10.0605 10.6575 0.00157916
vt -455.137 478.641
v 10.0039 10.9123 0.00157916
vt -452.908 488.674
v 10.0151 11.1731 0.00157916
vt -453.35 498.942
vt -456.436 508.746
vt -461.953 517.417
v 10.426 11.8188 0.00157916
vt -469.527 524.364
v 10.6575 11.9395 0.00157916
vt -478.641 529.115
v 10.9123 11.9961 0.00157916
vt -488.674 531.344
v 11.1731 11.9849 0.00157916
vt -498.942 530.902
v 11.4221 11.9065 0.00157916
vt -508.746 527.816
v 11.6424 11.7664 0.00157916
vt -517.417 522.299
v 11.8188 11.574 0.00157916
vt -524.364 514.725
v 11.9395 11.3425 0.00157916
vt -529.115 505.611
f 101/168/3 102/169/3 103/170/3 104/171/3 105/172/3 106/173/3 107/174/3 108/175/3 109/176/3 110/177/3 111/178/3 112/179/3 113/180/3 114/181/3 98/182/3 97/183/3 115/184/3 116/185/3 117/186/3 118/187/3 119/188/3 120/189/3 121/190/3 122/191/3 

vt 507.736 0
vn 0.9849 -0.173126 -6.62826e-17
vt 518.013 -1.42109e-14
vn 0.996148 0.0876835 3.35702e-17
v 11.9961 11.0877 3.00158
vt 518.013 118.11
v 11.9849 10.8269 3.00158
vt 507.736 118.11
f 102/192/15 101/193/16 123/194/16 124/195/15 

vt 368.495 -1.42109e-14
vt 378.773 0
vn 0.939511 0.342518 1.31135e-16
v 11.9395 11.3425 3.00158
vt 378.773 118.11
vt 368.495 118.11
f 101/196/16 122/197/17 125/198/17 123/199/16 

vt 203.792 0
vt 214.07 0
vn 0.818848 0.57401 2.19764e-16
v 11.8188 11.574 3.00158
vt 214.07 118.11
vt 203.792 118.11
f 122/200/17 121/201/18 126/202/18 125/203/17 

vt 24.8507 0
vt 35.1283 0
vn 0.642382 0.766385 2.93416e-16
v 11.6424 11.7664 3.00158
vt 35.1283 118.11
vt 24.8507 118.11
f 121/204/18 120/205/19 127/206/19 126/207/18 

vt -156.135 0
vt -145.857 -1.42109e-14
vn 0.422138 0.906532 3.47072e-16
v 11.4221 11.9065 3.00158
vt -145.857 118.11
vt -156.135 118.11
f 120/208/19 119/209/20 128/210/20 127/211/19 

vt -326.83 -1.42109e-14
vt -316.552 -1.42109e-14
vn 0.173126 0.9849 3.77076e-16
v 11.1731 11.9849 3.00158
vt -316.552 118.11
vt -326.83 118.11
f 119/212/20 118/213/21 129/214/21 128/215/20 

vt -475.602 -1.42109e-14
vt -465.324 -1.42109e-14
vn -0.0876835 0.996148 3.81382e-16
v 10.9123 11.9961 3.00158
vt -465.324 118.11
vt -475.602 118.11
f 118/216/21 117/217/22 130/218/22 129/219/21 

vt -592.313 -1.42109e-14
vt -582.035 -1.42109e-14
vn -0.342518 0.939511 3.59698e-16
v 10.6575 11.9395 3.00158
vt -582.035 118.11
vt -592.313 118.11
f 117/220/22 116/221/23 131/222/23 130/223/22 

vt -669.009 -1.42109e-14
vt -658.732 -1.42109e-14
vn -0.57401 0.818848 3.13502e-16
v 10.426 11.8188 3.00158
vt -658.732 118.11
vt -669.009 118.11
f 116/224/23 115/225/24 132/226/24 131/227/23 

vt -700.464 -1.42109e-14
vt -690.186 0
vt -690.186 118.11
vt -700.464 118.11
f 115/228/24 97/229/13 100/230/13 132/231/24 

vt 530.902 485.31
vt 531.344 495.578
vt 529.115 505.611
vt 524.364 514.725
vt 517.417 522.299
vt 508.746 527.816
vt 498.942 530.902
vt 488.674 531.344
vt 478.641 529.115
vt 469.527 524.364
vt 461.953 517.417
vt 456.436 508.746
v 10.0151 11.1731 3.00158
vt 453.35 498.942
v 10.0039 10.9123 3.00158
vt 452.908 488.674
v 10.0605 10.6575 3.00158
vt 455.137 478.641
v 10.1812 10.426 3.00158
vt 459.888 469.527
v 10.3576 10.2336 3.00158
vt 466.835 461.953
v 10.5779 10.0935 3.00158
vt 475.506 456.436
v 10.8269 10.0151 3.00158
vt 485.31 453.35
v 11.0877 10.0039 3.00158
vt 495.578 452.908
v 11.3425 10.0605 3.00158
vt 505.611 455.137
v 11.574 10.1812 3.00158
vt 514.725 459.888
v 11.7664 10.3576 3.00158
vt 522.299 466.835
v 11.9065 10.5779 3.00158
vt 527.816 475.506
f 124/232/1 123/233/1 125/234/1 126/235/1 127/236/1 128/237/1 129/238/1 130/239/1 131/240/1 132/241/1 100/242/1 99/243/1 133/244/1 134/245/1 135/246/1 136/247/1 137/248/1 138/249/1 139/250/1 140/251/1 141/252/1 142/253/1 143/254/1 144/255/1 

vt -622.303 0
vt -612.025 -1.42109e-14
vn -0.9849 0.173126 6.62826e-17
vt -612.025 118.11
vt -622.303 118.11
f 98/256/14 114/257/25 133/258/25 99/259/14 

vt -518.013 -1.42109e-14
vt -507.736 -1.42109e-14
vn -0.996148 -0.0876835 -3.35702e-17
vt -507.736 118.11
vt -518.013 118.11
f 114/260/25 113/261/26 134/262/26 133/263/25 

vt -378.773 -1.42109e-14
vt -368.495 0
vn -0.939511 -0.342518 -1.31135e-16
vt -368.495 118.11
vt -378.773 118.11
f 113/264/26 112/265/27 135/266/27 134/267/26 

vt -214.07 0
vt -203.792 0
vn -0.818848 -0.57401 -2.19764e-16
vt -203.792 118.11
vt -214.07 118.11
f 112/268/27 111/269/28 136/270/28 135/271/27 

vt -35.1283 0
vt -24.8507 -1.42109e-14
vn -0.642382 -0.766385 -2.93416e-16
vt -24.8507 118.11
vt -35.1283 118.11
f 111/272/28 110/273/29 137/274/29 136/275/28 

vt 145.857 -1.42109e-14
vt 156.135 -1.42109e-14
vn -0.422138 -0.906532 -3.47072e-16
vt 156.135 118.11
vt 145.857 118.11
f 110/276/29 109/277/30 138/278/30 137/279/29 

vt 316.552 -1.42109e-14
vt 326.83 -1.42109e-14
vn -0.173126 -0.9849 -3.77076e-16
vt 326.83 118.11
vt 316.552 118.11
f 109/280/30 108/281/31 139/282/31 138/283/30 

vt 465.324 -1.42109e-14
vt 475.602 -1.42109e-14
vn 0.0876835 -0.996148 -3.81382e-16
vt 475.602 118.11
vt 465.324 118.11
f 108/284/31 107/285/32 140/286/32 139/287/31 

vt 582.035 -1.42109e-14
vt 592.313 -1.42109e-14
vn 0.342518 -0.939511 -3.59698e-16
vt 592.313 118.11
vt 582.035 118.11
f 107/288/32 106/289/33 141/290/33 140/291/32 

vt 658.732 -1.42109e-14
vt 669.009 -1.42109e-14
vn 0.57401 -0.818848 -3.13502e-16
vt 669.009 118.11
vt 658.732 118.11
f 106/292/33 105/293/34 142/294/34 141/295/33 

vt 690.186 -1.42109e-14
vt 700.464 0
vn 0.766385 -0.642382 -2.4594e-16
vt 700.464 118.11
vt 690.186 118.11
f 105/296/34 104/297/35 143/298/35 142/299/34 

vt 674.255 0
vt 684.533 0
vn 0.906532 -0.422138 -1.61618e-16
vt 684.533 118.11
vt 674.255 118.11
f 104/300/35 103/301/36 144/302/36 143/303/35 

vt 612.025 0
vt 622.303 0
vt 622.303 118.11
vt 612.025 118.11
f 103/304/36 102/305/15 124/306/15 144/307/36 

