# Alias OBJ Model File
# Exported from SketchUp, (c) 2000-2012 Trimble Navigation Limited
# File units = meters

mtllib icra_exp_1.mtl

g Mesh1 Group1 Model

usemtl FrontColor
v 10.0341 11.2588 0
vt -434.412 482.631
vn 0 0 -1
v 10.0341 10.7412 0
vt -434.412 462.251
v 10 11 0
vt -433.071 472.441
f 1/1/1 2/2/1 3/3/1

v 10.134 11.5 0
vt -438.345 492.126
f 2/2/1 1/1/1 4/4/1

vt -612.135 0
vn -0.965926 0.258819 0
v 10.134 11.5 3
vt -622.413 118.11
vn -0.866025 0.5 0
vt -622.413 0
f 1/5/2 5/6/3 4/7/3

v 10.0341 11.2588 3
vt -612.135 118.11
f 5/6/3 1/5/2 6/8/2

vt -524.926 0
vn -1 0 0
vt -535.204 118.11
vt -535.204 0
f 3/9/4 6/10/2 1/11/2

v 10 11 3
vt -524.926 118.11
f 6/10/2 3/9/4 7/12/4

vt -401.594 0
vn -0.965926 -0.258819 0
vt -411.872 118.11
vt -411.872 0
f 2/13/5 7/14/4 3/15/4

v 10.0341 10.7412 3
vt -401.594 118.11
f 7/14/4 2/13/5 8/16/5

v 10.134 10.5 0
vt -250.544 0
vn -0.866025 -0.5 0
vt -260.822 118.11
vt -260.822 0
f 9/17/6 8/18/5 2/19/5

v 10.134 10.5 3
vt -250.544 118.11
f 8/18/5 9/17/6 10/20/6

v 10.2929 10.2929 0
vt -82.07 0
vn -0.707107 -0.707107 0
vt -92.3476 118.11
vt -92.3476 0
f 11/21/7 10/22/6 9/23/6

v 10.2929 10.2929 3
vt -82.07 118.11
f 10/22/6 11/21/7 12/24/7

vt 82.07 0
v 10.5 10.134 3
vt 92.3476 118.11
vn -0.5 -0.866025 0
vt 82.07 118.11
f 11/25/7 13/26/8 12/27/7

v 10.5 10.134 0
vt 92.3476 0
f 13/26/8 11/25/7 14/28/8

vt -444.602 444.602
v 10.2929 11.7071 0
vt -444.602 500.28
vt -452.756 438.345
f 11/29/1 15/30/1 14/31/1

vt -438.345 452.756
f 9/32/1 15/30/1 11/29/1

f 9/32/1 4/4/1 15/30/1

f 2/2/1 4/4/1 9/32/1

vt -657.278 0
v 10.2929 11.7071 3
vt -667.555 118.11
vn -0.707107 0.707107 0
vt -667.555 0
f 4/33/3 16/34/9 15/35/9

vt -657.278 118.11
f 16/34/9 4/33/3 5/36/3

vt 438.345 492.126
vn 0 0 1
vt 444.602 444.602
vt 444.602 500.28
f 5/37/10 12/38/10 16/39/10

vt 438.345 452.756
f 5/37/10 10/40/10 12/38/10

vt 434.412 482.631
f 6/41/10 10/40/10 5/37/10

vt 434.412 462.251
f 6/41/10 8/42/10 10/40/10

vt 433.071 472.441
f 8/42/10 6/41/10 7/43/10

vt 452.756 438.345
f 16/39/10 12/38/10 13/44/10

v 10.5 11.866 3
vt 452.756 506.536
f 16/39/10 13/44/10 17/45/10

v 10.7412 10.0341 3
vt 462.251 434.412
f 17/45/10 13/44/10 18/46/10

vt 250.544 0
vt 260.822 118.11
vn -0.258819 -0.965926 0
vt 250.544 118.11
f 14/47/8 18/48/11 13/49/8

v 10.7412 10.0341 0
vt 260.822 0
f 18/48/11 14/47/8 19/50/11

v 10.7412 11.9659 0
vt -462.251 510.47
vt -462.251 434.412
f 14/31/1 20/51/1 19/52/1

v 10.5 11.866 0
vt -452.756 506.536
f 14/31/1 21/53/1 20/51/1

f 14/31/1 15/30/1 21/53/1

vn -0.5 0.866025 0
f 16/36/9 21/35/12 15/33/9

f 21/35/12 16/36/9 17/34/12

vn -0.258819 0.965926 0
f 17/8/12 20/7/13 21/5/12

v 10.7412 11.9659 3
f 20/7/13 17/8/12 22/6/13

vt 462.251 510.47
f 17/45/10 18/46/10 22/54/10

v 11 10 3
vt 472.441 433.071
f 22/54/10 18/46/10 23/55/10

vt 401.594 0
vt 411.872 118.11
vn 0 -1 0
vt 401.594 118.11
f 19/56/11 23/57/14 18/58/11

v 11 10 0
vt 411.872 0
f 23/57/14 19/56/11 24/59/14

v 11 12 0
vt -472.441 511.811
vt -472.441 433.071
f 19/52/1 25/60/1 24/61/1

f 19/52/1 20/51/1 25/60/1

vn 0 1 0
f 22/12/13 25/11/15 20/9/13

v 11 12 3
f 25/11/15 22/12/13 26/10/15

vt 472.441 511.811
f 22/54/10 23/55/10 26/62/10

v 11.2588 10.0341 3
vt 482.631 434.412
f 26/62/10 23/55/10 27/63/10

vt 524.926 0
vt 535.204 118.11
vn 0.258819 -0.965926 0
vt 524.926 118.11
f 24/64/14 27/65/16 23/66/14

v 11.2588 10.0341 0
vt 535.204 0
f 27/65/16 24/64/14 28/67/16

v 11.2588 11.9659 0
vt -482.631 510.47
vt -482.631 434.412
f 24/61/1 29/68/1 28/69/1

f 24/61/1 25/60/1 29/68/1

vn 0.258819 0.965926 0
f 26/16/15 29/15/17 25/13/15

v 11.2588 11.9659 3
f 29/15/17 26/16/15 30/14/17

vt 482.631 510.47
f 26/62/10 27/63/10 30/70/10

v 11.5 10.134 3
vt 492.126 438.345
f 30/70/10 27/63/10 31/71/10

vt 612.135 0
vt 622.413 118.11
vn 0.5 -0.866025 0
vt 612.135 118.11
f 28/72/16 31/73/18 27/74/16

v 11.5 10.134 0
vt 622.413 0
f 31/73/18 28/72/16 32/75/18

v 11.5 11.866 0
vt -492.126 506.536
vt -492.126 438.345
f 28/69/1 33/76/1 32/77/1

f 28/69/1 29/68/1 33/76/1

vn 0.5 0.866025 0
f 30/20/17 33/19/19 29/17/17

v 11.5 11.866 3
f 33/19/19 30/20/17 34/18/19

vt 492.126 506.536
f 30/70/10 31/71/10 34/78/10

v 11.7071 10.2929 3
vt 500.28 444.602
f 34/78/10 31/71/10 35/79/10

vt 657.278 0
vt 667.555 118.11
vn 0.707107 -0.707107 0
vt 657.278 118.11
f 32/80/18 35/81/20 31/82/18

v 11.7071 10.2929 0
vt 667.555 0
f 35/81/20 32/80/18 36/83/20

v 11.7071 11.7071 0
vt -500.28 500.28
vt -500.28 444.602
f 32/77/1 37/84/1 36/85/1

f 32/77/1 33/76/1 37/84/1

vn 0.707107 0.707107 0
f 34/24/19 37/23/21 33/21/19

v 11.7071 11.7071 3
f 37/23/21 34/24/19 38/22/21

vt 500.28 500.28
f 34/78/10 35/79/10 38/86/10

v 11.866 10.5 3
vt 506.536 452.756
f 38/86/10 35/79/10 39/87/10

v 11.866 10.5 0
vn 0.866025 -0.5 0
f 35/82/20 40/83/22 39/81/22

f 40/83/22 35/82/20 36/80/20

v 11.866 11.5 0
vt -506.536 492.126
vt -506.536 452.756
f 36/85/1 41/88/1 40/89/1

f 36/85/1 37/84/1 41/88/1

v 11.866 11.5 3
vn 0.866025 0.5 0
f 37/28/21 42/27/23 41/25/23

f 42/27/23 37/28/21 38/26/21

vt 506.536 492.126
f 38/86/10 39/87/10 42/90/10

v 11.9659 10.7412 3
vt 510.47 462.251
f 42/90/10 39/87/10 43/91/10

v 11.9659 10.7412 0
vn 0.965926 -0.258819 0
f 39/74/22 44/75/24 43/73/24

f 44/75/24 39/74/22 40/72/22

v 11.9659 11.2588 0
vt -510.47 482.631
vt -510.47 462.251
f 40/89/1 45/92/1 44/93/1

f 40/89/1 41/88/1 45/92/1

v 11.9659 11.2588 3
vn 0.965926 0.258819 0
f 41/50/23 46/49/25 45/47/25

f 46/49/25 41/50/23 42/48/23

vt 510.47 482.631
f 42/90/10 43/91/10 46/94/10

v 12 11 3
vt 511.811 472.441
f 46/94/10 43/91/10 47/95/10

v 12 11 0
vn 1 3.63936e-016 0
f 43/66/24 48/67/26 47/65/26

f 48/67/26 43/66/24 44/64/24

vt -511.811 472.441
f 44/93/1 45/92/1 48/96/1

f 45/59/25 47/58/26 48/56/26

f 47/58/26 45/59/25 46/57/25

g Mesh2 Group1 Model

v 6 6 0
vt 275.591 0
vn 1 0 0
v 6 0 3
vt 39.3701 118.11
v 6 0 0
vt 39.3701 0
f 49/97/27 50/98/27 51/99/27

v 6 6 3
vt 275.591 118.11
f 50/98/27 49/97/27 52/100/27

vt -275.591 0
v 5 6 3
vt -236.22 118.11
vt -275.591 118.11
f 49/101/15 53/102/15 52/103/15

v 5 6 0
vt -236.22 0
f 53/102/15 49/101/15 54/104/15

vt -275.591 275.591
v 5 0 0
vt -236.22 39.3701
vt -236.22 275.591
f 49/105/1 55/106/1 54/107/1

vt -275.591 39.3701
f 51/108/1 55/106/1 49/105/1

v 23 -1 0
vt -944.882 0
f 56/109/1 55/106/1 51/108/1

v 0 0 0
vt -39.3701 39.3701
f 56/109/1 57/110/1 55/106/1

v -1 -1 0
vt 0 0
f 58/111/1 57/110/1 56/109/1

v 0 22 0
vt -39.3701 905.512
f 57/110/1 58/111/1 59/112/1

v -1 23 0
vt 0 944.882
f 60/113/1 59/112/1 58/111/1

v 23 23 0
vt -944.882 944.882
f 59/112/1 60/113/1 61/114/1

v -1 23 3
vt 0 118.11
f 62/115/15 61/109/15 60/111/15

v 23 23 3
vt -944.882 118.11
f 61/109/15 62/115/15 63/116/15

v 0 22 3
vt 39.3701 905.512
vt 944.882 944.882
f 62/113/10 64/117/10 63/118/10

v 0 0 3
vt 39.3701 39.3701
f 64/117/10 62/113/10 65/119/10

v -1 -1 3
f 66/111/10 65/119/10 62/113/10

v 23 -1 3
vt 944.882 0
f 65/119/10 66/111/10 67/120/10

vt 944.882 118.11
f 58/111/14 67/121/14 66/115/14

f 67/121/14 58/111/14 56/120/14

f 61/120/27 67/115/27 56/111/27

f 67/115/27 61/120/27 63/121/27

v 22 22 3
vt 905.512 905.512
f 63/118/10 68/122/10 67/120/10

v 17 22 3
vt 708.661 905.512
f 63/118/10 69/123/10 68/122/10

v 16 22 3
vt 669.291 905.512
f 63/118/10 70/124/10 69/123/10

v 12 22 3
vt 511.811 905.512
f 63/118/10 71/125/10 70/124/10

v 10 22 3
vt 433.071 905.512
f 63/118/10 72/126/10 71/125/10

v 6 22 3
vt 275.591 905.512
f 63/118/10 73/127/10 72/126/10

v 5 22 3
vt 236.22 905.512
f 63/118/10 74/128/10 73/127/10

f 63/118/10 64/117/10 74/128/10

vt 236.22 118.11
f 59/99/14 74/129/14 64/98/14

v 5 22 0
vt 236.22 0
f 74/129/14 59/99/14 75/130/14

vt -236.22 905.512
f 59/112/1 61/114/1 75/131/1

v 6 22 0
vt -275.591 905.512
f 75/131/1 61/114/1 76/132/1

v 10 22 0
vt -433.071 905.512
f 76/132/1 61/114/1 77/133/1

v 12 22 0
vt -511.811 905.512
f 77/133/1 61/114/1 78/134/1

v 16 22 0
vt -669.291 905.512
f 78/134/1 61/114/1 79/135/1

v 17 22 0
vt -708.661 905.512
f 79/135/1 61/114/1 80/136/1

v 22 22 0
vt -905.512 905.512
f 80/136/1 61/114/1 81/137/1

v 22 17 0
vt -905.512 708.661
f 81/137/1 61/114/1 82/138/1

v 22 16 0
vt -905.512 669.291
f 82/138/1 61/114/1 83/139/1

v 22 12 0
vt -905.512 511.811
f 83/139/1 61/114/1 84/140/1

v 22 10 0
vt -905.512 433.071
f 84/140/1 61/114/1 85/141/1

v 22 6 0
vt -905.512 275.591
f 85/141/1 61/114/1 86/142/1

v 22 5 0
vt -905.512 236.22
f 86/142/1 61/114/1 87/143/1

v 22 0 0
vt -905.512 39.3701
f 87/143/1 61/114/1 88/144/1

f 56/109/1 88/144/1 61/114/1

v 17 0 0
vt -708.661 39.3701
f 56/109/1 89/145/1 88/144/1

v 16 0 0
vt -669.291 39.3701
f 56/109/1 90/146/1 89/145/1

v 12 0 0
vt -511.811 39.3701
f 56/109/1 91/147/1 90/146/1

v 10 0 0
vt -433.071 39.3701
f 56/109/1 92/148/1 91/147/1

f 56/109/1 51/108/1 92/148/1

vt -433.071 0
f 50/103/15 92/149/15 51/101/15

v 10 0 3
vt -433.071 118.11
f 92/149/15 50/103/15 93/150/15

vt 275.591 39.3701
vt 433.071 39.3701
f 50/151/10 67/120/10 93/152/10

v 5 0 3
vt 236.22 39.3701
f 94/153/10 67/120/10 50/151/10

f 65/119/10 67/120/10 94/153/10

vt -39.3701 118.11
f 55/104/15 65/154/15 94/102/15

vt -39.3701 0
f 65/154/15 55/104/15 57/155/15

v 0 5 0
f 95/130/27 65/98/27 57/99/27

v 0 5 3
f 65/98/27 95/130/27 96/129/27

v 3.5 5 3
vt 177.165 118.11
f 95/99/14 97/156/14 96/98/14

v 3.5 5 0
vt 177.165 0
f 97/156/14 95/99/14 98/157/14

vt -39.3701 236.22
v 3.5 6 0
vt -177.165 275.591
vt -177.165 236.22
f 95/158/1 99/159/1 98/160/1

v 0 6 0
vt -39.3701 275.591
f 99/159/1 95/158/1 100/161/1

f 57/110/1 100/161/1 95/158/1

v 0 9.91524 0
vt -39.3701 429.734
f 57/110/1 101/162/1 100/161/1

v 0 11.9152 0
vt -39.3701 508.474
f 57/110/1 102/163/1 101/162/1

v 0 16 0
vt -39.3701 669.291
f 57/110/1 103/164/1 102/163/1

v 0 17 0
vt -39.3701 708.661
f 57/110/1 104/165/1 103/164/1

f 57/110/1 59/112/1 104/165/1

vt 905.512 0
v 0 17 3
vt 708.661 118.11
vt 708.661 0
f 59/166/27 105/167/27 104/168/27

vt 905.512 118.11
f 105/167/27 59/166/27 64/169/27

v 0 16 3
vt 39.3701 669.291
vt 39.3701 708.661
f 64/117/10 106/170/10 105/171/10

v 0 11.9152 3
vt 39.3701 508.474
f 64/117/10 107/172/10 106/170/10

v 0 9.91524 3
vt 39.3701 429.734
f 64/117/10 108/173/10 107/172/10

v 0 6 3
vt 39.3701 275.591
f 64/117/10 109/174/10 108/173/10

vt 39.3701 236.22
f 64/117/10 96/175/10 109/174/10

f 64/117/10 65/119/10 96/175/10

vt 177.165 236.22
f 97/176/10 109/174/10 96/175/10

v 3.5 6 3
vt 177.165 275.591
f 109/174/10 97/176/10 110/177/10

f 97/129/27 99/97/27 110/100/27

f 99/97/27 97/129/27 98/130/27

vt -177.165 0
vt -177.165 118.11
f 99/178/15 109/154/15 110/179/15

f 109/154/15 99/178/15 100/155/15

vt 429.734 0
f 101/180/27 109/100/27 100/97/27

vt 429.734 118.11
f 109/100/27 101/180/27 108/181/27

v 7 9.91524 3
vt 314.961 118.11
f 101/99/14 111/182/14 108/98/14

v 7 9.91524 0
vt 314.961 0
f 111/182/14 101/99/14 112/183/14

v 7 11.9152 0
vt -314.961 508.474
vt -314.961 429.734
f 101/162/1 113/184/1 112/185/1

f 113/184/1 101/162/1 102/163/1

vt -314.961 0
f 107/154/15 113/186/15 102/155/15

v 7 11.9152 3
vt -314.961 118.11
f 113/186/15 107/154/15 114/187/15

vt 314.961 429.734
vt 314.961 508.474
f 107/172/10 111/188/10 114/189/10

f 111/188/10 107/172/10 108/173/10

vt 508.474 0
vt 508.474 118.11
f 111/181/27 113/190/27 114/191/27

f 113/190/27 111/181/27 112/180/27

vt 669.291 0
f 103/192/27 107/191/27 102/190/27

vt 669.291 118.11
f 107/191/27 103/192/27 106/193/27

v 6 16 3
f 103/99/14 115/100/14 106/98/14

v 6 16 0
f 115/100/14 103/99/14 116/97/14

v 5 17 0
vt -236.22 708.661
vt -275.591 669.291
f 103/164/1 117/194/1 116/195/1

f 117/194/1 103/164/1 104/165/1

f 105/154/15 117/104/15 104/155/15

v 5 17 3
f 117/104/15 105/154/15 118/102/15

vt 275.591 669.291
vt 236.22 708.661
f 105/171/10 115/196/10 118/197/10

f 115/196/10 105/171/10 106/170/10

v 5 19.5 3
vt 236.22 807.087
f 118/197/10 115/196/10 119/198/10

v 6 19.5 3
vt 275.591 807.087
f 119/198/10 115/196/10 120/199/10

v 6 19.5 0
vt 807.087 0
vt 807.087 118.11
f 115/193/27 121/200/27 120/201/27

f 121/200/27 115/193/27 116/192/27

vt -275.591 807.087
f 116/195/1 117/194/1 121/202/1

v 5 19.5 0
vt -236.22 807.087
f 121/202/1 117/194/1 122/203/1

vt -708.661 0
vt -807.087 118.11
vt -807.087 0
f 117/204/4 119/205/4 122/206/4

vt -708.661 118.11
f 119/205/4 117/204/4 118/207/4

f 119/102/15 121/101/15 122/104/15

f 121/101/15 119/102/15 120/103/15

f 53/103/4 55/155/4 94/154/4

f 55/155/4 53/103/4 54/101/4

vt 236.22 275.591
f 94/153/10 50/151/10 53/208/10

vt 275.591 275.591
f 52/209/10 53/208/10 50/151/10

v 12 0 3
vt 511.811 39.3701
f 93/152/10 67/120/10 123/210/10

v 16 0 3
vt 669.291 39.3701
f 123/210/10 67/120/10 124/211/10

v 17 0 3
vt 708.661 39.3701
f 124/211/10 67/120/10 125/212/10

v 22 0 3
vt 905.512 39.3701
f 125/212/10 67/120/10 126/213/10

v 22 5 3
vt 905.512 236.22
f 126/213/10 67/120/10 127/214/10

v 22 6 3
vt 905.512 275.591
f 127/214/10 67/120/10 128/215/10

v 22 10 3
vt 905.512 433.071
f 128/215/10 67/120/10 129/216/10

v 22 12 3
vt 905.512 511.811
f 129/216/10 67/120/10 130/217/10

v 22 16 3
vt 905.512 669.291
f 130/217/10 67/120/10 131/218/10

v 22 17 3
vt 905.512 708.661
f 131/218/10 67/120/10 132/219/10

f 132/219/10 67/120/10 68/122/10

vt -905.512 118.11
f 68/220/4 82/204/4 132/207/4

vt -905.512 0
f 82/204/4 68/220/4 81/221/4

f 68/169/14 80/168/14 81/166/14

f 80/168/14 68/169/14 69/167/14

v 17 16 3
f 133/193/27 80/166/27 69/169/27

v 17 16 0
f 80/166/27 133/193/27 134/192/27

v 16 16 0
f 133/167/14 135/192/14 134/168/14

v 16 16 3
f 135/192/14 133/167/14 136/193/14

vt 708.661 669.291
vt 669.291 669.291
f 133/222/10 70/124/10 136/223/10

f 69/123/10 70/124/10 133/222/10

vt -669.291 0
vt -669.291 118.11
f 70/220/4 135/224/4 136/225/4

f 135/224/4 70/220/4 79/221/4

vt 511.811 0
f 70/193/14 78/226/14 79/192/14

vt 511.811 118.11
f 78/226/14 70/193/14 71/227/14

v 12 15 3
vt 629.921 118.11
f 137/228/27 78/166/27 71/169/27

v 12 15 0
vt 629.921 0
f 78/166/27 137/228/27 138/229/27

v 10 15 0
vt 433.071 0
f 137/227/14 139/230/14 138/226/14

v 10 15 3
vt 433.071 118.11
f 139/230/14 137/227/14 140/231/14

vt 511.811 629.921
vt 433.071 629.921
f 137/232/10 72/126/10 140/233/10

f 71/125/10 72/126/10 137/232/10

vt -629.921 0
vt -629.921 118.11
f 72/220/4 139/234/4 140/235/4

f 139/234/4 72/220/4 77/221/4

f 72/231/14 76/97/14 77/230/14

f 76/97/14 72/231/14 73/100/14

v 6 21 3
vt 866.142 118.11
f 141/236/27 76/166/27 73/169/27

v 6 21 0
vt 866.142 0
f 76/166/27 141/236/27 142/237/27

v 5 21 0
f 141/100/14 143/130/14 142/97/14

v 5 21 3
f 143/130/14 141/100/14 144/129/14

vt 275.591 866.142
vt 236.22 866.142
f 141/238/10 74/128/10 144/239/10

f 73/127/10 74/128/10 141/238/10

vt -866.142 0
vt -866.142 118.11
f 74/220/4 143/240/4 144/241/4

f 143/240/4 74/220/4 75/221/4

vt -236.22 866.142
f 75/131/1 76/132/1 143/242/1

vt -275.591 866.142
f 142/243/1 143/242/1 76/132/1

vt -433.071 629.921
f 77/133/1 78/134/1 139/244/1

vt -511.811 629.921
f 138/245/1 139/244/1 78/134/1

vt -669.291 669.291
f 79/135/1 80/136/1 135/246/1

vt -708.661 669.291
f 134/247/1 135/246/1 80/136/1

v 18.5 17 3
vt -767.717 118.11
f 82/221/15 145/248/15 132/220/15

v 18.5 17 0
vt -767.717 0
f 145/248/15 82/221/15 146/249/15

v 18.5 16 0
vt -767.717 669.291
vt -767.717 708.661
f 82/138/1 147/250/1 146/251/1

f 147/250/1 82/138/1 83/139/1

vt 767.717 0
f 131/169/14 147/252/14 83/166/14

v 18.5 16 3
vt 767.717 118.11
f 147/252/14 131/169/14 148/253/14

vt 767.717 708.661
vt 767.717 669.291
f 131/218/10 145/254/10 148/255/10

f 145/254/10 131/218/10 132/219/10

f 145/207/4 147/224/4 148/225/4

f 147/224/4 145/207/4 146/204/4

vt -511.811 0
f 84/256/4 131/225/4 83/224/4

vt -511.811 118.11
f 131/225/4 84/256/4 130/257/4

v 15 12 3
f 84/221/15 149/235/15 130/220/15

v 15 12 0
f 149/235/15 84/221/15 150/234/15

v 15 10 0
vt -629.921 433.071
vt -629.921 511.811
f 84/140/1 151/258/1 150/259/1

f 151/258/1 84/140/1 85/141/1

f 129/169/14 151/229/14 85/166/14

v 15 10 3
f 151/229/14 129/169/14 152/228/14

vt 629.921 511.811
vt 629.921 433.071
f 129/216/10 149/260/10 152/261/10

f 149/260/10 129/216/10 130/217/10

f 149/257/4 151/149/4 152/150/4

f 151/149/4 149/257/4 150/256/4

f 86/101/4 129/150/4 85/149/4

f 129/150/4 86/101/4 128/103/4

v 16 6 3
f 86/221/15 153/225/15 128/220/15

v 16 6 0
f 153/225/15 86/221/15 154/224/15

v 17 5 0
vt -708.661 236.22
vt -669.291 275.591
f 155/262/1 154/263/1 86/142/1

v 16 2.61096 0
vt -669.291 142.164
f 154/263/1 155/262/1 156/264/1

v 17 2.61096 0
vt -708.661 142.164
f 157/265/1 156/264/1 155/262/1

v 17 2.61096 3
f 158/167/14 156/192/14 157/168/14

v 16 2.61096 3
f 156/192/14 158/167/14 159/193/14

vt 708.661 142.164
vt 669.291 275.591
vt 669.291 142.164
f 158/266/10 153/267/10 159/268/10

v 17 5 3
vt 708.661 236.22
f 153/267/10 158/266/10 160/269/10

vt 142.164 118.11
f 158/270/27 155/130/27 160/129/27

vt 142.164 0
f 155/130/27 158/270/27 157/271/27

f 155/168/14 127/169/14 160/167/14

f 127/169/14 155/168/14 87/166/14

f 155/262/1 86/142/1 87/143/1

f 88/155/4 127/102/4 87/104/4

f 127/102/4 88/155/4 126/154/4

f 88/221/15 125/207/15 126/220/15

f 125/207/15 88/221/15 89/204/15

v 17 1.11096 0
vt 83.1088 0
f 161/272/27 125/98/27 89/99/27

v 17 1.11096 3
vt 83.1088 118.11
f 125/98/27 161/272/27 162/273/27

v 16 1.11096 3
f 161/204/15 163/225/15 162/207/15

v 16 1.11096 0
f 163/225/15 161/204/15 164/224/15

vt -708.661 83.1088
vt -669.291 83.1088
f 161/274/1 90/146/1 164/275/1

f 89/145/1 90/146/1 161/274/1

vt -83.1088 118.11
vt -83.1088 0
f 90/155/4 163/276/4 164/277/4

f 163/276/4 90/155/4 124/154/4

f 90/224/15 123/257/15 124/225/15

f 123/257/15 90/224/15 91/256/15

v 12 7 0
f 165/183/27 123/98/27 91/99/27

v 12 7 3
f 123/98/27 165/183/27 166/182/27

v 10 7 3
f 165/256/15 167/150/15 166/257/15

v 10 7 0
f 167/150/15 165/256/15 168/149/15

vt -511.811 314.961
vt -433.071 314.961
f 165/278/1 92/148/1 168/279/1

f 91/147/1 92/148/1 165/278/1

f 92/155/4 167/187/4 168/186/4

f 167/187/4 92/155/4 93/154/4

vt 433.071 314.961
f 93/152/10 123/210/10 167/280/10

vt 511.811 314.961
f 166/281/10 167/280/10 123/210/10

vt 669.291 83.1088
f 124/211/10 125/212/10 163/282/10

vt 708.661 83.1088
f 162/283/10 163/282/10 125/212/10

f 128/215/10 160/269/10 127/214/10

f 153/267/10 160/269/10 128/215/10

vt -142.164 0
vt -142.164 118.11
f 153/103/4 156/284/4 159/285/4

f 156/284/4 153/103/4 154/101/4

f 62/116/4 58/111/4 66/115/4

f 58/111/4 62/116/4 60/109/4

