# Alias OBJ Model File
# Exported from SketchUp, (c) 2000-2012 Trimble Navigation Limited
# File units = meters

mtllib iLQG-TRO-MapB.mtl

g Mesh1 Group_1_1 Model

usemtl FrontColor
v 7 9 3.44571e-15
vt -362.205 0
vn -1 0 0
v 7 6.2 2.37371e-15
vt -251.969 0
v 7 6.2 2
vt -251.969 78.7402
v 7 9 2
vt -362.205 78.7402
f 1/1/1 2/2/1 3/3/1 4/4/1 

v 12 9 3.44571e-15
vt -480.315 362.205
vn 0 3.82857e-16 -1
v 12 6.2 2.37371e-15
vt -480.315 251.969
vt -283.465 251.969
vt -283.465 362.205
f 5/5/2 6/6/2 2/7/2 1/8/2 

vt 251.969 0
vn 1 0 -0
vt 362.205 0
v 12 9 2
vt 362.205 78.7402
v 12 6.2 2
vt 251.969 78.7402
f 6/9/3 5/10/3 7/11/3 8/12/3 

vt -480.315 0
vn 0 1 3.82857e-16
vt -283.465 0
vt -283.465 78.7402
vt -480.315 78.7402
f 5/13/4 1/14/4 4/15/4 7/16/4 

vt 480.315 251.969
vn 0 -3.82857e-16 1
vt 480.315 362.205
vt 283.465 362.205
vt 283.465 251.969
f 8/17/5 7/18/5 4/19/5 3/20/5 

vt 283.465 0
vn 0 -1 -3.82857e-16
vt 480.315 0
vt 480.315 78.7402
vt 283.465 78.7402
f 2/21/6 6/22/6 8/23/6 3/24/6 

g Mesh2 Group_1_1 Model

v 10 4.5 1.72286e-15
vt -401.575 185.039
v 10 1.5 5.74285e-16
vt -401.575 66.9291
v 8.5 1.5 5.74285e-16
vt -342.52 66.9291
v 8.5 4.5 1.72286e-15
vt -342.52 185.039
f 9/25/2 10/26/2 11/27/2 12/28/2 

vt 66.9291 0
vt 185.039 0
v 10 4.5 2
vt 185.039 78.7402
v 10 1.5 2
vt 66.9291 78.7402
f 10/29/3 9/30/3 13/31/3 14/32/3 

vt -401.575 0
vt -342.52 0
v 8.5 4.5 2
vt -342.52 78.7402
vt -401.575 78.7402
f 9/33/4 12/34/4 15/35/4 13/36/4 

vt -185.039 0
vt -66.9291 0
v 8.5 1.5 2
vt -66.9291 78.7402
vt -185.039 78.7402
f 12/37/1 11/38/1 16/39/1 15/40/1 

vt 342.52 0
vt 401.575 0
vt 401.575 78.7402
vt 342.52 78.7402
f 11/41/6 10/42/6 14/43/6 16/44/6 

vt 401.575 66.9291
vt 401.575 185.039
vt 342.52 185.039
vt 342.52 66.9291
f 14/45/5 13/46/5 15/47/5 16/48/5 

g Mesh3 Group_1_1 Model

v -0.2 11.2 4.288e-15
vt 0 448.819
v 0.06 10.95 4.19228e-15
vt -10.2362 438.976
v -0.2 -0.2 -7.65714e-17
vt 0 0
f 17/49/2 18/50/2 19/51/2

v 15.2 11.2 4.288e-15
vt -606.299 448.819
f 18/50/2 17/49/2 20/52/2

vt -606.299 0
v -0.2 11.2 2
vt 0 78.7402
v 15.2 11.2 2
vt -606.299 78.7402
f 20/53/4 17/51/4 21/54/4 22/55/4 

vt -448.819 0
v -0.2 -0.2 2
vt -448.819 78.7402
f 17/56/1 19/51/1 23/54/1 21/57/1 

v 15.2 -0.2 -7.65714e-17
vt 606.299 0
v 15.2 -0.2 2
vt 606.299 78.7402
f 19/51/6 24/58/6 25/59/6 23/54/6 

v 0.06 0.05 1.91428e-17
vt -10.2362 9.84252
f 19/51/2 26/60/2 24/53/2

f 26/60/2 19/51/2 18/50/2

vt 9.84252 0
vt 438.976 0
v 0.06 10.95 2
vt 438.976 78.7402
v 0.06 0.05 2
vt 9.84252 78.7402
f 26/61/3 18/62/3 27/63/3 28/64/3 

vt 10.2362 0
v 14.96 10.95 4.19228e-15
vt 596.85 0
v 14.96 10.95 2
vt 596.85 78.7402
vt 10.2362 78.7402
f 18/65/6 29/66/6 30/67/6 27/68/6 

vt -596.85 438.976
f 18/50/2 20/52/2 29/69/2

v 14.96 0.05 1.91428e-17
vt -596.85 9.84252
f 29/69/2 20/52/2 31/70/2

f 24/53/2 31/70/2 20/52/2

f 24/53/2 26/60/2 31/70/2

vt -596.85 0
vt -10.2362 0
vt -10.2362 78.7402
v 14.96 0.05 2
vt -596.85 78.7402
f 31/71/4 26/72/4 28/73/4 32/74/4 

vt 10.2362 9.84252
vt 596.85 9.84252
f 28/75/5 25/58/5 32/76/5

f 28/75/5 23/51/5 25/58/5

f 23/51/5 28/75/5 21/49/5

vt 10.2362 438.976
f 27/77/5 21/49/5 28/75/5

vt 606.299 448.819
f 21/49/5 27/77/5 22/78/5

vt 596.85 438.976
f 22/78/5 27/77/5 30/79/5

f 22/78/5 30/79/5 25/58/5

f 32/76/5 25/58/5 30/79/5

vt -438.976 0
vt -9.84252 0
vt -9.84252 78.7402
vt -438.976 78.7402
f 29/80/1 31/81/1 32/82/1 30/83/1 

vt 448.819 0
vt 448.819 78.7402
f 24/51/3 20/84/3 22/85/3 25/54/3 

