# Alias OBJ Model File
# Exported from SketchUp, (c) 2000-2012 Trimble Navigation Limited
# File units = meters

mtllib iLQG-TRO-MapB-DynObs.mtl

g Mesh1 Obsstacle1_1 Model

usemtl FrontColor
v 8.1493 5.80607 -0
vt -80.315 35.8268
vn -1 0 -0
v 8.1493 4.89607 -0
vt -80.315 0
v 8.1493 4.89607 2.04
vt 0 0
v 8.1493 5.80607 2.04
vt 0 35.8268
f 1/1/1 2/2/1 3/3/1 4/4/1 

v 10.3993 5.80607 -0
vt -88.5827 35.8268
vn 0 0 -1
v 10.3993 4.89607 -0
vt -88.5827 0
f 5/5/2 6/6/2 2/3/2 1/4/2 

vt 80.315 0
vn 1 0 -0
vt 80.315 35.8268
v 10.3993 5.80607 2.04
v 10.3993 4.89607 2.04
f 6/7/3 5/8/3 7/4/3 8/3/3 

vt 88.5827 80.315
vn 0 1 -0
vt 0 80.315
vt 88.5827 0
f 5/9/4 1/10/4 4/3/4 7/11/4 

vn 0 0 1
vt 88.5827 35.8268
f 8/11/5 7/12/5 4/4/5 3/3/5 

vn 0 -1 -0
vt -88.5827 80.315
f 2/10/6 6/13/6 8/6/6 3/3/6 

