# Alias OBJ Model File
# Exported from SketchUp, (c) 2000-2012 Trimble Navigation Limited
# File units = meters

mtllib iLQG-TRO-Task2.mtl

g Mesh1 Component_3_1 Model

usemtl FrontColor
v 11.41 6.55 -0
vt -457.087 78.7402
vn 0 -1 -0
v 13.56 6.55 -0
vt -541.732 78.7402
v 13.56 6.55 2
vt -541.732 1.7053e-13
v 11.41 6.55 2
vt -457.087 1.7053e-13
f 1/1/1 2/2/1 3/3/1 4/4/1 

v 13.56 9.05 -0
vt -541.732 364.173
vn 0 0 -1
vt -541.732 265.748
vt -457.087 265.748
v 11.41 9.05 -0
vt -457.087 364.173
f 5/5/2 2/6/2 1/7/2 6/8/2 

vt 78.7402 265.748
vn 1 0 -0
vt 78.7402 364.173
v 13.56 9.05 2
vt 1.7053e-13 364.173
vt 1.7053e-13 265.748
f 2/9/3 5/10/3 7/11/3 3/12/3 

vt 541.732 78.7402
vn 0 1 -0
vt 457.087 78.7402
v 11.41 9.05 2
vt 457.087 1.7053e-13
vt 541.732 1.7053e-13
f 5/13/4 6/14/4 8/15/4 7/16/4 

vt -78.7402 364.173
vn -1 0 -0
vt -78.7402 265.748
vt -1.7053e-13 265.748
vt -1.7053e-13 364.173
f 6/17/5 1/18/5 4/19/5 8/20/5 

vt 541.732 265.748
vn 0 0 1
vt 541.732 364.173
vt 457.087 364.173
vt 457.087 265.748
f 3/21/6 7/22/6 8/23/6 4/24/6 

g Mesh2 Component_3_1 Model

v 15.2 11.2 4.33147e-15
vt 606.299 78.7402
vn 0 1 3.82857e-16
v -0.2 11.2 4.33147e-15
vt 0 78.7402
v -0.2 11.2 2
vt 0 1.71833e-13
v 15.2 11.2 2
vt 606.299 1.71833e-13
f 9/25/7 10/26/7 11/27/7 12/28/7 

vt -606.299 448.819
vn 0 3.82857e-16 -1
v 14.96 10.95 4.33147e-15
vt -596.85 438.976
vt 0 448.819
f 9/29/8 13/30/8 10/31/8

v 14.96 0.05 -0
vt -596.85 9.84252
f 9/29/8 14/32/8 13/30/8

v 15.2 -0.2 -0
vt -606.299 5.1856e-17
f 15/33/8 14/32/8 9/29/8

v 0.06 0.05 -0
vt -10.2362 9.84252
f 14/32/8 15/33/8 16/34/8

v -0.2 -0.2 -0
vt 0 5.1856e-17
f 17/35/8 16/34/8 15/33/8

f 16/34/8 17/35/8 10/31/8

vt -78.7402 448.819
vt -78.7402 3.01981e-14
v -0.2 -0.2 2
vt -1.7053e-13 0
f 10/36/5 17/37/5 18/38/5 11/31/5 

vn 0 -1 -3.82857e-16
vt -606.299 78.7402
v 15.2 -0.2 2
vt -606.299 1.7053e-13
vt 0 1.7053e-13
f 17/26/9 15/39/9 19/40/9 18/41/9 

vt 78.7402 3.01981e-14
vt 78.7402 448.819
vt 1.7053e-13 0
f 15/42/3 9/43/3 12/31/3 19/44/3 

v 14.96 0.05 2
vt 596.85 9.84252
vn 0 -3.82857e-16 1
vt 606.299 -6.52887e-29
vt 606.299 448.819
f 20/45/10 19/46/10 12/47/10

vt 0 -6.52887e-29
f 19/46/10 20/45/10 18/48/10

v 0.06 0.05 2
vt 10.2362 9.84252
f 21/49/10 18/48/10 20/45/10

f 18/48/10 21/49/10 11/31/10

v 0.06 10.95 2
vt 10.2362 438.976
f 11/31/10 21/49/10 22/50/10

vt 78.7402 9.84252
v 0.06 10.95 4.33147e-15
vt 78.7402 438.976
vt 0 438.976
vt 1.7053e-13 9.84252
f 16/51/3 23/52/3 22/53/3 21/54/3 

vt -10.2362 438.976
f 16/34/8 10/31/8 23/55/8

f 23/55/8 10/31/8 13/30/8

vt -10.2362 78.7402
vt -596.85 78.7402
v 14.96 10.95 2
vt -596.85 1.68065e-13
vt -10.2362 1.68065e-13
f 23/56/9 13/57/9 24/58/9 22/59/9 

vt -78.7402 438.976
vt -78.7402 9.84252
vt -1.7053e-13 9.84252
f 13/60/5 14/61/5 20/62/5 24/53/5 

vt 596.85 78.7402
vt 10.2362 78.7402
vt 10.2362 1.74299e-13
vt 596.85 1.74299e-13
f 14/63/7 16/64/7 21/65/7 20/66/7 

vt 596.85 438.976
f 20/45/10 12/47/10 24/67/10

f 24/67/10 12/47/10 22/50/10

f 11/31/10 22/50/10 12/47/10

g Mesh3 Component_3_1 Model

v 10.06 4.55 -0
vt 403.937 78.7402
v 8.56 4.55 -0
vt 344.882 78.7402
v 8.56 4.55 2
vt 344.882 1.7053e-13
v 10.06 4.55 2
vt 403.937 1.7053e-13
f 25/68/4 26/69/4 27/70/4 28/71/4 

v 8.56 1.6 -0
vt -344.882 70.8661
vt -344.882 187.008
vt -403.937 187.008
v 10.06 1.6 -0
vt -403.937 70.8661
f 29/72/2 26/73/2 25/74/2 30/75/2 

vt -78.7402 187.008
vt -78.7402 70.8661
v 8.56 1.6 2
vt -1.7053e-13 70.8661
vt -1.7053e-13 187.008
f 26/76/5 29/77/5 31/78/5 27/79/5 

vt -344.882 78.7402
vt -403.937 78.7402
v 10.06 1.6 2
vt -403.937 1.7053e-13
vt -344.882 1.7053e-13
f 29/80/1 30/81/1 32/82/1 31/83/1 

vt 78.7402 70.8661
vt 78.7402 187.008
vt 1.7053e-13 187.008
vt 1.7053e-13 70.8661
f 30/84/3 25/85/3 28/86/3 32/87/3 

vt 344.882 187.008
vt 344.882 70.8661
vt 403.937 70.8661
vt 403.937 187.008
f 27/88/6 31/89/6 32/90/6 28/91/6 

g Mesh4 Component_3_1 Model

v 10.06 6.25 -0
vt 78.7402 253.937
v 10.06 8.05 -0
vt 78.7402 324.803
v 10.06 8.05 2
vt 1.7053e-13 324.803
v 10.06 6.25 2
vt 1.7053e-13 253.937
f 33/92/3 34/93/3 35/94/3 36/95/3 

v 8.56 8.05 -0
vt -344.882 324.803
vt -403.937 324.803
vt -403.937 253.937
v 8.56 6.25 -0
vt -344.882 253.937
f 37/96/2 34/97/2 33/98/2 38/99/2 

v 8.56 8.05 2
f 34/68/4 37/69/4 39/70/4 35/71/4 

vt -78.7402 324.803
vt -78.7402 253.937
v 8.56 6.25 2
vt -1.7053e-13 253.937
vt -1.7053e-13 324.803
f 37/100/5 38/101/5 40/102/5 39/103/5 

f 38/80/1 33/81/1 36/82/1 40/83/1 

vt 403.937 324.803
vt 344.882 324.803
vt 344.882 253.937
vt 403.937 253.937
f 35/104/6 39/105/6 40/106/6 36/107/6 

