# Alias OBJ Model File
# Exported from SketchUp, (c) 2000-2012 Trimble Navigation Limited
# File units = meters

mtllib iLQG-TRO-MapB-DynObs.mtl

g Mesh1 Component_2_1 Model

usemtl FrontColor
v 8.1351 5.92654 -0
vt -87.7953 241.202
vn -1 0 -0
v 8.1351 4.72654 -0
vt -87.7953 193.958
v 8.1351 4.72654 2.23
vt 0 193.958
v 8.1351 5.92654 2.23
vt 0 241.202
f 1/1/1 2/2/1 3/3/1 4/4/1 

vt -328.154 241.202
vn 0 0 -1
v 10.2651 5.92654 -0
vt -412.012 241.202
v 10.2651 4.72654 -0
vt -412.012 193.958
vt -328.154 193.958
f 1/5/2 5/6/2 6/7/2 2/8/2 

vt 412.012 87.7953
vn 0 1 -0
vt 328.154 87.7953
vt 328.154 0
v 10.2651 5.92654 2.23
vt 412.012 0
f 5/9/3 1/10/3 4/11/3 7/12/3 

vt 412.012 241.202
vn 0 0 1
vt 328.154 241.202
vt 328.154 193.958
v 10.2651 4.72654 2.23
vt 412.012 193.958
f 7/13/4 4/14/4 3/15/4 8/16/4 

vt -328.154 87.7953
vn 0 -1 -0
vt -412.012 87.7953
vt -412.012 0
vt -328.154 0
f 2/17/5 6/18/5 8/19/5 3/20/5 

vt 87.7953 193.958
vn 1 0 -0
vt 87.7953 241.202
f 6/21/6 5/22/6 7/4/6 8/3/6 

g Mesh2 Component_2_1 Model

v -0.2 -0.2 -0
vt 0 -3.41496e-15
vn 0 3.82857e-16 -1
v 0.06 0.05 -0
vt -10.2362 9.84252
v 15.2 -0.2 -0
vt -606.299 -3.41496e-15
f 9/23/7 10/24/7 11/25/7

v -0.2 11.2 4.33147e-15
vt 0 448.819
f 10/24/7 9/23/7 12/26/7

vt -87.7953 448.819
vt -87.7953 3.01981e-14
v -0.2 -0.2 2
vt -9.05512 0
v -0.2 11.2 2
vt -9.05512 448.819
f 12/27/1 9/28/1 13/29/1 14/30/1 

vt 0 87.7953
vn 0 -1 -3.82857e-16
vt -606.299 87.7953
v 15.2 -0.2 2
vt -606.299 9.05512
vt 0 9.05512
f 9/31/8 11/32/8 15/33/8 13/34/8 

vt 87.7953 3.01981e-14
v 15.2 11.2 4.33147e-15
vt 87.7953 448.819
v 15.2 11.2 2
vt 9.05512 448.819
vt 9.05512 0
f 11/35/6 16/36/6 17/37/6 15/38/6 

v 14.96 0.05 -0
vt -596.85 9.84252
vt -606.299 448.819
f 11/25/7 18/39/7 16/40/7

f 18/39/7 11/25/7 10/24/7

vt 596.85 87.7953
vn 0 1 3.82857e-16
vt 10.2362 87.7953
v 0.06 0.05 2
vt 10.2362 9.05512
v 14.96 0.05 2
vt 596.85 9.05512
f 18/41/9 10/42/9 19/43/9 20/44/9 

vt 87.7953 9.84252
v 0.06 10.95 4.33147e-15
vt 87.7953 438.976
v 0.06 10.95 2
vt 9.05512 438.976
vt 9.05512 9.84252
f 10/45/6 21/46/6 22/47/6 19/48/6 

vt -10.2362 438.976
f 10/24/7 12/26/7 21/49/7

v 14.96 10.95 4.33147e-15
vt -596.85 438.976
f 21/49/7 12/26/7 23/50/7

f 16/40/7 23/50/7 12/26/7

f 16/40/7 18/39/7 23/50/7

vt -87.7953 438.976
vt -87.7953 9.84252
vt -9.05512 9.84252
v 14.96 10.95 2
vt -9.05512 438.976
f 23/51/1 18/52/1 20/53/1 24/54/1 

vt 596.85 9.84252
vn 0 -3.82857e-16 1
vt 606.299 448.819
vt 596.85 438.976
f 20/55/10 17/56/10 24/57/10

vt 606.299 -3.46681e-15
f 20/55/10 15/58/10 17/56/10

vt 0 -3.46681e-15
f 15/58/10 20/55/10 13/59/10

vt 10.2362 9.84252
f 19/60/10 13/59/10 20/55/10

f 13/59/10 19/60/10 14/26/10

vt 10.2362 438.976
f 14/26/10 19/60/10 22/61/10

f 14/26/10 22/61/10 17/56/10

f 24/57/10 17/56/10 22/61/10

vt -10.2362 87.7953
vt -596.85 87.7953
vt -596.85 9.05512
vt -10.2362 9.05512
f 21/62/8 23/63/8 24/64/8 22/65/8 

vt 606.299 87.7953
vt 606.299 9.05512
f 16/66/9 12/31/9 14/34/9 17/67/9 

g Mesh3 Component_2_1 Model

v 10 4.5 1.80478e-15
vt 401.575 87.7953
v 8.5 4.5 1.80478e-15
vt 342.52 87.7953
v 8.5 4.5 2
vt 342.52 9.05512
v 10 4.5 2
vt 401.575 9.05512
f 25/68/9 26/69/9 27/70/9 28/71/9 

vt -401.575 185.039
v 10 1.66 7.21911e-16
vt -401.575 73.2283
v 8.5 1.66 7.21911e-16
vt -342.52 73.2283
vt -342.52 185.039
f 25/72/7 29/73/7 30/74/7 26/75/7 

vt 87.7953 73.2283
vt 87.7953 185.039
vt 9.05512 185.039
v 10 1.66 2
vt 9.05512 73.2283
f 29/76/6 25/77/6 28/78/6 31/79/6 

vt 401.575 73.2283
vt 401.575 185.039
vt 342.52 185.039
v 8.5 1.66 2
vt 342.52 73.2283
f 31/80/10 28/81/10 27/82/10 32/83/10 

vt -87.7953 185.039
vt -87.7953 73.2283
vt -9.05512 73.2283
vt -9.05512 185.039
f 26/84/1 30/85/1 32/86/1 27/87/1 

vt -342.52 87.7953
vt -401.575 87.7953
vt -401.575 9.05512
vt -342.52 9.05512
f 30/88/8 29/89/8 31/90/8 32/91/8 

g Mesh4 Component_2_1 Model

v 12 9 3.60956e-15
vt 480.315 87.7953
v 7 9 3.60956e-15
vt 283.465 87.7953
v 7 9 2
vt 283.465 9.05512
v 12 9 2
vt 480.315 9.05512
f 33/92/9 34/93/9 35/94/9 36/95/9 

vt -480.315 362.205
v 12 6.2 2.52669e-15
vt -480.315 251.969
v 7 6.2 2.52669e-15
vt -283.465 251.969
vt -283.465 362.205
f 33/96/7 37/97/7 38/98/7 34/99/7 

vt 87.7953 251.969
vt 87.7953 362.205
vt 9.05512 362.205
v 12 6.2 2
vt 9.05512 251.969
f 37/100/6 33/101/6 36/102/6 39/103/6 

vt 480.315 251.969
vt 480.315 362.205
vt 283.465 362.205
v 7 6.2 2
vt 283.465 251.969
f 39/104/10 36/105/10 35/106/10 40/107/10 

vt -87.7953 362.205
vt -87.7953 251.969
vt -9.05512 251.969
vt -9.05512 362.205
f 34/108/1 38/109/1 40/110/1 35/111/1 

vt -283.465 87.7953
vt -480.315 87.7953
vt -480.315 9.05512
vt -283.465 9.05512
f 38/112/8 37/113/8 39/114/8 40/115/8 

