# Alias OBJ Model File
# Exported from SketchUp, (c) 2000-2012 Trimble Navigation Limited
# File units = meters

mtllib iLQG-TRO-Task2.mtl

g Mesh1 Component_4_1 Model

usemtl FrontColor
v 0.06 10.95 4.33147e-15
vt -10.2362 78.7402
vn 0 -1 -3.82857e-16
v 14.96 10.95 4.33147e-15
vt -596.85 78.7402
v 14.96 10.95 2
vt -596.85 1.68065e-13
v 0.06 10.95 2
vt -10.2362 1.68065e-13
f 1/1/1 2/2/1 3/3/1 4/4/1 

vt -10.2362 438.976
vn 0 3.82857e-16 -1
v -0.2 11.2 4.33147e-15
vt 0 448.819
vt -596.85 438.976
f 1/5/2 5/6/2 2/7/2

v 0.06 0.05 -0
vt -10.2362 9.84252
f 6/8/2 5/6/2 1/5/2

v -0.2 -0.2 -0
vt 0 5.1856e-17
f 6/8/2 7/9/2 5/6/2

v 15.2 -0.2 -0
vt -606.299 5.1856e-17
f 7/9/2 6/8/2 8/10/2

v 14.96 0.05 -0
vt -596.85 9.84252
f 9/11/2 8/10/2 6/8/2

v 15.2 11.2 4.33147e-15
vt -606.299 448.819
f 8/10/2 9/11/2 10/12/2

f 10/12/2 9/11/2 2/7/2

vt -78.7402 438.976
vn -1 0 -0
vt -78.7402 9.84252
v 14.96 0.05 2
vt -1.7053e-13 9.84252
vt 0 438.976
f 2/13/3 9/14/3 11/15/3 3/16/3 

vt 596.85 78.7402
vn 0 1 3.82857e-16
vt 10.2362 78.7402
v 0.06 0.05 2
vt 10.2362 1.74299e-13
vt 596.85 1.74299e-13
f 9/17/4 6/18/4 12/19/4 11/20/4 

vt 78.7402 9.84252
vn 1 0 -0
vt 78.7402 438.976
vt 1.7053e-13 9.84252
f 6/21/5 1/22/5 4/16/5 12/23/5 

v -0.2 11.2 2
vn 0 -3.82857e-16 1
vt 10.2362 9.84252
vt 10.2362 438.976
f 13/6/6 12/24/6 4/25/6

v -0.2 -0.2 2
vt 0 -6.52887e-29
f 14/26/6 12/24/6 13/6/6

vt 596.85 9.84252
f 12/24/6 14/26/6 11/27/6

v 15.2 -0.2 2
vt 606.299 -6.52887e-29
f 15/28/6 11/27/6 14/26/6

v 15.2 11.2 2
vt 606.299 448.819
f 11/27/6 15/28/6 16/29/6

vt 78.7402 3.01981e-14
vt 78.7402 448.819
vt 1.7053e-13 0
f 8/30/5 10/31/5 16/6/5 15/32/5 

vt 606.299 78.7402
vt 0 78.7402
vt 0 1.71833e-13
vt 606.299 1.71833e-13
f 10/33/4 5/34/4 13/35/4 16/36/4 

f 10/12/2 2/7/2 5/6/2

vt -78.7402 448.819
vt -78.7402 3.01981e-14
vt -1.7053e-13 0
f 5/37/3 7/38/3 14/39/3 13/6/3 

vt -606.299 78.7402
vt -606.299 1.7053e-13
vt 0 1.7053e-13
f 7/34/1 8/40/1 15/41/1 14/42/1 

f 13/6/6 4/25/6 16/29/6

vt 596.85 438.976
f 3/43/6 16/29/6 4/25/6

f 11/27/6 16/29/6 3/43/6

g Mesh2 Component_4_1 Model

v 13.56 6.55 2
vt 541.732 265.748
vn 0 0 1
v 13.56 9.05 2
vt 541.732 364.173
v 11.41 9.05 2
vt 457.087 364.173
v 11.41 6.55 2
vt 457.087 265.748
f 17/44/7 18/45/7 19/46/7 20/47/7 

v 13.56 6.55 -0
vt 78.7402 265.748
v 13.56 9.05 -0
vt 78.7402 364.173
vt 1.7053e-13 364.173
vt 1.7053e-13 265.748
f 21/48/5 22/49/5 18/50/5 17/51/5 

vt -541.732 364.173
vn 0 0 -1
vt -541.732 265.748
v 11.41 6.55 -0
vt -457.087 265.748
v 11.41 9.05 -0
vt -457.087 364.173
f 22/52/8 21/53/8 23/54/8 24/55/8 

vt -457.087 78.7402
vn 0 -1 -0
vt -541.732 78.7402
vt -541.732 1.7053e-13
vt -457.087 1.7053e-13
f 23/56/9 21/57/9 17/58/9 20/59/9 

vt -78.7402 364.173
vt -78.7402 265.748
vt -1.7053e-13 265.748
vt -1.7053e-13 364.173
f 24/60/3 23/61/3 20/62/3 19/63/3 

vt 541.732 78.7402
vn 0 1 -0
vt 457.087 78.7402
vt 457.087 1.7053e-13
vt 541.732 1.7053e-13
f 22/64/10 24/65/10 19/66/10 18/67/10 

g Mesh3 Component_4_1 Model

v 8.56 4.55 -0
vt -78.7402 187.008
v 8.56 1.81 -0
vt -78.7402 79.1339
v 8.56 1.81 2
vt -1.7053e-13 79.1339
v 8.56 4.55 2
vt -1.7053e-13 187.008
f 25/68/3 26/69/3 27/70/3 28/71/3 

vt -344.882 79.1339
vt -344.882 187.008
v 10.06 4.55 -0
vt -403.937 187.008
v 10.06 1.81 -0
vt -403.937 79.1339
f 26/72/8 25/73/8 29/74/8 30/75/8 

vt 403.937 78.7402
vt 344.882 78.7402
vt 344.882 1.7053e-13
v 10.06 4.55 2
vt 403.937 1.7053e-13
f 29/76/10 25/77/10 28/78/10 31/79/10 

vt 344.882 187.008
vt 344.882 79.1339
v 10.06 1.81 2
vt 403.937 79.1339
vt 403.937 187.008
f 28/80/7 27/81/7 32/82/7 31/83/7 

vt -344.882 78.7402
vt -403.937 78.7402
vt -403.937 1.7053e-13
vt -344.882 1.7053e-13
f 26/84/9 30/85/9 32/86/9 27/87/9 

vt 78.7402 79.1339
vt 78.7402 187.008
vt 1.7053e-13 187.008
vt 1.7053e-13 79.1339
f 30/88/5 29/89/5 31/90/5 32/91/5 

g Mesh4 Component_4_1 Model

v 8.56 8.05 -0
vt -344.882 324.803
v 10.06 8.05 -0
vt -403.937 324.803
v 10.06 6.25 -0
vt -403.937 253.937
v 8.56 6.25 -0
vt -344.882 253.937
f 33/92/8 34/93/8 35/94/8 36/95/8 

v 8.56 8.05 2
v 10.06 8.05 2
f 34/76/10 33/77/10 37/78/10 38/79/10 

vt -78.7402 324.803
vt -78.7402 253.937
v 8.56 6.25 2
vt -1.7053e-13 253.937
vt -1.7053e-13 324.803
f 33/96/3 36/97/3 39/98/3 37/99/3 

v 10.06 6.25 2
f 36/84/9 35/85/9 40/86/9 39/87/9 

vt 78.7402 253.937
vt 78.7402 324.803
vt 1.7053e-13 324.803
vt 1.7053e-13 253.937
f 35/100/5 34/101/5 38/102/5 40/103/5 

vt 403.937 324.803
vt 344.882 324.803
vt 344.882 253.937
vt 403.937 253.937
f 38/104/7 37/105/7 39/106/7 40/107/7 

