# Alias OBJ Model File
# Exported from SketchUp, (c) 2000-2012 Trimble Navigation Limited
# File units = meters

mtllib iLQG-TRO-Task2.mtl

g Mesh1 Component_2_1 Model

usemtl FrontColor
v 8.56 4.55 2
vt 344.882 187.008
vn 0 0 1
v 8.56 1.6 2
vt 344.882 70.8661
v 10.06 1.6 2
vt 403.937 70.8661
v 10.06 4.55 2
vt 403.937 187.008
f 1/1/1 2/2/1 3/3/1 4/4/1 

v 8.56 4.55 -0
vt -78.7402 187.008
vn -1 0 -0
v 8.56 1.6 -0
vt -78.7402 70.8661
vt -1.7053e-13 70.8661
vt -1.7053e-13 187.008
f 5/5/2 6/6/2 2/7/2 1/8/2 

vt -344.882 70.8661
vn 0 0 -1
vt -344.882 187.008
v 10.06 4.55 -0
vt -403.937 187.008
v 10.06 1.6 -0
vt -403.937 70.8661
f 6/9/3 5/10/3 7/11/3 8/12/3 

vt 403.937 78.7402
vn 0 1 -0
vt 344.882 78.7402
vt 344.882 1.7053e-13
vt 403.937 1.7053e-13
f 7/13/4 5/14/4 1/15/4 4/16/4 

vt 78.7402 70.8661
vn 1 0 -0
vt 78.7402 187.008
vt 1.7053e-13 187.008
vt 1.7053e-13 70.8661
f 8/17/5 7/18/5 4/19/5 3/20/5 

vt -344.882 78.7402
vn 0 -1 -0
vt -403.937 78.7402
vt -403.937 1.7053e-13
vt -344.882 1.7053e-13
f 6/21/6 8/22/6 3/23/6 2/24/6 

g Mesh2 Component_2_1 Model

v 15.2 -0.2 2
vt 606.299 -6.52887e-29
vn 0 -3.82857e-16 1
v 14.96 0.05 2
vt 596.85 9.84252
v -0.2 -0.2 2
vt 0 -6.52887e-29
f 9/25/7 10/26/7 11/27/7

v 15.2 11.2 2
vt 606.299 448.819
f 10/26/7 9/25/7 12/28/7

v 15.2 -0.2 -0
vt 78.7402 3.01981e-14
v 15.2 11.2 4.33147e-15
vt 78.7402 448.819
vt 0 448.819
vt 1.7053e-13 0
f 13/29/5 14/30/5 12/31/5 9/32/5 

vt -606.299 5.1856e-17
vn 0 3.82857e-16 -1
v 14.96 0.05 -0
vt -596.85 9.84252
vt -606.299 448.819
f 13/33/8 15/34/8 14/35/8

v 0.06 0.05 -0
vt -10.2362 9.84252
f 15/34/8 13/33/8 16/36/8

v -0.2 -0.2 -0
vt 0 5.1856e-17
f 17/37/8 16/36/8 13/33/8

v -0.2 11.2 4.33147e-15
f 16/36/8 17/37/8 18/31/8

vt -78.7402 448.819
vt -78.7402 3.01981e-14
vt -1.7053e-13 0
v -0.2 11.2 2
f 18/38/2 17/39/2 11/40/2 19/31/2 

vt 0 78.7402
vn 0 -1 -3.82857e-16
vt -606.299 78.7402
vt -606.299 1.7053e-13
vt 0 1.7053e-13
f 17/41/9 13/42/9 9/43/9 11/44/9 

v 0.06 0.05 2
vt 10.2362 9.84252
f 11/27/7 20/45/7 19/31/7

f 20/45/7 11/27/7 10/26/7

vt 596.85 78.7402
vn 0 1 3.82857e-16
vt 10.2362 78.7402
vt 10.2362 1.74299e-13
vt 596.85 1.74299e-13
f 15/46/10 16/47/10 20/48/10 10/49/10 

vt 78.7402 9.84252
v 0.06 10.95 4.33147e-15
vt 78.7402 438.976
v 0.06 10.95 2
vt 0 438.976
vt 1.7053e-13 9.84252
f 16/50/5 21/51/5 22/52/5 20/53/5 

vt -10.2362 438.976
f 16/36/8 18/31/8 21/54/8

v 14.96 10.95 4.33147e-15
vt -596.85 438.976
f 21/54/8 18/31/8 23/55/8

f 14/35/8 23/55/8 18/31/8

f 14/35/8 15/34/8 23/55/8

vt -78.7402 438.976
vt -78.7402 9.84252
vt -1.7053e-13 9.84252
v 14.96 10.95 2
f 23/56/2 15/57/2 10/58/2 24/52/2 

vt 596.85 438.976
f 10/26/7 12/28/7 24/59/7

vt 10.2362 438.976
f 24/59/7 12/28/7 22/60/7

f 19/31/7 22/60/7 12/28/7

f 19/31/7 20/45/7 22/60/7

vt 606.299 78.7402
vt 0 1.71833e-13
vt 606.299 1.71833e-13
f 14/61/10 18/41/10 19/62/10 12/63/10 

vt -10.2362 78.7402
vt -596.85 78.7402
vt -596.85 1.68065e-13
vt -10.2362 1.68065e-13
f 21/64/9 23/65/9 24/66/9 22/67/9 

g Mesh3 Component_2_1 Model

v 13.56 8.05 2
vt 541.732 324.803
v 13.56 9.05 2
vt 541.732 364.173
v 11.31 9.05 2
vt 453.15 364.173
v 11.31 8.05 2
vt 453.15 324.803
f 25/68/1 26/69/1 27/70/1 28/71/1 

v 13.56 8.05 -0
vt 78.7402 324.803
v 13.56 9.05 -0
vt 78.7402 364.173
vt 1.7053e-13 364.173
vt 1.7053e-13 324.803
f 29/72/5 30/73/5 26/74/5 25/75/5 

vt -541.732 364.173
vt -541.732 324.803
v 11.31 8.05 -0
vt -453.15 324.803
v 11.31 9.05 -0
vt -453.15 364.173
f 30/76/3 29/77/3 31/78/3 32/79/3 

vt -453.15 78.7402
vt -541.732 78.7402
vt -541.732 1.7053e-13
vt -453.15 1.7053e-13
f 31/80/6 29/81/6 25/82/6 28/83/6 

vt -78.7402 364.173
vt -78.7402 324.803
vt -1.7053e-13 324.803
vt -1.7053e-13 364.173
f 32/84/2 31/85/2 28/86/2 27/87/2 

vt 541.732 78.7402
vt 453.15 78.7402
vt 453.15 1.7053e-13
vt 541.732 1.7053e-13
f 30/88/4 32/89/4 27/90/4 26/91/4 

g Mesh4 Component_2_1 Model

v 10.28 6.25 -0
vt 78.7402 253.937
v 10.28 8.05 -0
v 10.28 8.05 2
v 10.28 6.25 2
vt 1.7053e-13 253.937
f 33/92/5 34/72/5 35/75/5 36/93/5 

v 8.56 6.25 -0
vt -344.882 253.937
v 8.56 8.05 -0
vt -344.882 324.803
vt -412.598 324.803
vt -412.598 253.937
f 37/94/3 38/95/3 34/96/3 33/97/3 

vt -78.7402 253.937
v 8.56 6.25 2
vt -1.7053e-13 253.937
v 8.56 8.05 2
f 38/85/2 37/98/2 39/99/2 40/86/2 

vt -412.598 78.7402
vt -412.598 1.7053e-13
f 37/21/6 33/100/6 36/101/6 39/24/6 

vt 344.882 324.803
vt 344.882 253.937
vt 412.598 253.937
vt 412.598 324.803
f 40/102/1 39/103/1 36/104/1 35/105/1 

vt 412.598 78.7402
vt 412.598 1.7053e-13
f 34/106/4 38/14/4 40/15/4 35/107/4 

