# Alias OBJ Model File
# Exported from SketchUp, (c) 2000-2012 Trimble Navigation Limited
# File units = meters

mtllib iLQG-TRO-MapB.mtl

g Mesh1 Component_1_1 Model

usemtl FrontColor
v 0.06 0.05 -0
vt 78.7402 9.84252
vn 1 0 -0
v 0.06 10.95 4.33147e-15
vt 78.7402 438.976
v 0.06 10.95 2
vt 0 438.976
v 0.06 0.05 2
vt 1.7053e-13 9.84252
f 1/1/1 2/2/1 3/3/1 4/4/1 

vt -10.2362 9.84252
vn 0 3.82857e-16 -1
v -0.2 11.2 4.33147e-15
vt 0 448.819
vt -10.2362 438.976
f 1/5/2 5/6/2 2/7/2

v -0.2 -0.2 -0
vt 0 5.1856e-17
f 1/5/2 6/8/2 5/6/2

v 15.2 -0.2 -0
vt -606.299 5.1856e-17
f 6/8/2 1/5/2 7/9/2

v 14.96 0.05 -0
vt -596.85 9.84252
f 8/10/2 7/9/2 1/5/2

v 15.2 11.2 4.33147e-15
vt -606.299 448.819
f 7/9/2 8/10/2 9/11/2

v 14.96 10.95 4.33147e-15
vt -596.85 438.976
f 9/11/2 8/10/2 10/12/2

vt -78.7402 438.976
vn -1 0 -0
vt -78.7402 9.84252
v 14.96 0.05 2
vt -1.7053e-13 9.84252
v 14.96 10.95 2
f 10/13/3 8/14/3 11/15/3 12/3/3 

vt 596.85 78.7402
vn 0 1 3.82857e-16
vt 10.2362 78.7402
vt 10.2362 1.74299e-13
vt 596.85 1.74299e-13
f 8/16/4 1/17/4 4/18/4 11/19/4 

vt 10.2362 9.84252
vn 0 -3.82857e-16 1
v -0.2 -0.2 2
vt 0 -6.52887e-29
vt 596.85 9.84252
f 4/20/5 13/21/5 11/22/5

v -0.2 11.2 2
f 13/21/5 4/20/5 14/6/5

vt 10.2362 438.976
f 14/6/5 4/20/5 3/23/5

v 15.2 11.2 2
vt 606.299 448.819
f 14/6/5 3/23/5 15/24/5

vt 596.85 438.976
f 12/25/5 15/24/5 3/23/5

f 11/22/5 15/24/5 12/25/5

v 15.2 -0.2 2
vt 606.299 -6.52887e-29
f 11/22/5 16/26/5 15/24/5

f 16/26/5 11/22/5 13/21/5

vt 0 78.7402
vn 0 -1 -3.82857e-16
vt -606.299 78.7402
vt -606.299 1.7053e-13
vt 0 1.7053e-13
f 6/27/6 7/28/6 16/29/6 13/30/6 

vt 78.7402 3.01981e-14
vt 78.7402 448.819
vt 1.7053e-13 0
f 7/31/1 9/32/1 15/6/1 16/33/1 

vt 606.299 78.7402
vt 0 1.71833e-13
vt 606.299 1.71833e-13
f 9/34/4 5/27/4 14/35/4 15/36/4 

f 9/11/2 10/12/2 5/6/2

f 2/7/2 5/6/2 10/12/2

vt -10.2362 78.7402
vt -596.85 78.7402
vt -596.85 1.68065e-13
vt -10.2362 1.68065e-13
f 2/37/6 10/38/6 12/39/6 3/40/6 

vt -78.7402 448.819
vt -78.7402 3.01981e-14
vt -1.7053e-13 0
f 5/41/3 6/42/3 13/43/3 14/6/3 

g Mesh2 Component_1_1 Model

v 10 1.63 7.21911e-16
vt 78.7402 72.0472
v 10 4.5 1.80478e-15
vt 78.7402 185.039
v 10 4.5 2
vt 9.9476e-14 185.039
v 10 1.63 2
vt 1.42109e-13 72.0472
f 17/44/1 18/45/1 19/46/1 20/47/1 

vt -401.575 185.039
vt -401.575 72.0472
v 8.5 1.63 7.21911e-16
vt -342.52 72.0472
v 8.5 4.5 1.80478e-15
vt -342.52 185.039
f 18/48/2 17/49/2 21/50/2 22/51/2 

vt -342.52 78.7402
vt -401.575 78.7402
vt -401.575 1.69692e-13
v 8.5 1.63 2
vt -342.52 1.69692e-13
f 21/52/6 17/53/6 20/54/6 23/55/6 

vt 401.575 72.0472
vt 401.575 185.039
v 8.5 4.5 2
vt 342.52 185.039
vt 342.52 72.0472
f 20/56/5 19/57/5 24/58/5 23/59/5 

vt 401.575 78.7402
vt 342.52 78.7402
vt 342.52 1.7032e-13
vt 401.575 1.7032e-13
f 18/60/4 22/61/4 24/62/4 19/63/4 

vt -78.7402 185.039
vt -78.7402 72.0472
vt -1.42109e-13 72.0472
vt -9.9476e-14 185.039
f 22/64/3 21/65/3 23/66/3 24/67/3 

g Mesh3 Component_1_1 Model

v 12 6.2 2.52669e-15
vt 78.7402 251.969
v 12 9 3.60956e-15
vt 78.7402 362.205
v 12 9 2
vt 2.84217e-14 362.205
v 12 6.2 2
vt 7.10543e-14 251.969
f 25/68/1 26/69/1 27/70/1 28/71/1 

vt -480.315 362.205
vt -480.315 251.969
v 7 6.2 2.52669e-15
vt -283.465 251.969
v 7 9 3.60956e-15
vt -283.465 362.205
f 26/72/2 25/73/2 29/74/2 30/75/2 

vt -283.465 78.7402
vt -480.315 78.7402
vt -480.315 1.67522e-13
v 7 6.2 2
vt -283.465 1.67522e-13
f 29/76/6 25/77/6 28/78/6 31/79/6 

vt 480.315 251.969
vt 480.315 362.205
v 7 9 2
vt 283.465 362.205
vt 283.465 251.969
f 28/80/5 27/81/5 32/82/5 31/83/5 

vt 480.315 78.7402
vt 283.465 78.7402
vt 283.465 1.67094e-13
vt 480.315 1.67094e-13
f 26/84/4 30/85/4 32/86/4 27/87/4 

vt -78.7402 362.205
vt -78.7402 251.969
vt -7.10543e-14 251.969
vt -2.84217e-14 362.205
f 30/88/3 29/89/3 31/90/3 32/91/3 

