# Alias OBJ Model File
# Exported from SketchUp, (c) 2000-2012 Trimble Navigation Limited
# File units = meters

mtllib iLQG-TRO-Task2-DynObs.mtl

g Mesh1 Component_5_1 Model

usemtl FrontColor
v 13.56 6.55 2
vt 541.732 265.748
vn 0 0 1
v 13.56 9.05 2
vt 541.732 364.173
v 11.41 9.05 2
vt 457.087 364.173
v 11.41 6.55 2
vt 457.087 265.748
f 1/1/1 2/2/1 3/3/1 4/4/1 

v 13.56 6.55 -0
vt 78.7402 265.748
vn 1 0 -0
v 13.56 9.05 -0
vt 78.7402 364.173
vt 1.7053e-13 364.173
vt 1.7053e-13 265.748
f 5/5/2 6/6/2 2/7/2 1/8/2 

vt -541.732 364.173
vn 0 0 -1
vt -541.732 265.748
v 11.41 6.55 -0
vt -457.087 265.748
v 11.41 9.05 -0
vt -457.087 364.173
f 6/9/3 5/10/3 7/11/3 8/12/3 

vt -457.087 78.7402
vn 0 -1 -0
vt -541.732 78.7402
vt -541.732 1.7053e-13
vt -457.087 1.7053e-13
f 7/13/4 5/14/4 1/15/4 4/16/4 

vt -78.7402 364.173
vn -1 0 -0
vt -78.7402 265.748
vt -1.7053e-13 265.748
vt -1.7053e-13 364.173
f 8/17/5 7/18/5 4/19/5 3/20/5 

vt 541.732 78.7402
vn 0 1 -0
vt 457.087 78.7402
vt 457.087 1.7053e-13
vt 541.732 1.7053e-13
f 6/21/6 8/22/6 3/23/6 2/24/6 

g Mesh2 Component_5_1 Model

v 8.56 4.55 -0
vt -78.7402 187.008
v 8.56 1.81 -0
vt -78.7402 79.1339
v 8.56 1.81 2
vt -1.7053e-13 79.1339
v 8.56 4.55 2
vt -1.7053e-13 187.008
f 9/25/5 10/26/5 11/27/5 12/28/5 

vt -344.882 79.1339
vt -344.882 187.008
v 10.06 4.55 -0
vt -403.937 187.008
v 10.06 1.81 -0
vt -403.937 79.1339
f 10/29/3 9/30/3 13/31/3 14/32/3 

vt 403.937 78.7402
vt 344.882 78.7402
vt 344.882 1.7053e-13
v 10.06 4.55 2
vt 403.937 1.7053e-13
f 13/33/6 9/34/6 12/35/6 15/36/6 

vt 344.882 187.008
vt 344.882 79.1339
v 10.06 1.81 2
vt 403.937 79.1339
vt 403.937 187.008
f 12/37/1 11/38/1 16/39/1 15/40/1 

vt -344.882 78.7402
vt -403.937 78.7402
vt -403.937 1.7053e-13
vt -344.882 1.7053e-13
f 10/41/4 14/42/4 16/43/4 11/44/4 

vt 78.7402 79.1339
vt 78.7402 187.008
vt 1.7053e-13 187.008
vt 1.7053e-13 79.1339
f 14/45/2 13/46/2 15/47/2 16/48/2 

g Mesh3 Component_5_1 Model

v 8.54665 6.17968 -0
vt -344.356 251.169
v 10.0466 6.17968 -0
vt -403.411 251.169
v 10.0466 4.67968 -0
vt -403.411 192.114
v 8.54665 4.67968 -0
vt -344.356 192.114
f 17/49/3 18/50/3 19/51/3 20/52/3 

vt 403.411 78.7402
vt 344.356 78.7402
v 8.54665 6.17968 2
vt 344.356 1.7053e-13
v 10.0466 6.17968 2
vt 403.411 1.7053e-13
f 18/53/6 17/54/6 21/55/6 22/56/6 

vt -78.7402 251.169
vt -78.7402 192.114
v 8.54665 4.67968 2
vt -1.7053e-13 192.114
vt -1.7053e-13 251.169
f 17/57/5 20/58/5 23/59/5 21/60/5 

vt -344.356 78.7402
vt -403.411 78.7402
v 10.0466 4.67968 2
vt -403.411 1.7053e-13
vt -344.356 1.7053e-13
f 20/61/4 19/62/4 24/63/4 23/64/4 

vt 78.7402 192.114
vt 78.7402 251.169
vt 1.7053e-13 251.169
vt 1.7053e-13 192.114
f 19/65/2 18/66/2 22/67/2 24/68/2 

vt 403.411 251.169
vt 344.356 251.169
vt 344.356 192.114
vt 403.411 192.114
f 22/69/1 21/70/1 23/71/1 24/72/1 

g Mesh4 Component_5_1 Model

v 14.96 10.95 4.33147e-15
vt -78.7402 438.976
v 14.96 0.05 -0
vt -78.7402 9.84252
v 14.96 0.05 2
vt -1.7053e-13 9.84252
v 14.96 10.95 2
vt 0 438.976
f 25/73/5 26/74/5 27/75/5 28/76/5 

v 15.2 11.2 4.33147e-15
vt -606.299 448.819
vn 0 3.82857e-16 -1
vt -596.85 9.84252
vt -596.85 438.976
f 29/77/7 26/78/7 25/79/7

v 15.2 -0.2 -0
vt -606.299 5.1856e-17
f 30/80/7 26/78/7 29/77/7

v 0.06 0.05 -0
vt -10.2362 9.84252
f 26/78/7 30/80/7 31/81/7

v -0.2 -0.2 -0
vt 0 5.1856e-17
f 32/82/7 31/81/7 30/80/7

v -0.2 11.2 4.33147e-15
vt 0 448.819
f 31/81/7 32/82/7 33/83/7

vt -78.7402 448.819
vt -78.7402 3.01981e-14
v -0.2 -0.2 2
vt -1.7053e-13 0
v -0.2 11.2 2
f 33/84/5 32/85/5 34/86/5 35/83/5 

vt 0 78.7402
vn 0 -1 -3.82857e-16
vt -606.299 78.7402
v 15.2 -0.2 2
vt -606.299 1.7053e-13
vt 0 1.7053e-13
f 32/87/8 30/88/8 36/89/8 34/90/8 

vt 78.7402 3.01981e-14
vt 78.7402 448.819
v 15.2 11.2 2
vt 1.7053e-13 0
f 30/91/2 29/92/2 37/83/2 36/93/2 

vt 606.299 78.7402
vn 0 1 3.82857e-16
vt 0 1.71833e-13
vt 606.299 1.71833e-13
f 29/94/9 33/87/9 35/95/9 37/96/9 

f 29/77/7 25/79/7 33/83/7

v 0.06 10.95 4.33147e-15
vt -10.2362 438.976
f 38/97/7 33/83/7 25/79/7

f 31/81/7 33/83/7 38/97/7

vt 78.7402 9.84252
vt 78.7402 438.976
v 0.06 10.95 2
v 0.06 0.05 2
vt 1.7053e-13 9.84252
f 31/98/2 38/99/2 39/76/2 40/100/2 

vt -10.2362 78.7402
vt -596.85 78.7402
vt -596.85 1.68065e-13
vt -10.2362 1.68065e-13
f 38/101/8 25/102/8 28/103/8 39/104/8 

vt 596.85 438.976
vn 0 -3.82857e-16 1
vt 606.299 448.819
vt 10.2362 438.976
f 28/105/10 37/106/10 39/107/10

vt 596.85 9.84252
f 27/108/10 37/106/10 28/105/10

vt 606.299 -6.52887e-29
f 27/108/10 36/109/10 37/106/10

vt 0 -6.52887e-29
f 36/109/10 27/108/10 34/110/10

vt 10.2362 9.84252
f 40/111/10 34/110/10 27/108/10

f 34/110/10 40/111/10 35/83/10

f 35/83/10 40/111/10 39/107/10

f 35/83/10 39/107/10 37/106/10

vt 596.85 78.7402
vt 10.2362 78.7402
vt 10.2362 1.74299e-13
vt 596.85 1.74299e-13
f 26/112/9 31/113/9 40/114/9 27/115/9 

g Mesh5 Component_5_1 Model

v 10.06 8.05 2
vt 403.937 324.803
v 8.56 8.05 2
vt 344.882 324.803
v 8.56 6.25 2
vt 344.882 253.937
v 10.06 6.25 2
vt 403.937 253.937
f 41/116/1 42/117/1 43/118/1 44/119/1 

v 10.06 8.05 -0
v 8.56 8.05 -0
f 45/33/6 46/34/6 42/35/6 41/36/6 

vt -344.882 324.803
vt -403.937 324.803
v 10.06 6.25 -0
vt -403.937 253.937
v 8.56 6.25 -0
vt -344.882 253.937
f 46/120/3 45/121/3 47/122/3 48/123/3 

vt 78.7402 253.937
vt 78.7402 324.803
vt 1.7053e-13 324.803
vt 1.7053e-13 253.937
f 47/124/2 45/125/2 41/126/2 44/127/2 

f 48/41/4 47/42/4 44/43/4 43/44/4 

vt -78.7402 324.803
vt -78.7402 253.937
vt -1.7053e-13 253.937
vt -1.7053e-13 324.803
f 46/128/5 48/129/5 43/130/5 42/131/5 

