# Alias OBJ Model File
# Exported from SketchUp, (c) 2000-2012 Trimble Navigation Limited
# File units = meters

mtllib iRobot_fat.mtl

g Mesh1 Component_3_1 Model

usemtl FrontColor
v -0.676148 0.181173 2
vt 0 32.4105
vn -0.965926 0.258819 -0
v -0.606218 0.35 2
vt 0 39.6048
vn -0.866025 0.5 -0
v -0.606218 0.35 -2
vt -157.48 39.6048
v -0.676148 0.181173 -2
vt -157.48 32.4105
f 1/1/1 2/2/2 3/3/2 4/4/1 

v 0.7 9.02389e-17 2
vt 55.1181 27.5591
vn 0 0 1
v 0.676148 0.181173 2
vt 54.1791 34.6919
v 0.606218 0.35 2
vt 51.4259 41.3386
v 0.494975 0.494975 2
vt 47.0462 47.0462
v 0.35 0.606218 2
vt 41.3386 51.4259
v 0.181173 0.676148 2
vt 34.6919 54.1791
v 0 0.7 2
vt 27.5591 55.1181
v -0.181173 0.676148 2
vt 20.4262 54.1791
v -0.35 0.606218 2
vt 13.7795 51.4259
v -0.494975 0.494975 2
vt 8.07186 47.0462
vt 3.69221 41.3386
vt 0.939052 34.6919
v -0.7 0 2
vt 0 27.5591
v -0.676148 -0.181173 2
vt 0.939052 20.4262
v -0.606218 -0.35 2
vt 3.69221 13.7795
v -0.494975 -0.494975 2
vt 8.07186 8.07186
v -0.35 -0.606218 2
vt 13.7795 3.69221
v -0.181173 -0.676148 2
vt 20.4262 0.939052
v 9.02389e-17 -0.7 2
vt 27.5591 0
v 0.181173 -0.676148 2
vt 34.6919 0.939052
v 0.35 -0.606218 2
vt 41.3386 3.69221
v 0.494975 -0.494975 2
vt 47.0462 8.07186
v 0.606218 -0.35 2
vt 51.4259 13.7795
v 0.676148 -0.181173 2
vt 54.1791 20.4262
f 5/5/3 6/6/3 7/7/3 8/8/3 9/9/3 10/10/3 11/11/3 12/12/3 13/13/3 14/14/3 2/15/3 1/16/3 15/17/3 16/18/3 17/19/3 18/20/3 19/21/3 20/22/3 21/23/3 22/24/3 23/25/3 24/26/3 25/27/3 26/28/3 

vt 0 27.3233
vn 0.965926 0.258819 -0
vt 0 20.1289
vn 1 3.91931e-16 -0
v 0.7 9.02389e-17 -2
vt 157.48 20.1289
v 0.676148 0.181173 -2
vt 157.48 27.3233
f 6/29/4 5/30/5 27/31/5 28/32/4 

vt 0 34.5176
vn 0.965926 -0.258819 -0
v 0.676148 -0.181173 -2
vt 157.48 34.5176
f 5/33/5 26/29/6 29/32/6 27/34/5 

vn 0.866025 -0.5 -0
v 0.606218 -0.35 -2
vt 157.48 32.4105
vt 157.48 39.6048
f 26/2/6 25/1/7 30/35/7 29/36/6 

vt 0 42.2381
vt 0 35.0438
vn 0.707107 -0.707107 -0
v 0.494975 -0.494975 -2
vt 157.48 35.0438
vt 157.48 42.2381
f 25/37/7 24/38/8 31/39/8 30/40/7 

vn 0.5 -0.866025 -0
v 0.35 -0.606218 -2
f 24/37/8 23/38/9 32/39/9 31/40/8 

vn 0.258819 -0.965926 -0
v 0.181173 -0.676148 -2
f 23/2/9 22/1/10 33/35/10 32/36/9 

vn 2.79951e-16 -1 -0
v 9.02389e-17 -0.7 -2
f 22/33/10 21/29/11 34/32/11 33/34/10 

vt 0 -27.3233
vt 0 -20.1289
vn -0.258819 -0.965926 -0
v -0.181173 -0.676148 -2
vt -157.48 -20.1289
vt -157.48 -27.3233
f 21/41/11 20/42/12 35/43/12 34/44/11 

vt 0 -18.512
vt 0 -11.3177
vn -0.5 -0.866025 -0
v -0.35 -0.606218 -2
vt -157.48 -11.3177
vt -157.48 -18.512
f 20/45/12 19/46/13 36/47/13 35/48/12 

vt 0 -8.68436
vt 0 -1.49
vn -0.707107 -0.707107 -0
v -0.494975 -0.494975 -2
vt -157.48 -1.49
vt -157.48 -8.68436
f 19/49/13 18/50/14 37/51/14 36/52/13 

vt 0 1.49
vt 0 8.68436
vn -0.866025 -0.5 -0
v -0.606218 -0.35 -2
vt -157.48 8.68436
vt -157.48 1.49
f 18/53/14 17/54/15 38/55/15 37/56/14 

vt 0 11.3177
vt 0 18.512
vn -0.965926 -0.258819 -0
v -0.676148 -0.181173 -2
vt -157.48 18.512
vt -157.48 11.3177
f 17/57/15 16/58/16 39/59/16 38/60/15 

vn -1 -5.59902e-17 -0
v -0.7 0 -2
vt -157.48 27.3233
vt -157.48 20.1289
f 16/30/16 15/29/17 40/61/17 39/62/16 

vt -157.48 34.5176
f 15/29/17 1/33/1 4/63/1 40/61/17 

vt -54.1791 34.6919
vn 0 0 -1
vt -55.1181 27.5591
vt -54.1791 20.4262
vt -51.4259 13.7795
vt -47.0462 8.07186
vt -41.3386 3.69221
vt -34.6919 0.939052
vt -27.5591 0
vt -20.4262 0.939052
vt -13.7795 3.69221
vt -8.07186 8.07186
vt -3.69221 13.7795
vt -0.939052 20.4262
vt -0.939052 34.6919
vt -3.69221 41.3386
v -0.494975 0.494975 -2
vt -8.07186 47.0462
v -0.35 0.606218 -2
vt -13.7795 51.4259
v -0.181173 0.676148 -2
vt -20.4262 54.1791
v 0 0.7 -2
vt -27.5591 55.1181
v 0.181173 0.676148 -2
vt -34.6919 54.1791
v 0.35 0.606218 -2
vt -41.3386 51.4259
v 0.494975 0.494975 -2
vt -47.0462 47.0462
v 0.606218 0.35 -2
vt -51.4259 41.3386
f 28/64/18 27/65/18 29/66/18 30/67/18 31/68/18 32/69/18 33/70/18 34/71/18 35/72/18 36/73/18 37/74/18 38/75/18 39/76/18 40/17/18 4/77/18 3/78/18 41/79/18 42/80/18 43/81/18 44/82/18 45/83/18 46/84/18 47/85/18 48/86/18 

vn -0.707107 0.707107 -0
vt -157.48 42.2381
vt -157.48 35.0438
f 2/38/2 14/37/19 41/87/19 3/88/2 

vn -0.5 0.866025 -0
f 14/38/19 13/37/20 42/87/20 41/88/19 

vn -0.258819 0.965926 -0
f 13/1/20 12/2/21 43/3/21 42/4/20 

vn -1.95966e-16 1 -0
f 12/29/21 11/33/22 44/63/22 43/61/21 

vn 0.258819 0.965926 -0
vt 157.48 -27.3233
vt 157.48 -20.1289
f 11/42/22 10/41/23 45/89/23 44/90/22 

vn 0.5 0.866025 -0
vt 157.48 -18.512
vt 157.48 -11.3177
f 10/46/23 9/45/24 46/91/24 45/92/23 

vn 0.707107 0.707107 -0
vt 157.48 -8.68436
vt 157.48 -1.49
f 9/50/24 8/49/25 47/93/25 46/94/24 

vn 0.866025 0.5 -0
vt 157.48 1.49
vt 157.48 8.68436
f 8/54/25 7/53/26 48/95/26 47/96/25 

vt 157.48 11.3177
vt 157.48 18.512
f 7/58/26 6/57/4 28/97/4 48/98/26 

