# Alias OBJ Model File
# Exported from SketchUp, (c) 2000-2012 Trimble Navigation Limited
# File units = meters

mtllib iRobot.mtl

g Mesh1 Model

usemtl FrontColor
v 0.230474 0.447581 3.50171
vt -137.863 -1.6397
vn 0.5 0.866025 3.39529e-16
v 0.230474 0.447581 -0.788289
vt 31.035 -1.6397
v 0.119531 0.493535 -0.788289
vt 31.035 3.08802
vn 0.258819 0.965926 3.786e-16
v 0.119531 0.493535 3.50171
vt -137.863 3.08802
f 1/1/1 2/2/1 3/3/2 4/4/2 

v 0.325743 0.374479 3.50171
vt -137.863 -1.19927
vn 0.707107 0.707107 2.74018e-16
v 0.325743 0.374479 -0.788289
vt 31.035 -1.19927
vt 31.035 3.52845
vt -137.863 3.52845
f 5/5/3 6/6/3 2/7/1 1/8/1 

v 0.398846 0.27921 3.50171
vt -137.863 -0.838196
vn 0.866025 0.5 1.89398e-16
v 0.398846 0.27921 -0.788289
vt 31.035 -0.838196
vt 31.035 3.88952
vt -137.863 3.88952
f 7/9/4 8/10/4 6/11/3 5/12/3 

v 0.4448 0.168266 3.50171
vt -137.863 -0.581096
vn 0.965926 0.258819 9.7401e-17
v 0.4448 0.168266 -0.788289
vt 31.035 -0.581096
vt 31.035 4.14662
vt -137.863 4.14662
f 9/13/5 10/14/5 8/15/4 7/16/4 

v 0.460474 0.0492096 3.50171
vt -137.863 -0.445488
vn 1 2.37958e-16 -7.04232e-20
v 0.460474 0.0492096 -0.788289
vt 31.035 -0.445488
vt 31.035 4.28223
vt -137.863 4.28223
f 11/17/6 12/18/6 10/19/5 9/20/5 

v 0.4448 -0.0698472 3.50171
vt -137.863 -0.440614
vn 0.965926 -0.258819 -9.74714e-17
v 0.4448 -0.0698472 -0.788289
vt 31.035 -0.440614
vt 31.035 4.28711
vt -137.863 4.28711
f 13/21/7 14/22/7 12/23/6 11/24/6 

v 0.398846 -0.18079 3.50171
vt -137.863 -0.566806
vn 0.866025 -0.5 -1.86114e-16
v 0.398846 -0.18079 -0.788289
vt 31.035 -0.566806
vt 31.035 4.16091
vt -137.863 4.16091
f 15/25/8 16/26/8 14/27/7 13/28/7 

v 0.325743 -0.27606 3.50171
vt -137.863 -0.815465
vn 0.707107 -0.707107 -2.61974e-16
v 0.325743 -0.27606 -0.788289
vt 31.035 -0.815465
vt 31.035 3.91226
vt -137.863 3.91226
f 17/29/9 18/30/9 16/31/8 15/32/8 

v 0.230474 -0.349162 3.50171
vt -137.863 -1.16964
vn 0.5 -0.866025 -3.25784e-16
v 0.230474 -0.349162 -0.788289
vt 31.035 -1.16964
vt 31.035 3.55808
vt -137.863 3.55808
f 19/33/10 20/34/10 18/35/9 17/36/9 

v 0.119531 -0.395116 3.50171
vt -137.863 -1.60521
vn 0.258819 -0.965926 -3.73634e-16
v 0.119531 -0.395116 -0.788289
vt 31.035 -1.60521
vt 31.035 3.12251
vt -137.863 3.12251
f 21/37/11 22/38/11 20/39/10 19/40/10 

v 0.000474222 -0.41079 3.50171
vt -137.863 -2.09247
vn -5.59902e-16 -1 -3.92362e-16
v 0.000474222 -0.41079 -0.788289
vt 31.035 -2.09247
vt 31.035 2.63525
vt -137.863 2.63525
f 23/41/12 24/42/12 22/43/11 21/44/11 

v -0.118583 -0.395116 3.50171
vt 137.863 2.59823
vn -0.258819 -0.965926 -3.73883e-16
v -0.118583 -0.395116 -0.788289
vt -31.035 2.59823
vt -31.035 -2.12949
vt 137.863 -2.12949
f 25/45/13 26/46/13 24/47/12 23/48/12 

v -0.229526 -0.349162 3.50171
vt 137.863 3.08802
vn -0.5 -0.866025 -3.26033e-16
v -0.229526 -0.349162 -0.788289
vt -31.035 3.08802
vt -31.035 -1.6397
vt 137.863 -1.6397
f 27/49/14 28/50/14 26/51/13 25/52/13 

v -0.324795 -0.27606 3.50171
vt 137.863 3.52845
vn -0.707107 -0.707107 -2.63616e-16
v -0.324795 -0.27606 -0.788289
vt -31.035 3.52845
vt -31.035 -1.19927
vt 137.863 -1.19927
f 29/53/15 30/54/15 28/55/14 27/56/14 

v -0.397897 -0.18079 3.50171
vt 137.863 3.88952
vn -0.866025 -0.5 -1.89038e-16
v -0.397897 -0.18079 -0.788289
vt -31.035 3.88952
vt -31.035 -0.838196
vt 137.863 -0.838196
f 31/57/16 32/58/16 30/59/15 29/60/15 

v -0.443852 -0.0698472 3.50171
vt 137.863 4.14662
vn -0.965926 -0.258819 -9.88903e-17
v -0.443852 -0.0698472 -0.788289
vt -31.035 4.14662
vt -31.035 -0.581096
vt 137.863 -0.581096
f 33/61/17 34/62/17 32/63/16 31/64/16 

v -0.459526 0.0492096 3.50171
vt 137.863 4.28223
vn -1 2.79951e-16 3.55854e-21
v -0.459526 0.0492096 -0.788289
vt -31.035 4.28223
vt -31.035 -0.445488
vt 137.863 -0.445488
f 35/65/18 36/66/18 34/67/17 33/68/17 

v -0.443852 0.168266 3.50171
vt 137.863 4.28711
vn -0.965926 0.258819 9.76123e-17
v -0.443852 0.168266 -0.788289
vt -31.035 4.28711
vt -31.035 -0.440614
vt 137.863 -0.440614
f 37/69/19 38/70/19 36/71/18 35/72/18 

v -0.397897 0.27921 3.50171
vt 137.863 4.16091
vn -0.866025 0.5 1.89398e-16
v -0.397897 0.27921 -0.788289
vt -31.035 4.16091
vt -31.035 -0.566806
vt 137.863 -0.566806
f 39/73/20 40/74/20 38/75/19 37/76/19 

v -0.324795 0.374479 3.50171
vt 137.863 3.91226
vn -0.707107 0.707107 2.74018e-16
v -0.324795 0.374479 -0.788289
vt -31.035 3.91226
vt -31.035 -0.815465
vt 137.863 -0.815465
f 41/77/21 42/78/21 40/79/20 39/80/20 

v -0.229526 0.447581 3.50171
vt 137.863 3.55808
vn -0.5 0.866025 3.39735e-16
v -0.229526 0.447581 -0.788289
vt -31.035 3.55808
vt -31.035 -1.16964
vt 137.863 -1.16964
f 43/81/22 44/82/22 42/83/21 41/84/21 

v -0.118583 0.493535 3.50171
vt 137.863 3.12251
vn -0.258819 0.965926 3.78792e-16
v -0.118583 0.493535 -0.788289
vt -31.035 3.12251
vt -31.035 -1.60521
vt 137.863 -1.60521
f 45/85/23 46/86/23 44/87/22 43/88/22 

v -0.0907387 0.497201 3.50171
vt 137.863 -0.986797
vn -0.130526 0.991445 3.88939e-16
v -0.0907387 0.497201 -0.788289
vt -31.035 -0.986797
vt -31.035 -2.09247
vt 137.863 -2.09247
f 47/89/24 48/90/24 46/91/23 45/92/23 

v -0.0907387 0.313201 3.50171
vt -137.863 12.3308
vn 1 0 -0
v -0.0907387 0.313201 -0.788289
vt 31.035 12.3308
vt 31.035 19.5748
vt -137.863 19.5748
f 49/93/25 50/94/25 48/95/25 47/96/25 

v 0.0932613 0.313201 3.50171
vt 3.6717 -137.863
vn 0 1 3.92343e-16
v 0.0932613 0.313201 -0.788289
vt 3.6717 31.035
vt -3.57239 31.035
vt -3.57239 -137.863
f 51/97/26 52/98/26 50/99/26 49/100/26 

v 0.0932613 0.496994 3.50171
vt 137.863 19.5667
vn -1 0 -0
v 0.0932613 0.496994 0.281711
vt 11.091 19.5667
v 0.0932613 0.496994 -0.788289
vt -31.035 19.5667
vt -31.035 12.3308
vt 137.863 12.3308
f 53/101/27 54/102/27 55/103/27 52/104/27 51/105/27 

vt -137.863 -2.12949
vt 31.035 -2.12949
vt 31.035 -1.08633
vn 0.130526 0.991445 3.88968e-16
vt -11.091 -1.08633
vt -137.863 -1.08633
f 4/106/2 3/107/2 55/108/28 54/109/28 53/110/28 

vt -9.07379 17.6213
vn 3.2311e-20 3.52088e-16 -1
vt -3.6717 19.5667
vt -4.70594 19.4305
f 2/111/29 55/112/29 3/113/29

vt -12.8245 14.7433
f 6/114/29 55/112/29 2/111/29

vt -3.6717 12.3308
f 6/114/29 52/115/29 55/112/29

vt -15.7026 10.9925
f 8/116/29 52/115/29 6/114/29

vt 15.6653 10.9925
f 8/116/29 40/117/29 52/115/29

vt 17.4745 6.62466
f 8/116/29 38/118/29 40/117/29

vt -17.5118 6.62466
f 10/119/29 38/118/29 8/116/29

vt 18.0916 1.93738
f 10/119/29 36/120/29 38/118/29

vt -18.1289 1.93738
f 12/121/29 36/120/29 10/119/29

v -0.00487526 0.0185199 -0.788289
vt 0.19194 0.729129
f 56/122/29 36/120/29 12/121/29

v -0.00954766 0.0174059 -0.788289
vt 0.375892 0.68527
f 57/123/29 36/120/29 56/122/29

v -0.0137725 0.0151205 -0.788289
vt 0.542225 0.595295
f 58/124/29 36/120/29 57/123/29

v -0.0172619 0.0118195 -0.788289
vt 0.679603 0.465335
f 59/125/29 36/120/29 58/124/29

v -0.0197781 0.0077279 -0.788289
vt 0.778663 0.304248
f 60/126/29 36/120/29 59/125/29

v -0.0211495 0.00312448 -0.788289
vt 0.832656 0.123011
f 61/127/29 36/120/29 60/126/29

v -0.0212827 -0.00167704 -0.788289
vt 0.837902 -0.0660252
f 62/128/29 36/120/29 61/127/29

v -0.0201687 -0.00634943 -0.788289
vt 0.794043 -0.249978
f 63/129/29 36/120/29 62/128/29

v -0.0178833 -0.0105743 -0.788289
vt 0.704067 -0.41631
f 64/130/29 36/120/29 63/129/29

v -0.0145823 -0.0140637 -0.788289
vt 0.574108 -0.553688
f 65/131/29 36/120/29 64/130/29

v -0.0104907 -0.0165798 -0.788289
vt 0.413021 -0.652749
f 66/132/29 36/120/29 65/131/29

v -0.0058873 -0.0179512 -0.788289
vt 0.231783 -0.706742
f 67/133/29 36/120/29 66/132/29

vt 17.4745 -2.74989
f 67/133/29 34/134/29 36/120/29

v -0.00108578 -0.0180845 -0.788289
vt 0.0427474 -0.711988
f 34/134/29 67/133/29 68/135/29

v -0.0058873 -0.0179512 -0.638289
vt 25.1295 0.21209
vn 0.157977 0.987443 3.47672e-16
v -0.00108578 -0.0180845 -0.638289
vt 25.1295 0.0229817
vn -0.102975 0.994684 3.50213e-16
vt 31.035 0.0229817
vt 31.035 0.21209
f 69/136/30 70/137/31 68/138/31 67/139/30 

v 0.0113009 -0.0113841 -0.638289
vt -0.444916 -0.448194
vn 0 0 -1
v 0.00781146 -0.0146851 -0.638289
vt -0.307538 -0.578153
v 0.00358661 -0.0169705 -0.638289
vt -0.141205 -0.668128
v -0.0104907 -0.0165798 -0.638289
v -0.0145823 -0.0140637 -0.638289
v -0.0178833 -0.0105743 -0.638289
v -0.0201687 -0.00634943 -0.638289
v -0.0212827 -0.00167704 -0.638289
v -0.0211495 0.00312448 -0.638289
v -0.0197781 0.0077279 -0.638289
v -0.0172619 0.0118195 -0.638289
v -0.0137725 0.0151205 -0.638289
v -0.00954766 0.0174059 -0.638289
v -0.00487526 0.0185199 -0.638289
v -7.37479e-05 0.0183866 -0.638289
vt 0.00290346 0.723884
v 0.00452968 0.0170152 -0.638289
vt -0.178334 0.669891
v 0.00862129 0.0144991 -0.638289
vt -0.339421 0.57083
v 0.0119223 0.0110097 -0.638289
vt -0.46938 0.433452
v 0.0142076 0.00678483 -0.638289
vt -0.559356 0.267119
v 0.0153217 0.00211244 -0.638289
vt -0.603215 0.0831669
v 0.0151884 -0.00268908 -0.638289
vt -0.597969 -0.105869
v 0.013817 -0.0072925 -0.638289
vt -0.543976 -0.287106
f 71/140/32 72/141/32 73/142/32 70/135/32 69/133/32 74/132/32 75/131/32 76/130/32 77/129/32 78/128/32 79/127/32 80/126/32 81/125/32 82/124/32 83/123/32 84/122/32 85/143/32 86/144/32 87/145/32 88/146/32 89/147/32 90/148/32 91/149/32 92/150/32 

vt -25.1295 -0.173908
vn -0.586521 0.809934 2.85149e-16
vt -25.1295 0.0152005
vn -0.776162 0.630533 2.21978e-16
v 0.0113009 -0.0113841 -0.788289
vt -31.035 0.0152005
v 0.00781146 -0.0146851 -0.788289
vt -31.035 -0.173908
f 72/151/33 71/152/34 93/153/34 94/154/33 

vt -25.1295 -0.148722
vt -25.1295 0.0403873
vn -0.912909 0.408163 1.4368e-16
v 0.013817 -0.0072925 -0.788289
vt -31.035 0.0403873
vt -31.035 -0.148722
f 71/155/34 92/156/35 95/157/35 93/158/34 

vt -25.1295 -0.119843
vt -25.1295 0.0692655
vn -0.987443 0.157977 5.55899e-17
v 0.0151884 -0.00268908 -0.788289
vt -31.035 0.0692655
vt -31.035 -0.119843
f 92/159/35 91/160/36 96/161/36 95/162/35 

vt -25.1295 -0.0892417
vt -25.1295 0.0998671
vn -0.994684 -0.102975 -3.62884e-17
v 0.0153217 0.00211244 -0.788289
vt -31.035 0.0998671
vt -31.035 -0.0892417
f 91/163/36 90/164/37 97/165/37 96/166/36 

vt -25.1295 -0.0590022
vt -25.1295 0.130107
vn -0.934139 -0.356909 -1.25694e-16
v 0.0142076 0.00678483 -0.788289
vt -31.035 0.130107
vt -31.035 -0.0590022
f 90/167/37 89/168/38 98/169/38 97/170/37 

vt -25.1295 -0.0311855
vt -25.1295 0.157923
vn -0.809934 -0.586521 -2.06533e-16
v 0.0119223 0.0110097 -0.788289
vt -31.035 0.157923
vt -31.035 -0.0311855
f 89/171/38 88/172/39 99/173/39 98/174/38 

vt -25.1295 -0.00768723
vt -25.1295 0.181422
vn -0.630533 -0.776162 -2.73298e-16
v 0.00862129 0.0144991 -0.788289
vt -31.035 0.181422
vt -31.035 -0.00768723
f 88/175/39 87/176/40 100/177/40 99/178/39 

vt -25.1295 0.00989114
vt -25.1295 0.199
vn -0.408163 -0.912909 -3.21437e-16
v 0.00452968 0.0170152 -0.788289
vt -31.035 0.199
vt -31.035 0.00989114
f 87/179/40 86/180/41 101/181/41 100/182/40 

vt -25.1295 0.0203517
vt -25.1295 0.209461
vn -0.157977 -0.987443 -3.47672e-16
v -7.37479e-05 0.0183866 -0.788289
vt -31.035 0.209461
vt -31.035 0.0203517
f 86/183/41 85/184/42 102/185/42 101/186/41 

vt -25.1295 0.0229817
vt -25.1295 0.21209
vn 0.102975 -0.994684 -3.50213e-16
vt -31.035 0.21209
vt -31.035 0.0229817
f 85/187/42 84/188/43 56/189/43 102/190/42 

vt 25.1295 -0.0176017
vt 25.1295 -0.206711
vn 0.356909 -0.934139 -3.28887e-16
vt 31.035 -0.206711
vt 31.035 -0.0176017
f 84/191/43 83/192/44 57/193/44 56/194/43 

vt 25.1295 -0.00457847
vt 25.1295 -0.193687
vn 0.586521 -0.809934 -2.85149e-16
vt 31.035 -0.193687
vt 31.035 -0.00457847
f 83/195/44 82/196/45 58/197/45 57/198/44 

vt 25.1295 0.0152005
vt 25.1295 -0.173908
vn 0.776162 -0.630533 -2.21978e-16
vt 31.035 -0.173908
vt 31.035 0.0152005
f 82/199/45 81/200/46 59/201/46 58/202/45 

vt 25.1295 0.0403873
vt 25.1295 -0.148722
vn 0.912909 -0.408163 -1.4368e-16
vt 31.035 -0.148722
vt 31.035 0.0403873
f 81/203/46 80/204/47 60/205/47 59/206/46 

vt 25.1295 0.0692655
vt 25.1295 -0.119843
vn 0.987443 -0.157977 -5.55899e-17
vt 31.035 -0.119843
vt 31.035 0.0692655
f 80/207/47 79/208/48 61/209/48 60/210/47 

vt 25.1295 0.0998671
vt 25.1295 -0.0892417
vn 0.994684 0.102975 3.62884e-17
vt 31.035 -0.0892417
vt 31.035 0.0998671
f 79/211/48 78/212/49 62/213/49 61/214/48 

vt 25.1295 0.130107
vt 25.1295 -0.0590022
vn 0.934139 0.356909 1.25694e-16
vt 31.035 -0.0590022
vt 31.035 0.130107
f 78/215/49 77/216/50 63/217/50 62/218/49 

vt 25.1295 0.157923
vt 25.1295 -0.0311855
vn 0.809934 0.586521 2.06533e-16
vt 31.035 -0.0311855
vt 31.035 0.157923
f 77/219/50 76/220/51 64/221/51 63/222/50 

vt 25.1295 0.181422
vt 25.1295 -0.00768723
vn 0.630533 0.776162 2.73298e-16
vt 31.035 -0.00768723
vt 31.035 0.181422
f 76/223/51 75/224/52 65/225/52 64/226/51 

vt 25.1295 0.199
vt 25.1295 0.00989114
vn 0.408163 0.912909 3.21437e-16
vt 31.035 0.00989114
vt 31.035 0.199
f 75/227/52 74/228/53 66/229/53 65/230/52 

vt 25.1295 0.209461
vt 25.1295 0.0203517
vt 31.035 0.0203517
vt 31.035 0.209461
f 74/231/53 69/232/30 67/233/30 66/234/53 

f 12/121/29 102/143/29 56/122/29

f 12/121/29 101/144/29 102/143/29

f 12/121/29 100/145/29 101/144/29

f 12/121/29 99/146/29 100/145/29

f 12/121/29 98/147/29 99/146/29

f 12/121/29 97/148/29 98/147/29

f 12/121/29 96/149/29 97/148/29

f 12/121/29 95/150/29 96/149/29

f 12/121/29 93/140/29 95/150/29

f 12/121/29 94/141/29 93/140/29

v 0.00358661 -0.0169705 -0.788289
f 12/121/29 103/142/29 94/141/29

f 12/121/29 68/135/29 103/142/29

vt -17.5118 -2.74989
f 14/235/29 68/135/29 12/121/29

f 14/235/29 34/134/29 68/135/29

vt 15.6653 -7.11773
f 14/235/29 32/236/29 34/134/29

vt -15.7026 -7.11773
f 16/237/29 32/236/29 14/235/29

vt 12.7872 -10.8685
f 16/237/29 30/238/29 32/236/29

vt -12.8245 -10.8685
f 18/239/29 30/238/29 16/237/29

vt 9.03645 -13.7465
f 18/239/29 28/240/29 30/238/29

vt -9.07379 -13.7465
f 20/241/29 28/240/29 18/239/29

vt 4.6686 -15.5558
f 20/241/29 26/242/29 28/240/29

vt -4.70594 -15.5558
f 22/243/29 26/242/29 20/241/29

vt -0.0186702 -16.1729
f 26/242/29 22/243/29 24/244/29

vt -25.1295 -0.206711
vt -25.1295 -0.0176017
vn -0.356909 0.934139 3.28887e-16
vt -31.035 -0.0176017
vt -31.035 -0.206711
f 70/245/31 73/246/54 103/247/54 68/248/31 

vt -25.1295 -0.193687
vt -25.1295 -0.00457847
vt -31.035 -0.00457847
vt -31.035 -0.193687
f 73/249/54 72/250/33 94/251/33 103/252/54 

vt 3.57239 12.3308
f 52/115/29 40/117/29 50/253/29

vt 12.7872 14.7433
f 42/254/29 50/253/29 40/117/29

vt 3.57239 19.5748
f 50/253/29 42/254/29 48/255/29

vt 9.03645 17.6213
f 48/255/29 42/254/29 44/256/29

vt 4.6686 19.4305
f 48/255/29 44/256/29 46/257/29

vt -3.57239 19.5748
vn 6.40109e-20 -5.92009e-16 1
vt -4.6686 19.4305
vt -9.03645 17.6213
vt -12.7872 14.7433
vt -15.6653 10.9925
vt -17.4745 6.62466
vt -18.0916 1.93738
vt -17.4745 -2.74989
vt -15.6653 -7.11773
vt -12.7872 -10.8685
vt -9.03645 -13.7465
vt -4.6686 -15.5558
vt 0.0186702 -16.1729
vt 4.70594 -15.5558
vt 9.07379 -13.7465
vt 12.8245 -10.8685
vt 15.7026 -7.11773
vt 17.5118 -2.74989
vt 18.1289 1.93738
vt 17.5118 6.62466
vt 15.7026 10.9925
vt 12.8245 14.7433
vt 9.07379 17.6213
vt 4.70594 19.4305
vt 3.6717 19.5667
vt 3.6717 12.3308
vt -3.57239 12.3308
f 47/258/55 45/259/55 43/260/55 41/261/55 39/262/55 37/263/55 35/264/55 33/265/55 31/266/55 29/267/55 27/268/55 25/269/55 23/270/55 21/271/55 19/272/55 17/273/55 15/274/55 13/275/55 11/276/55 9/277/55 7/278/55 5/279/55 1/280/55 4/281/55 53/282/55 51/283/55 49/284/55 

g Mesh2 Model

v 0.0916871 0.497201 0.281711
vt -3.60973 19.5748
v 0.0932613 0.497201 0.281711
vt -3.6717 19.5748
f 104/285/32 105/286/32 54/112/32

