# Alias OBJ Model File
# Exported from SketchUp, (c) 2000-2012 Trimble Navigation Limited
# File units = meters

mtllib iRobot_fat.mtl

g Mesh1 Component_2_1 Model

usemtl FrontColor
v 0.989949 -0.989949 2
vt -17.3687 0
vn 0.707107 -0.707107 2.94392e-16
v 0.7 -1.21244 2
vt -2.98 0
vn 0.5 -0.866025 3.60556e-16
v 0.7 -1.21244 -2
vt -2.98 157.48
v 0.989949 -0.989949 -2
vt -17.3687 157.48
f 1/1/1 2/2/2 3/3/2 4/4/1 

v -1.21244 0.7 2
vt -7.38443 27.5591
vn 0 4.16334e-16 1
v -1.3523 0.362347 2
vt -1.8781 40.8525
v -1.4 1.80478e-16 2
vt 0 55.1181
v -1.3523 -0.362347 2
vt -1.8781 69.3837
v -1.21244 -0.7 2
vt -7.38443 82.6772
v -0.989949 -0.989949 2
vt -16.1437 94.0925
v -0.7 -1.21244 2
vt -27.5591 102.852
v -0.362347 -1.3523 2
vt -40.8525 108.358
v 1.80478e-16 -1.4 2
vt -55.1181 110.236
v 0.362347 -1.3523 2
vt -69.3837 108.358
vt -82.6772 102.852
vt -94.0925 94.0925
v 1.21244 -0.7 2
vt -102.852 82.6772
v 1.3523 -0.362347 2
vt -108.358 69.3837
v 1.4 3.60956e-16 2
vt -110.236 55.1181
v 1.3523 0.362347 2
vt -108.358 40.8525
v 1.21244 0.7 2
vt -102.852 27.5591
v 0.989949 0.989949 2
vt -94.0925 16.1437
v 0.7 1.21244 2
vt -82.6772 7.38443
v 0.362347 1.3523 2
vt -69.3837 1.8781
v 0 1.4 2
vt -55.1181 0
v -0.362347 1.3523 2
vt -40.8525 1.8781
v -0.7 1.21244 2
vt -27.5591 7.38443
v -0.989949 0.989949 2
vt -16.1437 16.1437
f 5/5/3 6/6/3 7/7/3 8/8/3 9/9/3 10/10/3 11/11/3 12/12/3 13/13/3 14/14/3 2/15/3 1/16/3 15/17/3 16/18/3 17/19/3 18/20/3 19/21/3 20/22/3 21/23/3 22/24/3 23/25/3 24/26/3 25/27/3 26/28/3 

vt -37.0241 0
vn -0.965926 0.258819 -1.07755e-16
vt -22.6353 0
vn -0.866025 0.5 -2.08167e-16
v -1.21244 0.7 -2
vt -22.6353 157.48
v -1.3523 0.362347 -2
vt -37.0241 157.48
f 6/29/4 5/30/5 27/31/5 28/32/4 

vn -0.707107 0.707107 -2.94392e-16
v -0.989949 0.989949 -2
f 5/1/5 26/2/6 29/3/6 27/4/5 

vt 2.98 0
vt 17.3687 0
vn -0.5 0.866025 -3.60556e-16
v -0.7 1.21244 -2
vt 17.3687 157.48
vt 2.98 157.48
f 26/33/6 25/34/7 30/35/7 29/36/6 

vt 22.6353 0
vt 37.0241 0
vn -0.258819 0.965926 -4.02147e-16
v -0.362347 1.3523 -2
vt 37.0241 157.48
vt 22.6353 157.48
f 25/37/7 24/38/8 31/39/8 30/40/7 

vt 40.2579 0
vt 54.6466 0
vn -1.95966e-16 1 -4.16334e-16
v 0 1.4 -2
vt 54.6466 157.48
vt 40.2579 157.48
f 24/41/8 23/42/9 32/43/9 31/44/8 

vt 69.0353 0
vn 0.258819 0.965926 -4.02147e-16
v 0.362347 1.3523 -2
vt 69.0353 157.48
f 23/42/9 22/45/10 33/46/10 32/43/9 

vt 64.8209 0
vt 79.2096 0
vn 0.5 0.866025 -3.60556e-16
v 0.7 1.21244 -2
vt 79.2096 157.48
vt 64.8209 157.48
f 22/47/10 21/48/11 34/49/11 33/50/10 

vt 70.0876 0
vt 84.4763 0
vn 0.707107 0.707107 -2.94392e-16
v 0.989949 0.989949 -2
vt 84.4763 157.48
vt 70.0876 157.48
f 21/51/11 20/52/12 35/53/12 34/54/11 

vn 0.866025 0.5 -2.08167e-16
v 1.21244 0.7 -2
f 20/51/12 19/52/13 36/53/13 35/54/12 

vn 0.965926 0.258819 -1.07755e-16
v 1.3523 0.362347 -2
f 19/47/13 18/48/14 37/49/14 36/50/13 

vn 1 3.91931e-16 -1.63174e-31
v 1.4 -1.26334e-15 -2
f 18/42/14 17/45/15 38/46/15 37/43/14 

vn 0.965926 -0.258819 1.07755e-16
v 1.3523 -0.362347 -2
f 17/41/15 16/42/16 39/43/16 38/44/15 

vn 0.866025 -0.5 2.08167e-16
v 1.21244 -0.7 -2
f 16/37/16 15/38/17 40/39/17 39/40/16 

f 15/33/17 1/34/1 4/35/1 40/36/17 

vt 1.8781 40.8525
vn 0 -4.16334e-16 -1
vt 7.38443 27.5591
vt 16.1437 16.1437
vt 27.5591 7.38443
vt 40.8525 1.8781
vt 55.1181 0
vt 69.3837 1.8781
vt 82.6772 7.38443
vt 94.0925 16.1437
vt 102.852 27.5591
vt 108.358 40.8525
vt 110.236 55.1181
vt 108.358 69.3837
vt 102.852 82.6772
vt 94.0925 94.0925
vt 82.6772 102.852
v 0.362347 -1.3523 -2
vt 69.3837 108.358
v 1.80478e-16 -1.4 -2
vt 55.1181 110.236
v -0.362347 -1.3523 -2
vt 40.8525 108.358
v -0.7 -1.21244 -2
vt 27.5591 102.852
v -0.989949 -0.989949 -2
vt 16.1437 94.0925
v -1.21244 -0.7 -2
vt 7.38443 82.6772
v -1.3523 -0.362347 -2
vt 1.8781 69.3837
v -1.4 -1.44382e-15 -2
f 28/55/18 27/56/18 29/57/18 30/58/18 31/59/18 32/60/18 33/61/18 34/62/18 35/63/18 36/64/18 37/65/18 38/66/18 39/67/18 40/68/18 4/69/18 3/70/18 41/71/18 42/72/18 43/73/18 44/74/18 45/75/18 46/76/18 47/77/18 48/7/18 

vn 0.258819 -0.965926 4.02147e-16
f 2/29/2 14/30/19 41/31/19 3/32/2 

vt -54.6466 0
vt -40.2579 0
vn 2.93948e-16 -1 4.16334e-16
vt -40.2579 157.48
vt -54.6466 157.48
f 14/78/19 13/79/20 42/80/20 41/81/19 

vt -69.0353 0
vn -0.258819 -0.965926 4.02147e-16
vt -69.0353 157.48
f 13/82/20 12/78/21 43/81/21 42/83/20 

vt -79.2096 0
vt -64.8209 0
vn -0.5 -0.866025 3.60556e-16
vt -64.8209 157.48
vt -79.2096 157.48
f 12/84/21 11/85/22 44/86/22 43/87/21 

vt -84.4763 0
vt -70.0876 0
vn -0.707107 -0.707107 2.94392e-16
vt -70.0876 157.48
vt -84.4763 157.48
f 11/88/22 10/89/23 45/90/23 44/91/22 

vn -0.866025 -0.5 2.08167e-16
f 10/88/23 9/89/24 46/90/24 45/91/23 

vn -0.965926 -0.258819 1.07755e-16
f 9/84/24 8/85/25 47/86/25 46/87/24 

vn -1 -5.59902e-17 2.33106e-32
f 8/82/25 7/78/26 48/81/26 47/83/25 

f 7/78/26 6/79/4 28/80/4 48/81/26 

