# Alias OBJ Model File
# Exported from SketchUp, (c) 2000-2012 Trimble Navigation Limited
# File units = meters

mtllib iRobot_thin.mtl

g Mesh1 Mesh1 iRobot_thin_obj Model

usemtl FrontColor
v 0.189074 0.374793 3.11561
vt -137.863 -1.63971
vn 0.382683 0.92388 -0
v 0.189074 0.374793 -0.402189
vt 31.035 -1.63971
v 0.0981007 0.412476 -0.402189
vt 31.035 3.08799
v 0.0981007 0.412476 3.11561
vt -137.863 3.08799
f 1/1/1 2/2/1 3/3/1 4/4/1 

v 0.267195 0.31485 3.11561
vt -137.863 -1.19931
vn 0.608759 0.793355 -0
v 0.267195 0.31485 -0.402189
vt 31.035 -1.19931
vt 31.035 3.52839
vt -137.863 3.52839
f 5/5/2 6/6/2 2/7/2 1/8/2 

v 0.327139 0.236729 3.11561
vt -137.863 -0.83825
vn 0.793351 0.608764 -0
v 0.327139 0.236729 -0.402189
vt 31.035 -0.83825
vt 31.035 3.88948
vt -137.863 3.88948
f 7/9/3 8/10/3 6/11/3 5/12/3 

v 0.364821 0.145755 3.11561
vt -137.863 -0.581032
vn 0.923881 0.38268 -0
v 0.364821 0.145755 -0.402189
vt 31.035 -0.581032
vt 31.035 4.14671
vt -137.863 4.14671
f 9/13/4 10/14/4 8/15/4 7/16/4 

v 0.377674 0.0481289 3.11561
vt -137.863 -0.445474
vn 0.991445 0.130526 -0
v 0.377674 0.0481289 -0.402189
vt 31.035 -0.445474
vt 31.035 4.28223
vt -137.863 4.28223
f 11/17/5 12/18/5 10/19/5 9/20/5 

v 0.364821 -0.0494977 3.11561
vt -137.863 -0.440632
vn 0.991445 -0.130525 -0
v 0.364821 -0.0494977 -0.402189
vt 31.035 -0.440632
vt 31.035 4.28709
vt -137.863 4.28709
f 13/21/6 14/22/6 12/23/6 11/24/6 

v 0.327139 -0.140471 3.11561
vt -137.863 -0.56679
vn 0.92388 -0.382683 -0
v 0.327139 -0.140471 -0.402189
vt 31.035 -0.56679
vt 31.035 4.16091
vt -137.863 4.16091
f 15/25/7 16/26/7 14/27/7 13/28/7 

v 0.267195 -0.218592 3.11561
vt -137.863 -0.815513
vn 0.793354 -0.60876 -0
v 0.267195 -0.218592 -0.402189
vt 31.035 -0.815513
vt 31.035 3.91225
vt -137.863 3.91225
f 17/29/8 18/30/8 16/31/8 15/32/8 

v 0.189074 -0.278536 3.11561
vt -137.863 -1.1696
vn 0.608759 -0.793355 -0
v 0.189074 -0.278536 -0.402189
vt 31.035 -1.1696
vt 31.035 3.55811
vt -137.863 3.55811
f 19/33/9 20/34/9 18/35/9 17/36/9 

v 0.0981007 -0.316218 3.11561
vt -137.863 -1.60519
vn 0.382683 -0.92388 -0
v 0.0981007 -0.316218 -0.402189
vt 31.035 -1.60519
vt 31.035 3.12252
vt -137.863 3.12252
f 21/37/10 22/38/10 20/39/10 19/40/10 

v 0.000474182 -0.329071 3.11561
vt -137.863 -2.09245
vn 0.130525 -0.991445 -0
v 0.000474182 -0.329071 -0.402189
vt 31.035 -2.09245
vt 31.035 2.63527
vt -137.863 2.63527
f 23/41/11 24/42/11 22/43/11 21/44/11 

v -0.0971527 -0.316218 3.11561
vt 137.863 2.59827
vn -0.130525 -0.991445 -0
v -0.0971527 -0.316218 -0.402189
vt -31.035 2.59827
vt -31.035 -2.12947
vt 137.863 -2.12947
f 25/45/12 26/46/12 24/47/12 23/48/12 

v -0.188126 -0.278536 3.11561
vt 137.863 3.08804
vn -0.382683 -0.92388 -0
v -0.188126 -0.278536 -0.402189
vt -31.035 3.08804
vt -31.035 -1.63967
vt 137.863 -1.63967
f 27/49/13 28/50/13 26/51/13 25/52/13 

v -0.266247 -0.218592 3.11561
vt 137.863 3.5285
vn -0.608759 -0.793355 -0
v -0.266247 -0.218592 -0.402189
vt -31.035 3.5285
vt -31.035 -1.19921
vt 137.863 -1.19921
f 29/53/14 30/54/14 28/55/14 27/56/14 

v -0.32619 -0.140471 3.11561
vt 137.863 3.88939
vn -0.793358 -0.608755 -0
v -0.32619 -0.140471 -0.402189
vt -31.035 3.88939
vt -31.035 -0.838344
vt 137.863 -0.838344
f 31/57/15 32/58/15 30/59/15 29/60/15 

v -0.363873 -0.0494977 3.11561
vt 137.863 4.14676
vn -0.923877 -0.38269 -0
v -0.363873 -0.0494977 -0.402189
vt -31.035 4.14676
vt -31.035 -0.580956
vt 137.863 -0.580956
f 33/61/16 34/62/16 32/63/16 31/64/16 

v -0.376726 0.0481289 3.11561
vt 137.863 4.28222
vn -0.991445 -0.130525 -0
v -0.376726 0.0481289 -0.402189
vt -31.035 4.28222
vt -31.035 -0.445504
vt 137.863 -0.445504
f 35/65/17 36/66/17 34/67/17 33/68/17 

v -0.363873 0.145755 3.11561
vt 137.863 4.2871
vn -0.991445 0.130526 -0
v -0.363873 0.145755 -0.402189
vt -31.035 4.2871
vt -31.035 -0.440602
vt 137.863 -0.440602
f 37/69/18 38/70/18 36/71/18 35/72/18 

v -0.32619 0.236729 3.11561
vt 137.863 4.16087
vn -0.923878 0.382687 -0
v -0.32619 0.236729 -0.402189
vt -31.035 4.16087
vt -31.035 -0.566893
vt 137.863 -0.566893
f 39/73/19 40/74/19 38/75/19 37/76/19 

v -0.266247 0.31485 3.11561
vt 137.863 3.91232
vn -0.793355 0.608759 -0
v -0.266247 0.31485 -0.402189
vt -31.035 3.91232
vt -31.035 -0.815379
vt 137.863 -0.815379
f 41/77/20 42/78/20 40/79/20 39/80/20 

v -0.188126 0.374793 3.11561
vt 137.863 3.558
vn -0.608759 0.793355 -0
v -0.188126 0.374793 -0.402189
vt -31.035 3.558
vt -31.035 -1.1697
vt 137.863 -1.1697
f 43/81/21 44/82/21 42/83/21 41/84/21 

v -0.0971527 0.412476 3.11561
vt 137.863 3.12248
vn -0.382683 0.92388 -0
v -0.0971527 0.412476 -0.402189
vt -31.035 3.12248
vt -31.035 -1.60523
vt 137.863 -1.60523
f 45/85/22 46/86/22 44/87/22 43/88/22 

v -0.0743204 0.415482 3.11561
vt 137.863 -0.986638
vn -0.130534 0.991444 -0
v -0.0743204 0.415482 -0.402189
vt -31.035 -0.986638
vt -31.035 -2.09233
vt 137.863 -2.09233
f 47/89/23 48/90/23 46/91/23 45/92/23 

v -0.0743204 0.264602 3.11561
vt -137.863 12.3307
vn 1 0 -0
v -0.0743204 0.264602 -0.402189
vt 31.035 12.3307
vt 31.035 19.5748
vt -137.863 19.5748
f 49/93/24 50/94/24 48/95/24 47/96/24 

v 0.0765596 0.264602 3.11561
vt 3.6717 -137.863
vn 0 1 -0
v 0.0765596 0.264602 -0.402189
vt 3.6717 31.035
vt -3.57239 31.035
vt -3.57239 -137.863
f 51/97/25 52/98/25 50/99/25 49/100/25 

v 0.0765596 0.415312 3.11561
vt 137.863 19.5667
vn -1 0 -0
v 0.0765596 0.415312 0.475211
vt 11.091 19.5667
v 0.0765596 0.415312 -0.402189
vt -31.035 19.5667
vt -31.035 12.3307
vt 137.863 12.3307
f 53/101/26 54/102/26 55/103/26 52/104/26 51/105/26 

vt -137.863 -2.1291
vn 0.130546 0.991442 3.46241e-20
vt 31.035 -2.1291
vt 31.035 -1.08593
vt -11.091 -1.08593
vt -137.863 -1.08593
f 4/106/27 3/107/27 55/108/27 54/109/27 53/110/27 

vt -9.07378 17.6213
vn 0 0 -1
vt -3.6717 19.5667
vt -4.70594 19.4305
f 2/111/28 55/112/28 3/113/28

vt -12.8245 14.7433
f 6/114/28 55/112/28 2/111/28

vt -3.6717 12.3307
f 6/114/28 52/115/28 55/112/28

vt -15.7026 10.9925
f 8/116/28 52/115/28 6/114/28

vt 15.6652 10.9925
f 8/116/28 40/117/28 52/115/28

vt 17.4745 6.62465
f 8/116/28 38/118/28 40/117/28

vt -17.5118 6.62465
f 10/119/28 38/118/28 8/116/28

vt 18.0916 1.93739
f 10/119/28 36/120/28 38/118/28

vt -18.1289 1.93739
f 12/121/28 36/120/28 10/119/28

v -0.00391239 0.0229633 -0.402189
vt 0.191939 0.72913
f 56/122/28 36/120/28 12/121/28

v -0.00774376 0.0220498 -0.402189
vt 0.375892 0.685272
f 57/123/28 36/120/28 56/122/28

v -0.0112081 0.0201758 -0.402189
vt 0.542224 0.595295
f 58/124/28 36/120/28 57/123/28

v -0.0140694 0.017469 -0.402189
vt 0.679602 0.465335
f 59/125/28 36/120/28 58/124/28

v -0.0161327 0.0141139 -0.402189
vt 0.778665 0.304248
f 60/126/28 36/120/28 59/125/28

v -0.0172573 0.0103391 -0.402189
vt 0.832657 0.123011
f 61/127/28 36/120/28 60/126/28

v -0.0173665 0.00640182 -0.402189
vt 0.837902 -0.0660252
f 62/128/28 36/120/28 61/127/28

v -0.016453 0.00257046 -0.402189
vt 0.794043 -0.249978
f 63/129/28 36/120/28 62/128/28

v -0.014579 -0.000893936 -0.402189
vt 0.704067 -0.416311
f 64/130/28 36/120/28 63/129/28

v -0.0118722 -0.00375524 -0.402189
vt 0.574106 -0.553689
f 65/131/28 36/120/28 64/130/28

v -0.00851705 -0.00581845 -0.402189
vt 0.41302 -0.652748
f 66/132/28 36/120/28 65/131/28

v -0.00474227 -0.00694299 -0.402189
vt 0.231783 -0.70674
f 67/133/28 36/120/28 66/132/28

vt 17.4745 -2.74989
f 67/133/28 34/134/28 36/120/28

v -0.00080502 -0.0070523 -0.402189
vt 0.0427472 -0.711988
f 34/134/28 67/133/28 68/135/28

v -0.00474227 -0.00694299 -0.279189
vt 25.1295 0.212081
vn 0.0277513 0.999615 -0
v -0.00080502 -0.0070523 -0.279189
vt 25.1295 0.0229721
vt 31.035 0.0229721
vt 31.035 0.212081
f 69/136/29 70/137/29 68/138/29 67/139/29 

v 0.00935206 -0.00155797 -0.279189
vt -0.444917 -0.448193
v 0.00649072 -0.00426479 -0.279189
vt -0.307538 -0.578154
v 0.00302634 -0.00613882 -0.279189
vt -0.141205 -0.66813
v -0.00851705 -0.00581845 -0.279189
v -0.0118722 -0.00375524 -0.279189
v -0.014579 -0.000893936 -0.279189
v -0.016453 0.00257046 -0.279189
v -0.0173665 0.00640182 -0.279189
v -0.0172573 0.0103391 -0.279189
v -0.0161327 0.0141139 -0.279189
v -0.0140694 0.017469 -0.279189
v -0.0112081 0.0201758 -0.279189
v -0.00774376 0.0220498 -0.279189
v -0.00391239 0.0229633 -0.279189
v 2.48467e-05 0.022854 -0.279189
vt 0.00290346 0.723882
v 0.00379966 0.0217295 -0.279189
vt -0.178334 0.66989
v 0.00715478 0.0196663 -0.279189
vt -0.339421 0.570831
v 0.00986161 0.0168049 -0.279189
vt -0.469382 0.433453
v 0.0117356 0.0133406 -0.279189
vt -0.559354 0.267119
v 0.0126491 0.00950919 -0.279189
vt -0.603217 0.0831669
v 0.0125398 0.00557194 -0.279189
vt -0.597969 -0.105869
v 0.0114153 0.00179714 -0.279189
vt -0.543976 -0.287106
f 71/140/28 72/141/28 73/142/28 70/135/28 69/133/28 74/132/28 75/131/28 76/130/28 77/129/28 78/128/28 79/127/28 80/126/28 81/125/28 82/124/28 83/123/28 84/122/28 85/143/28 86/144/28 87/145/28 88/146/28 89/147/28 90/148/28 91/149/28 92/150/28 

vt -25.1295 -0.173908
vn -0.687219 0.72645 -0
vt -25.1295 0.0152032
v 0.00935206 -0.00155797 -0.402189
vt -31.035 0.0152032
v 0.00649072 -0.00426479 -0.402189
vt -31.035 -0.173908
f 72/151/30 71/152/30 93/153/30 94/154/30 

vt -25.1295 -0.148724
vn -0.851826 0.523824 -0
vt -25.1295 0.0403834
v 0.0114153 0.00179714 -0.402189
vt -31.035 0.0403834
vt -31.035 -0.148724
f 71/155/31 92/156/31 95/157/31 93/158/31 

vt -25.1295 -0.119846
vn -0.958376 0.285509 -0
vt -25.1295 0.0692627
v 0.0125398 0.00557194 -0.402189
vt -31.035 0.0692627
vt -31.035 -0.119846
f 92/159/32 91/160/32 96/161/32 95/162/32 

vt -25.1295 -0.0892341
vn -0.999615 0.0277513 -0
vt -25.1295 0.099875
v 0.0126491 0.00950919 -0.402189
vt -31.035 0.099875
vt -31.035 -0.0892341
f 91/163/33 90/164/33 97/165/33 96/166/33 

vt -25.1295 -0.0590116
vn -0.97273 -0.231941 -0
vt -25.1295 0.130098
v 0.0117356 0.0133406 -0.402189
vt -31.035 0.130098
vt -31.035 -0.0590116
f 90/167/34 89/168/34 98/169/34 97/170/34 

vt -25.1295 -0.0311758
vn -0.879568 -0.475773 -0
vt -25.1295 0.157932
v 0.00986161 0.0168049 -0.402189
vt -31.035 0.157932
vt -31.035 -0.0311758
f 89/171/35 88/172/35 99/173/35 98/174/35 

vt -25.1295 -0.00769129
vn -0.726445 -0.687225 -0
vt -25.1295 0.181419
v 0.00715478 0.0196663 -0.402189
vt -31.035 0.181419
vt -31.035 -0.00769129
f 88/175/36 87/176/36 100/177/36 99/178/36 

vt -25.1295 0.00988674
vn -0.523824 -0.851827 -0
vt -25.1295 0.198994
v 0.00379966 0.0217295 -0.402189
vt -31.035 0.198994
vt -31.035 0.00988674
f 87/179/37 86/180/37 101/181/37 100/182/37 

vt -25.1295 0.0203482
vn -0.285508 -0.958376 -0
vt -25.1295 0.209457
v 2.48467e-05 0.022854 -0.402189
vt -31.035 0.209457
vt -31.035 0.0203482
f 86/183/38 85/184/38 102/185/38 101/186/38 

vt -25.1295 0.0229911
vn -0.0277514 -0.999615 -0
vt -25.1295 0.2121
vt -31.035 0.2121
vt -31.035 0.0229911
f 85/187/39 84/188/39 56/189/39 102/190/39 

vt 25.1295 -0.0176057
vn 0.231921 -0.972735 -0
vt 25.1295 -0.206715
vt 31.035 -0.206715
vt 31.035 -0.0176057
f 84/191/40 83/192/40 57/193/40 56/194/40 

vt 25.1295 -0.00457268
vn 0.475791 -0.879558 -0
vt 25.1295 -0.193682
vt 31.035 -0.193682
vt 31.035 -0.00457268
f 83/195/41 82/196/41 58/197/41 57/198/41 

vt 25.1295 0.0152042
vn 0.687224 -0.726446 -0
vt 25.1295 -0.173905
vt 31.035 -0.173905
vt 31.035 0.0152042
f 82/199/42 81/200/42 59/201/42 58/202/42 

vt 25.1295 0.0403774
vn 0.851817 -0.52384 -0
vt 25.1295 -0.148732
vt 31.035 -0.148732
vt 31.035 0.0403774
f 81/203/43 80/204/43 60/205/43 59/206/43 

vt 25.1295 0.0692682
vn 0.958376 -0.285509 -0
vt 25.1295 -0.11984
vt 31.035 -0.11984
vt 31.035 0.0692682
f 80/207/44 79/208/44 61/209/44 60/210/44 

vt 25.1295 0.0998737
vn 0.999615 -0.0277305 -0
vt 25.1295 -0.0892353
vt 31.035 -0.0892353
vt 31.035 0.0998737
f 79/211/45 78/212/45 62/213/45 61/214/45 

vt 25.1295 0.130102
vn 0.972735 0.231921 -0
vt 25.1295 -0.0590063
vt 31.035 -0.0590063
vt 31.035 0.130102
f 78/215/46 77/216/46 63/217/46 62/218/46 

vt 25.1295 0.157927
vn 0.87956 0.475789 -0
vt 25.1295 -0.0311833
vt 31.035 -0.0311833
vt 31.035 0.157927
f 77/219/47 76/220/47 64/221/47 63/222/47 

vt 25.1295 0.181424
vn 0.726446 0.687224 -0
vt 25.1295 -0.00768571
vt 31.035 -0.00768571
vt 31.035 0.181424
f 76/223/48 75/224/48 65/225/48 64/226/48 

vt 25.1295 0.199003
vn 0.523824 0.851826 -0
vt 25.1295 0.00989565
vt 31.035 0.00989565
vt 31.035 0.199003
f 75/227/49 74/228/49 66/229/49 65/230/49 

vt 25.1295 0.209462
vn 0.28551 0.958376 -0
vt 25.1295 0.0203543
vt 31.035 0.0203543
vt 31.035 0.209462
f 74/231/50 69/232/50 67/233/50 66/234/50 

f 12/121/28 102/143/28 56/122/28

f 12/121/28 101/144/28 102/143/28

f 12/121/28 100/145/28 101/144/28

f 12/121/28 99/146/28 100/145/28

f 12/121/28 98/147/28 99/146/28

f 12/121/28 97/148/28 98/147/28

f 12/121/28 96/149/28 97/148/28

f 12/121/28 95/150/28 96/149/28

f 12/121/28 93/140/28 95/150/28

f 12/121/28 94/141/28 93/140/28

v 0.00302634 -0.00613882 -0.402189
f 12/121/28 103/142/28 94/141/28

f 12/121/28 68/135/28 103/142/28

vt -17.5118 -2.74989
f 14/235/28 68/135/28 12/121/28

f 14/235/28 34/134/28 68/135/28

vt 15.6652 -7.11772
f 14/235/28 32/236/28 34/134/28

vt -15.7026 -7.11772
f 16/237/28 32/236/28 14/235/28

vt 12.7872 -10.8685
f 16/237/28 30/238/28 32/236/28

vt -12.8245 -10.8685
f 18/239/28 30/238/28 16/237/28

vt 9.03646 -13.7465
f 18/239/28 28/240/28 30/238/28

vt -9.07378 -13.7465
f 20/241/28 28/240/28 18/239/28

vt 4.66862 -15.5557
f 20/241/28 26/242/28 28/240/28

vt -4.70594 -15.5557
f 22/243/28 26/242/28 20/241/28

vt -0.0186702 -16.1728
f 26/242/28 22/243/28 24/244/28

vt -25.1295 -0.206707
vn -0.231921 0.972735 -0
vt -25.1295 -0.0175984
vt -31.035 -0.0175984
vt -31.035 -0.206707
f 70/245/51 73/246/51 103/247/51 68/248/51 

vt -25.1295 -0.193692
vn -0.47579 0.879559 -0
vt -25.1295 -0.00458241
vt -31.035 -0.00458241
vt -31.035 -0.193692
f 73/249/52 72/250/52 94/251/52 103/252/52 

vt 3.57239 12.3307
f 52/115/28 40/117/28 50/253/28

vt 12.7872 14.7433
f 42/254/28 50/253/28 40/117/28

vt 3.57239 19.5748
f 50/253/28 42/254/28 48/255/28

vt 9.03646 17.6213
f 48/255/28 42/254/28 44/256/28

vt 4.66862 19.4305
f 48/255/28 44/256/28 46/257/28

vt -3.57239 19.5748
vn -8.22126e-32 -1.83879e-31 1
vt -4.66862 19.4305
vt -9.03646 17.6213
vt -12.7872 14.7433
vt -15.6652 10.9925
vt -17.4745 6.62465
vt -18.0916 1.93739
vt -17.4745 -2.74989
vt -15.6652 -7.11772
vt -12.7872 -10.8685
vt -9.03646 -13.7465
vt -4.66862 -15.5557
vt 0.0186702 -16.1728
vt 4.70594 -15.5557
vt 9.07378 -13.7465
vt 12.8245 -10.8685
vt 15.7026 -7.11772
vt 17.5118 -2.74989
vt 18.1289 1.93739
vt 17.5118 6.62465
vt 15.7026 10.9925
vt 12.8245 14.7433
vt 9.07378 17.6213
vt 4.70594 19.4305
vt 3.6717 19.5667
vt 3.6717 12.3307
vt -3.57239 12.3307
f 47/258/53 45/259/53 43/260/53 41/261/53 39/262/53 37/263/53 35/264/53 33/265/53 31/266/53 29/267/53 27/268/53 25/269/53 23/270/53 21/271/53 19/272/53 17/273/53 15/274/53 13/275/53 11/276/53 9/277/53 7/278/53 5/279/53 1/280/53 4/281/53 53/282/53 51/283/53 49/284/53 

g Mesh23 Mesh2 iRobot_thin_obj Model

v 0.0752687 0.415482 0.475211
vt -3.60973 19.5748
v 0.0765596 0.415482 0.475211
vt -3.6717 19.5748
f 104/285/28 105/286/28 54/112/28

