# Alias OBJ Model File
# Exported from SketchUp, (c) 2000-2012 Trimble Navigation Limited
# File units = meters

mtllib M3P-Maze.mtl

g Mesh1 Component_1_1 Model

usemtl FrontColor
v 2.48 1.14 4.36457e-16
vt 101.575 0
vn 0 -1 -3.82857e-16
v 2.485 1.14 4.36457e-16
vt 101.772 0
v 2.485 1.14 0.254
vt 101.772 10
v 2.48 1.14 0.254
vt 101.575 10
f 1/1/1 2/2/1 3/3/1 4/4/1 

vt -101.575 48.8189
vn 0 3.82857e-16 -1
v 2.48 1.8975 7.26471e-16
vt -101.575 78.6417
v 2.35 1.8975 7.26471e-16
vt -96.4567 78.6417
v 2.35 1.9025 7.28385e-16
vt -96.4567 78.8386
v 2.48 1.9025 7.28385e-16
vt -101.575 78.8386
v 2.48 2.66 1.0184e-15
vt -101.575 108.661
v 2.485 2.66 1.0184e-15
vt -101.772 108.661
vt -101.772 48.8189
f 1/5/2 5/6/2 6/7/2 7/8/2 8/9/2 9/10/2 10/11/2 2/12/2 

vt -78.6417 0
vn -1 0 0
vt -48.8189 0
vt -48.8189 10
v 2.48 1.8975 0.254
vt -78.6417 10
f 5/13/3 1/14/3 4/15/3 11/16/3 

vt 101.575 78.6417
vn 0 -3.82857e-16 1
vt 101.575 48.8189
vt 101.772 48.8189
v 2.485 2.66 0.254
vt 101.772 108.661
v 2.48 2.66 0.254
vt 101.575 108.661
v 2.48 1.9025 0.254
vt 101.575 78.8386
v 2.35 1.9025 0.254
vt 96.4567 78.8386
v 2.35 1.8975 0.254
vt 96.4567 78.6417
f 11/17/4 4/18/4 3/19/4 12/20/4 13/21/4 14/22/4 15/23/4 16/24/4 

vt 48.8189 0
vn 1 0 -0
vt 108.661 0
vt 108.661 10
vt 48.8189 10
f 2/25/5 10/26/5 12/27/5 3/28/5 

vt -101.772 0
vn 0 1 3.82857e-16
vt -101.575 0
vt -101.575 10
vt -101.772 10
f 10/29/6 9/30/6 13/31/6 12/32/6 

vt -108.661 0
vt -78.8386 0
vt -78.8386 10
vt -108.661 10
f 9/33/3 8/34/3 14/35/3 13/36/3 

vt -96.4567 0
vt -96.4567 10
f 8/30/6 7/37/6 15/38/6 14/31/6 

f 7/34/3 6/13/3 16/16/3 15/35/3 

vt 96.4567 0
vt 96.4567 10
f 6/39/1 5/1/1 11/4/1 16/40/1 

g Mesh2 Component_1_1 Model

v 2.08 1.14 4.36457e-16
v 2.08 2.66 1.0184e-15
v 2.08 2.66 0.254
v 2.08 1.14 0.254
f 17/25/5 18/26/5 19/27/5 20/28/5 

vt -85.8268 108.661
vt -85.8268 48.8189
v 2.075 1.14 4.36457e-16
vt -85.6299 48.8189
v 2.075 2.66 1.0184e-15
vt -85.6299 108.661
f 18/41/2 17/42/2 21/43/2 22/44/2 

vt 85.6299 0
vt 85.8268 0
vt 85.8268 10
v 2.075 1.14 0.254
vt 85.6299 10
f 21/45/1 17/46/1 20/47/1 23/48/1 

vt 85.8268 48.8189
vt 85.8268 108.661
v 2.075 2.66 0.254
vt 85.6299 108.661
vt 85.6299 48.8189
f 20/49/4 19/50/4 24/51/4 23/52/4 

vt -85.8268 0
vt -85.6299 0
vt -85.6299 10
vt -85.8268 10
f 18/53/6 22/54/6 24/55/6 19/56/6 

f 22/33/3 21/14/3 23/15/3 24/36/3 

g Mesh3 Component_1_1 Model

v 1.01 1.52 5.81942e-16
vt -43.7008 63.7795
v 0.505 1.515 5.80028e-16
vt -23.8189 63.5827
v 0.505 1.52 5.81942e-16
vt -23.8189 63.7795
f 25/57/2 26/58/2 27/59/2

v 0.755 1.515 5.80028e-16
vt -33.6614 63.5827
f 26/58/2 25/57/2 28/60/2

v 0.76 1.515 5.80028e-16
vt -33.8583 63.5827
f 28/60/2 25/57/2 29/61/2

v 1.01 1.515 5.80028e-16
vt -43.7008 63.5827
f 29/61/2 25/57/2 30/62/2

vt 63.5827 0
vt 63.7795 0
v 1.01 1.52 0.254
vt 63.7795 10
v 1.01 1.515 0.254
vt 63.5827 10
f 30/63/5 25/64/5 31/65/5 32/66/5 

vt -43.7008 0
vt -23.8189 0
v 0.505 1.52 0.254
vt -23.8189 10
vt -43.7008 10
f 25/67/6 27/68/6 33/69/6 31/70/6 

vt -63.7795 0
vt -63.5827 0
v 0.505 1.515 0.254
vt -63.5827 10
vt -63.7795 10
f 27/71/3 26/72/3 34/73/3 33/74/3 

vt 23.8189 0
vt 33.6614 0
v 0.755 1.515 0.254
vt 33.6614 10
vt 23.8189 10
f 26/75/1 28/76/1 35/77/1 34/78/1 

v 0.755 0 -0
vt -3.93701 0
v 0.755 -1.01519e-16 0.254
vt -3.93701 10
f 28/72/3 36/79/3 37/80/3 35/73/3 

vt -33.6614 3.93701
f 28/60/2 29/61/2 36/81/2

v 0.76 0 -0
vt -33.8583 3.93701
f 38/82/2 36/81/2 29/61/2

v 4.66 -0.1 -3.82857e-17
vt -187.402 0
f 39/83/2 36/81/2 38/82/2

v 0 0 -0
vt -3.93701 3.93701
f 39/83/2 40/84/2 36/81/2

v -0.1 -0.1 -3.82857e-17
vt 0 0
f 41/85/2 40/84/2 39/83/2

v 0 3.805 1.45677e-15
vt -3.93701 153.74
f 40/84/2 41/85/2 42/86/2

v -0.1 3.905 1.49506e-15
vt 0 157.677
f 43/87/2 42/86/2 41/85/2

v 4.66 3.905 1.49506e-15
vt -187.402 157.677
f 42/86/2 43/87/2 44/88/2

v -0.1 3.905 0.254
vt 0 10
v 4.66 3.905 0.254
vt -187.402 10
f 44/83/6 43/85/6 45/89/6 46/90/6 

vt -157.677 0
v -0.1 -0.1 0.254
vt -157.677 10
f 43/91/3 41/85/3 47/89/3 45/92/3 

vt 187.402 0
v 4.66 -0.1 0.254
vt 187.402 10
f 41/85/1 39/93/1 48/94/1 47/89/1 

vt 157.677 0
vt 157.677 10
f 39/85/5 44/95/5 46/96/5 48/89/5 

v 4.56 0 -0
vt -183.465 3.93701
f 39/83/2 49/97/2 44/88/2

v 3.805 0 -0
vt -153.74 3.93701
f 39/83/2 50/98/2 49/97/2

v 3.8 0 -0
vt -153.543 3.93701
f 39/83/2 51/99/2 50/98/2

v 3.045 0 -0
vt -123.819 3.93701
f 39/83/2 52/100/2 51/99/2

v 3.04 0 -0
vt -123.622 3.93701
f 39/83/2 53/101/2 52/100/2

v 1.52 0 -0
vt -63.7795 3.93701
f 39/83/2 54/102/2 53/101/2

v 1.515 0 -0
vt -63.5827 3.93701
f 39/83/2 55/103/2 54/102/2

f 39/83/2 38/82/2 55/103/2

vt -33.8583 0
v 0.76 -1.01519e-16 0.254
vt -33.8583 10
v 1.515 -1.01519e-16 0.254
f 55/72/6 38/104/6 56/105/6 57/73/6 

vt 3.93701 0
v 0.76 1.515 0.254
vt 3.93701 10
f 38/106/5 29/63/5 58/66/5 56/107/5 

vt 33.8583 0
vt 43.7008 0
vt 43.7008 10
vt 33.8583 10
f 29/108/1 30/109/1 32/110/1 58/111/1 

vt 43.7008 63.7795
vt 33.8583 63.5827
vt 43.7008 63.5827
f 31/112/4 58/113/4 32/114/4

vt 33.6614 63.5827
f 31/112/4 35/115/4 58/113/4

vt 23.8189 63.7795
f 33/116/4 35/115/4 31/112/4

vt 23.8189 63.5827
f 35/115/4 33/116/4 34/117/4

vt 33.8583 3.93701
f 58/113/4 35/115/4 56/118/4

vt 33.6614 3.93701
f 37/119/4 56/118/4 35/115/4

f 37/119/4 48/93/4 56/118/4

v 0 -1.01519e-16 0.254
vt 3.93701 3.93701
f 59/120/4 48/93/4 37/119/4

f 59/120/4 47/85/4 48/93/4

f 47/85/4 59/120/4 45/87/4

v 0 3.805 0.254
vt 3.93701 153.74
f 60/121/4 45/87/4 59/120/4

vt 187.402 157.677
f 45/87/4 60/121/4 46/122/4

v 0.755 3.805 0.254
vt 33.6614 153.74
f 46/122/4 60/121/4 61/123/4

v 0.755 3.805 1.45677e-15
f 42/106/1 62/76/1 61/77/1 60/107/1 

vt -33.6614 153.74
f 42/86/2 44/88/2 62/124/2

v 0.76 3.805 1.45677e-15
vt -33.8583 153.74
f 62/124/2 44/88/2 63/125/2

v 1.515 3.805 1.45677e-15
vt -63.5827 153.74
f 63/125/2 44/88/2 64/126/2

v 1.52 3.805 1.45677e-15
vt -63.7795 153.74
f 64/126/2 44/88/2 65/127/2

v 3.04 3.805 1.45677e-15
vt -123.622 153.74
f 65/127/2 44/88/2 66/128/2

v 3.045 3.805 1.45677e-15
vt -123.819 153.74
f 66/128/2 44/88/2 67/129/2

v 3.8 3.805 1.45677e-15
vt -153.543 153.74
f 67/129/2 44/88/2 68/130/2

v 3.805 3.805 1.45677e-15
vt -153.74 153.74
f 68/130/2 44/88/2 69/131/2

v 4.56 3.805 1.45677e-15
vt -183.465 153.74
f 69/131/2 44/88/2 70/132/2

v 4.56 2.29 8.76742e-16
vt -183.465 94.0945
f 70/132/2 44/88/2 71/133/2

v 4.56 2.285 8.74828e-16
vt -183.465 93.8976
f 71/133/2 44/88/2 72/134/2

v 4.56 1.52 5.81942e-16
vt -183.465 63.7795
f 72/134/2 44/88/2 73/135/2

v 4.56 1.515 5.80028e-16
vt -183.465 63.5827
f 73/135/2 44/88/2 74/136/2

f 74/136/2 44/88/2 49/97/2

v 4.56 -1.01519e-16 0.254
v 4.56 1.515 0.254
f 74/72/3 49/79/3 75/80/3 76/73/3 

vt -183.465 0
vt -153.74 0
v 3.805 -1.01519e-16 0.254
vt -153.74 10
vt -183.465 10
f 49/137/6 50/138/6 77/139/6 75/140/6 

v 3.805 1.515 5.80028e-16
v 3.805 1.515 0.254
f 50/106/5 78/63/5 79/66/5 77/107/5 

vt -153.74 63.5827
f 50/98/2 51/99/2 78/141/2

v 3.8 1.515 5.80028e-16
vt -153.543 63.5827
f 80/142/2 78/141/2 51/99/2

v 4.055 1.52 5.81942e-16
vt -163.583 63.7795
f 80/142/2 81/143/2 78/141/2

v 3.55 1.515 5.80028e-16
vt -143.701 63.5827
f 82/144/2 81/143/2 80/142/2

v 3.55 1.52 5.81942e-16
vt -143.701 63.7795
f 81/143/2 82/144/2 83/145/2

v 3.55 1.515 0.254
v 3.55 1.52 0.254
f 83/71/3 82/72/3 84/73/3 85/74/3 

vt 143.701 0
vt 153.543 0
v 3.8 1.515 0.254
vt 153.543 10
vt 143.701 10
f 82/146/1 80/147/1 86/148/1 84/149/1 

v 3.8 -1.01519e-16 0.254
f 80/72/3 51/79/3 87/80/3 86/73/3 

vt -153.543 0
vt -123.819 0
v 3.045 -1.01519e-16 0.254
vt -123.819 10
vt -153.543 10
f 51/150/6 52/151/6 88/152/6 87/153/6 

v 3.045 1.515 5.80028e-16
v 3.045 1.515 0.254
f 52/106/5 89/63/5 90/66/5 88/107/5 

vt -123.819 63.5827
f 52/100/2 53/101/2 89/154/2

v 3.04 1.52 5.81942e-16
vt -123.622 63.7795
f 91/155/2 89/154/2 53/101/2

v 3.295 1.52 5.81942e-16
vt -133.661 63.7795
f 89/154/2 91/155/2 92/156/2

vt -133.661 0
vt -123.622 0
v 3.04 1.52 0.254
vt -123.622 10
v 3.295 1.52 0.254
vt -133.661 10
f 92/157/6 91/158/6 93/159/6 94/160/6 

v 3.04 -1.01519e-16 0.254
f 91/71/3 53/79/3 95/80/3 93/74/3 

v 1.52 -1.01519e-16 0.254
f 53/158/6 54/71/6 96/74/6 95/159/6 

v 1.52 1.52 5.81942e-16
v 1.52 1.52 0.254
f 54/106/5 97/64/5 98/65/5 96/107/5 

vt -63.7795 63.7795
f 54/102/2 55/103/2 97/161/2

v 1.515 1.515 5.80028e-16
vt -63.5827 63.5827
f 99/162/2 97/161/2 55/103/2

v 1.265 1.515 5.80028e-16
vt -53.7402 63.5827
f 100/163/2 97/161/2 99/162/2

v 1.265 1.52 5.81942e-16
vt -53.7402 63.7795
f 97/161/2 100/163/2 101/164/2

v 1.265 1.515 0.254
v 1.265 1.52 0.254
f 101/71/3 100/72/3 102/73/3 103/74/3 

vt 53.7402 0
v 1.515 1.515 0.254
vt 53.7402 10
f 100/165/1 99/63/1 104/66/1 102/166/1 

f 99/72/3 55/79/3 57/80/3 104/73/3 

vt 63.5827 3.93701
vt 63.7795 3.93701
vt 63.5827 63.5827
f 57/167/4 96/168/4 104/169/4

f 57/167/4 48/93/4 96/168/4

f 56/118/4 48/93/4 57/167/4

vt 123.622 3.93701
f 96/168/4 48/93/4 95/170/4

vt 123.819 3.93701
f 95/170/4 48/93/4 88/171/4

vt 153.543 3.93701
f 88/171/4 48/93/4 87/172/4

vt 153.74 3.93701
f 87/172/4 48/93/4 77/173/4

vt 183.465 3.93701
f 77/173/4 48/93/4 75/174/4

vt 183.465 63.5827
f 75/174/4 48/93/4 76/175/4

v 4.56 1.52 0.254
vt 183.465 63.7795
f 76/175/4 48/93/4 105/176/4

v 4.56 2.285 0.254
vt 183.465 93.8976
f 105/176/4 48/93/4 106/177/4

v 4.56 2.29 0.254
vt 183.465 94.0945
f 106/177/4 48/93/4 107/178/4

v 4.56 3.805 0.254
vt 183.465 153.74
f 107/178/4 48/93/4 108/179/4

f 46/122/4 108/179/4 48/93/4

v 3.805 3.805 0.254
vt 153.74 153.74
f 46/122/4 109/180/4 108/179/4

v 3.8 3.805 0.254
vt 153.543 153.74
f 46/122/4 110/181/4 109/180/4

v 3.045 3.805 0.254
vt 123.819 153.74
f 46/122/4 111/182/4 110/181/4

v 3.04 3.805 0.254
vt 123.622 153.74
f 46/122/4 112/183/4 111/182/4

v 1.52 3.805 0.254
vt 63.7795 153.74
f 46/122/4 113/184/4 112/183/4

v 1.515 3.805 0.254
vt 63.5827 153.74
f 46/122/4 114/185/4 113/184/4

v 0.76 3.805 0.254
vt 33.8583 153.74
f 46/122/4 115/186/4 114/185/4

f 46/122/4 61/123/4 115/186/4

v 0.76 2.29 0.254
vt 33.8583 94.0945
f 115/186/4 61/123/4 116/187/4

v 0.755 2.29 0.254
vt 33.6614 94.0945
f 117/188/4 116/187/4 61/123/4

v 1.01 2.285 0.254
vt 43.7008 93.8976
f 117/188/4 118/189/4 116/187/4

v 0.505 2.29 0.254
vt 23.8189 94.0945
f 119/190/4 118/189/4 117/188/4

v 0.505 2.285 0.254
vt 23.8189 93.8976
f 118/189/4 119/190/4 120/191/4

v 0.505 2.29 8.76742e-16
vt -94.0945 0
v 0.505 2.285 8.74828e-16
vt -93.8976 0
vt -93.8976 10
vt -94.0945 10
f 121/192/3 122/193/3 120/194/3 119/195/3 

v 0.755 2.29 8.76742e-16
vt -33.6614 94.0945
vt -23.8189 93.8976
vt -23.8189 94.0945
f 123/196/2 122/197/2 121/198/2

v 1.01 2.285 8.74828e-16
vt -43.7008 93.8976
f 122/197/2 123/196/2 124/199/2

v 0.76 2.29 8.76742e-16
vt -33.8583 94.0945
f 124/199/2 123/196/2 125/200/2

f 125/200/2 123/196/2 63/125/2

f 62/124/2 63/125/2 123/196/2

f 62/138/3 123/192/3 117/195/3 61/139/3 

vt -33.6614 0
vt -33.6614 10
f 123/201/6 121/68/6 119/69/6 117/202/6 

vt 94.0945 0
vt 153.74 0
vt 153.74 10
vt 94.0945 10
f 125/203/5 63/204/5 115/205/5 116/206/5 

f 63/108/1 64/63/1 114/66/1 115/111/1 

v 1.515 2.29 8.76742e-16
v 1.515 2.29 0.254
f 64/138/3 126/192/3 127/195/3 114/139/3 

vt -63.5827 94.0945
f 64/126/2 65/127/2 126/207/2

v 1.52 2.285 8.74828e-16
vt -63.7795 93.8976
f 128/208/2 126/207/2 65/127/2

v 1.265 2.285 8.74828e-16
vt -53.7402 93.8976
f 129/209/2 126/207/2 128/208/2

v 1.265 2.29 8.76742e-16
vt -53.7402 94.0945
f 126/207/2 129/209/2 130/210/2

v 1.265 2.285 0.254
v 1.265 2.29 0.254
f 130/192/3 129/193/3 131/194/3 132/195/3 

v 1.52 2.285 0.254
f 129/165/1 128/64/1 133/65/1 131/166/1 

vt 93.8976 0
vt 93.8976 10
f 128/211/5 65/204/5 113/205/5 133/212/5 

vt 123.622 0
vt 123.622 10
f 65/64/1 66/213/1 112/214/1 113/65/1 

v 3.04 2.285 8.74828e-16
v 3.04 2.285 0.254
f 66/138/3 134/193/3 135/194/3 112/139/3 

vt -123.622 93.8976
f 66/128/2 67/129/2 134/215/2

v 3.045 2.29 8.76742e-16
vt -123.819 94.0945
f 136/216/2 134/215/2 67/129/2

v 3.295 2.285 8.74828e-16
vt -133.661 93.8976
f 134/215/2 136/216/2 137/217/2

v 3.295 2.29 8.76742e-16
vt -133.661 94.0945
f 137/217/2 136/216/2 138/218/2

v 3.045 2.29 0.254
v 3.295 2.29 0.254
f 138/157/6 136/151/6 139/152/6 140/160/6 

f 136/203/5 67/204/5 111/205/5 139/206/5 

vt 123.819 0
vt 123.819 10
f 67/219/1 68/147/1 110/148/1 111/220/1 

v 3.8 2.29 8.76742e-16
v 3.8 2.29 0.254
f 68/138/3 141/192/3 142/195/3 110/139/3 

vt -153.543 94.0945
f 68/130/2 69/131/2 141/221/2

v 3.805 2.29 8.76742e-16
vt -153.74 94.0945
f 143/222/2 141/221/2 69/131/2

v 4.055 2.285 8.74828e-16
vt -163.583 93.8976
f 144/223/2 141/221/2 143/222/2

v 3.55 2.285 8.74828e-16
vt -143.701 93.8976
f 145/224/2 141/221/2 144/223/2

v 3.55 2.29 8.76742e-16
vt -143.701 94.0945
f 141/221/2 145/224/2 146/225/2

v 3.55 2.285 0.254
v 3.55 2.29 0.254
f 146/192/3 145/193/3 147/194/3 148/195/3 

vt 163.583 0
v 4.055 2.285 0.254
vt 163.583 10
f 145/146/1 144/226/1 149/227/1 147/149/1 

v 4.055 2.29 8.76742e-16
v 4.055 2.29 0.254
f 144/211/5 150/203/5 151/206/5 149/212/5 

vt -163.583 94.0945
f 144/223/2 143/222/2 150/228/2

vt -163.583 0
v 3.805 2.29 0.254
vt -163.583 10
f 150/229/6 143/138/6 152/139/6 151/230/6 

f 143/203/5 69/204/5 109/205/5 152/206/5 

vt 183.465 0
vt 183.465 10
f 69/204/1 70/231/1 108/232/1 109/205/1 

f 70/138/3 71/192/3 107/195/3 108/139/3 

v 4.31 2.29 8.76742e-16
vt -173.622 0
v 4.31 2.29 0.254
vt -173.622 10
f 71/137/6 153/233/6 154/234/6 107/140/6 

v 4.31 2.285 8.74828e-16
vt -173.622 93.8976
vt -173.622 94.0945
f 71/133/2 155/235/2 153/236/2

f 155/235/2 71/133/2 72/134/2

vt 173.622 0
v 4.31 2.285 0.254
vt 173.622 10
f 155/237/1 72/231/1 106/232/1 156/238/1 

f 72/193/3 73/71/3 105/74/3 106/194/3 

v 4.31 1.52 5.81942e-16
v 4.31 1.52 0.254
f 73/137/6 157/233/6 158/234/6 105/140/6 

v 4.31 1.515 5.80028e-16
vt -173.622 63.5827
vt -173.622 63.7795
f 73/135/2 159/239/2 157/240/2

f 159/239/2 73/135/2 74/136/2

v 4.31 1.515 0.254
f 159/237/1 74/231/1 76/232/1 160/238/1 

vt 173.622 63.7795
vt 173.622 63.5827
f 76/175/4 158/241/4 160/242/4

f 158/241/4 76/175/4 105/176/4

f 157/71/3 159/72/3 160/73/3 158/74/3 

vt 173.622 94.0945
vt 173.622 93.8976
f 106/177/4 154/243/4 156/244/4

f 154/243/4 106/177/4 107/178/4

f 153/192/3 155/193/3 156/194/3 154/195/3 

vt 153.74 94.0945
f 109/180/4 110/181/4 152/245/4

vt 153.543 94.0945
f 142/246/4 152/245/4 110/181/4

vt 163.583 93.8976
f 142/246/4 149/247/4 152/245/4

vt 143.701 94.0945
f 148/248/4 149/247/4 142/246/4

vt 143.701 93.8976
f 149/247/4 148/248/4 147/249/4

vt -143.701 0
vt -143.701 10
f 141/150/6 146/250/6 148/251/6 142/153/6 

vt 163.583 94.0945
f 152/245/4 149/247/4 151/252/4

vt 123.819 94.0945
f 111/182/4 112/183/4 139/253/4

vt 123.622 93.8976
f 135/254/4 139/253/4 112/183/4

v 3.295 2.285 0.254
vt 133.661 93.8976
f 139/253/4 135/254/4 161/255/4

vt 133.661 0
vt 133.661 10
f 134/213/1 137/256/1 161/257/1 135/214/1 

f 137/211/5 138/203/5 140/206/5 161/212/5 

vt 133.661 94.0945
f 139/253/4 161/255/4 140/258/4

vt 63.7795 93.8976
f 113/184/4 114/185/4 133/259/4

vt 63.5827 94.0945
f 127/260/4 133/259/4 114/185/4

vt 53.7402 94.0945
f 132/261/4 133/259/4 127/260/4

vt 53.7402 93.8976
f 133/259/4 132/261/4 131/262/4

vt -53.7402 0
vt -53.7402 10
f 126/72/6 130/263/6 132/264/6 127/73/6 

v 1.01 2.29 8.76742e-16
v 1.01 2.29 0.254
f 162/67/6 125/104/6 116/105/6 163/70/6 

vt -43.7008 94.0945
f 124/199/2 125/200/2 162/265/2

f 124/211/5 162/203/5 163/206/5 118/212/5 

vt 43.7008 94.0945
f 116/187/4 118/189/4 163/266/4

f 122/75/1 124/109/1 118/110/1 120/78/1 

vt 153.543 63.5827
f 87/172/4 77/173/4 86/267/4

vt 153.74 63.5827
f 79/268/4 86/267/4 77/173/4

v 4.055 1.52 0.254
vt 163.583 63.7795
f 164/269/4 86/267/4 79/268/4

vt 143.701 63.7795
f 85/270/4 86/267/4 164/269/4

vt 143.701 63.5827
f 86/267/4 85/270/4 84/271/4

f 81/229/6 83/250/6 85/251/6 164/230/6 

v 4.055 1.515 5.80028e-16
v 4.055 1.515 0.254
f 165/63/5 81/64/5 164/65/5 166/66/5 

vt -163.583 63.5827
f 78/141/2 81/143/2 165/272/2

f 78/204/1 165/226/1 166/227/1 79/205/1 

vt 163.583 63.5827
f 164/269/4 79/268/4 166/273/4

vt 123.622 63.7795
f 95/170/4 88/171/4 93/274/4

vt 123.819 63.5827
f 90/275/4 93/274/4 88/171/4

vt 133.661 63.7795
f 93/274/4 90/275/4 94/276/4

v 3.295 1.515 0.254
vt 133.661 63.5827
f 94/276/4 90/275/4 167/277/4

v 3.295 1.515 5.80028e-16
f 89/219/1 168/256/1 167/257/1 90/220/1 

vt -133.661 63.5827
f 89/154/2 92/156/2 168/278/2

f 168/63/5 92/64/5 94/65/5 167/66/5 

vt 63.7795 63.7795
f 98/279/4 104/169/4 96/168/4

vt 53.7402 63.7795
f 103/280/4 104/169/4 98/279/4

vt 53.7402 63.5827
f 104/169/4 103/280/4 102/281/4

f 97/71/6 101/263/6 103/264/6 98/74/6 

v 0 2.29 8.76742e-16
v 0 2.29 0.254
f 169/203/5 42/204/5 60/205/5 170/206/5 

vt -3.93701 94.0945
f 40/84/2 42/86/2 169/282/2

v 0 2.285 8.74828e-16
vt -3.93701 93.8976
f 40/84/2 169/282/2 171/283/2

v 0.25 2.29 8.76742e-16
vt -13.7795 94.0945
f 172/284/2 171/283/2 169/282/2

v 0.25 2.285 8.74828e-16
vt -13.7795 93.8976
f 171/283/2 172/284/2 173/285/2

v 0.25 2.29 0.254
v 0.25 2.285 0.254
f 173/211/5 172/203/5 174/206/5 175/212/5 

vt -13.7795 0
vt -13.7795 10
f 172/286/6 169/79/6 170/80/6 174/287/6 

vt 3.93701 94.0945
vt 13.7795 93.8976
vt 13.7795 94.0945
f 170/288/4 175/289/4 174/290/4

v 0 2.285 0.254
vt 3.93701 93.8976
f 175/289/4 170/288/4 176/291/4

f 60/121/4 176/291/4 170/288/4

v 0 1.52 0.254
vt 3.93701 63.7795
f 60/121/4 177/292/4 176/291/4

v 0 1.515 0.254
vt 3.93701 63.5827
f 60/121/4 178/293/4 177/292/4

f 60/121/4 59/120/4 178/293/4

v 0 1.515 5.80028e-16
f 40/106/5 179/63/5 178/66/5 59/107/5 

v 0 1.52 5.81942e-16
vt -3.93701 63.7795
vt -3.93701 63.5827
f 40/84/2 180/294/2 179/295/2

f 40/84/2 171/283/2 180/294/2

f 180/64/5 171/211/5 176/212/5 177/65/5 

vt 13.7795 0
vt 13.7795 10
f 171/106/1 173/296/1 175/297/1 176/107/1 

v 0.25 1.52 5.81942e-16
v 0.25 1.52 0.254
f 181/286/6 180/79/6 177/80/6 182/287/6 

vt -13.7795 63.7795
f 181/298/2 179/295/2 180/294/2

v 0.25 1.515 5.80028e-16
vt -13.7795 63.5827
f 179/295/2 181/298/2 183/299/2

v 0.25 1.515 0.254
f 183/63/5 181/64/5 182/65/5 184/66/5 

vt 13.7795 63.5827
vt 13.7795 63.7795
f 177/292/4 184/300/4 182/301/4

f 184/300/4 177/292/4 178/293/4

f 179/106/1 183/296/1 184/297/1 178/107/1 

f 36/201/6 40/79/6 59/80/6 37/202/6 

