# Alias OBJ Model File
# Exported from SketchUp, (c) 2000-2012 Trimble Navigation Limited
# File units = meters

mtllib M3PEnv2.mtl

g Mesh1 Component_1_1 Model

usemtl FrontColor
v 0.75 1.8 6.89142e-16
vt -33.4646 74.8031
vn 0 3.82857e-16 -1
v 0.8 1.75 6.7e-16
vt -35.4331 72.8346
v 0.75 0 -0
vt -33.4646 3.93701
f 1/1/1 2/2/1 3/3/1

v 1.25 1.8 6.89142e-16
vt -53.1496 74.8031
f 2/2/1 1/1/1 4/4/1

vt -53.1496 0
vn 0 1 3.82857e-16
vt -33.4646 0
v 0.75 1.8 0.254
vt -33.4646 10
v 1.25 1.8 0.254
vt -53.1496 10
f 4/5/2 1/6/2 5/7/2 6/8/2 

vt -74.8031 0
vn -1 0 0
vt -3.93701 0
v 0.75 -1.01519e-16 0.254
vt -3.93701 10
vt -74.8031 10
f 1/9/3 3/10/3 7/11/3 5/12/3 

v 0 0 -0
v 0 -1.01519e-16 0.254
f 3/6/2 8/10/2 9/11/2 7/7/2 

v 4.6 -0.1 -3.82857e-17
vt -185.039 0
vt -3.93701 3.93701
f 10/13/1 8/14/1 3/3/1

v -0.1 -0.1 -3.82857e-17
vt 0 0
f 11/15/1 8/14/1 10/13/1

v 0 4.5 1.72286e-15
vt -3.93701 181.102
f 8/14/1 11/15/1 12/16/1

v -0.1 4.6 1.76114e-15
vt 0 185.039
f 13/17/1 12/16/1 11/15/1

v 4.6 4.6 1.76114e-15
vt -185.039 185.039
f 12/16/1 13/17/1 14/18/1

v -0.1 4.6 0.254
vt 0 10
v 4.6 4.6 0.254
vt -185.039 10
f 14/13/2 13/15/2 15/19/2 16/20/2 

v -0.1 -0.1 0.254
f 13/13/3 11/15/3 17/19/3 15/20/3 

vn 0 -1 -3.82857e-16
vt 185.039 0
v 4.6 -0.1 0.254
vt 185.039 10
f 11/15/4 10/21/4 18/22/4 17/19/4 

vn 1 0 -0
f 10/15/5 14/21/5 16/22/5 18/19/5 

v 4.5 0 -0
vt -181.102 3.93701
f 10/13/1 19/23/1 14/18/1

v 3.75 0 -0
vt -151.575 3.93701
f 10/13/1 20/24/1 19/23/1

v 3.7 0 -0
vt -149.606 3.93701
f 10/13/1 21/25/1 20/24/1

v 2.95 0 -0
vt -120.079 3.93701
f 10/13/1 22/26/1 21/25/1

v 2.9 0 -0
vt -118.11 3.93701
f 10/13/1 23/27/1 22/26/1

v 1.6 0 -0
vt -66.9291 3.93701
f 10/13/1 24/28/1 23/27/1

v 1.55 0 -0
vt -64.9606 3.93701
f 10/13/1 25/29/1 24/28/1

v 0.8 0 -0
vt -35.4331 3.93701
f 10/13/1 26/30/1 25/29/1

f 10/13/1 3/3/1 26/30/1

f 26/30/1 3/3/1 2/2/1

vt 3.93701 0
vt 72.8346 0
v 0.8 1.75 0.254
vt 72.8346 10
v 0.8 -1.01519e-16 0.254
vt 3.93701 10
f 26/31/5 2/32/5 27/33/5 28/34/5 

vt 35.4331 0
v 1.25 1.75 6.7e-16
vt 53.1496 0
v 1.25 1.75 0.254
vt 53.1496 10
vt 35.4331 10
f 2/35/4 29/36/4 30/37/4 27/38/4 

vt -53.1496 72.8346
f 2/2/1 4/4/1 29/39/1

vt 74.8031 0
vt 74.8031 10
f 29/32/5 4/40/5 6/41/5 30/33/5 

vt 53.1496 74.8031
vn 0 -3.82857e-16 1
vt 35.4331 72.8346
vt 53.1496 72.8346
f 6/42/6 27/43/6 30/44/6

vt 33.4646 74.8031
f 5/45/6 27/43/6 6/42/6

vt 35.4331 3.93701
f 27/43/6 5/45/6 28/46/6

vt 33.4646 3.93701
f 7/47/6 28/46/6 5/45/6

f 7/47/6 18/21/6 28/46/6

vt 3.93701 3.93701
f 9/48/6 18/21/6 7/47/6

f 9/48/6 17/15/6 18/21/6

f 17/15/6 9/48/6 15/17/6

v 0 4.5 0.254
vt 3.93701 181.102
f 31/49/6 15/17/6 9/48/6

vt 185.039 185.039
f 15/17/6 31/49/6 16/50/6

v 0.75 4.5 0.254
vt 33.4646 181.102
f 16/50/6 31/49/6 32/51/6

v 0.75 4.5 1.72286e-15
vt 33.4646 0
vt 33.4646 10
f 12/31/4 33/52/4 32/53/4 31/34/4 

vt -33.4646 181.102
f 12/16/1 14/18/1 33/54/1

v 0.8 4.5 1.72286e-15
vt -35.4331 181.102
f 33/54/1 14/18/1 34/55/1

v 1.55 4.5 1.72286e-15
vt -64.9606 181.102
f 34/55/1 14/18/1 35/56/1

v 1.6 4.5 1.72286e-15
vt -66.9291 181.102
f 35/56/1 14/18/1 36/57/1

v 2.9 4.5 1.72286e-15
vt -118.11 181.102
f 36/57/1 14/18/1 37/58/1

v 2.95 4.5 1.72286e-15
vt -120.079 181.102
f 37/58/1 14/18/1 38/59/1

v 3.7 4.5 1.72286e-15
vt -149.606 181.102
f 38/59/1 14/18/1 39/60/1

v 3.75 4.5 1.72286e-15
vt -151.575 181.102
f 39/60/1 14/18/1 40/61/1

v 4.5 4.5 1.72286e-15
vt -181.102 181.102
f 40/61/1 14/18/1 41/62/1

v 4.5 2.75 1.05286e-15
vt -181.102 112.205
f 41/62/1 14/18/1 42/63/1

v 4.5 2.7 1.03371e-15
vt -181.102 110.236
f 42/63/1 14/18/1 43/64/1

v 4.5 1.8 6.89142e-16
vt -181.102 74.8031
f 43/64/1 14/18/1 44/65/1

v 4.5 1.75 6.7e-16
vt -181.102 72.8346
f 44/65/1 14/18/1 45/66/1

f 45/66/1 14/18/1 19/23/1

vt -72.8346 0
v 4.5 -1.01519e-16 0.254
v 4.5 1.75 0.254
vt -72.8346 10
f 45/67/3 19/10/3 46/11/3 47/68/3 

vt -181.102 0
vt -151.575 0
v 3.75 -1.01519e-16 0.254
vt -151.575 10
vt -181.102 10
f 19/69/2 20/70/2 48/71/2 46/72/2 

v 3.75 1.8 6.89142e-16
v 3.75 1.8 0.254
f 20/31/5 49/40/5 50/41/5 48/34/5 

vt -151.575 74.8031
f 20/24/1 21/25/1 49/73/1

v 3.7 1.75 6.7e-16
vt -149.606 72.8346
f 51/74/1 49/73/1 21/25/1

v 3.25 1.75 6.7e-16
vt -131.89 72.8346
f 52/75/1 49/73/1 51/74/1

v 3.25 1.8 6.89142e-16
vt -131.89 74.8031
f 49/73/1 52/75/1 53/76/1

v 3.25 1.75 0.254
v 3.25 1.8 0.254
f 53/9/3 52/67/3 54/68/3 55/12/3 

vt 131.89 0
vt 149.606 0
v 3.7 1.75 0.254
vt 149.606 10
vt 131.89 10
f 52/77/4 51/78/4 56/79/4 54/80/4 

v 3.7 -1.01519e-16 0.254
f 51/67/3 21/10/3 57/11/3 56/68/3 

vt -149.606 0
vt -120.079 0
v 2.95 -1.01519e-16 0.254
vt -120.079 10
vt -149.606 10
f 21/81/2 22/82/2 58/83/2 57/84/2 

v 2.95 1.75 6.7e-16
v 2.95 1.75 0.254
f 22/31/5 59/32/5 60/33/5 58/34/5 

vt -120.079 72.8346
f 22/26/1 23/27/1 59/85/1

v 2.9 1.75 6.7e-16
vt -118.11 72.8346
f 59/85/1 23/27/1 61/86/1

v 2.9 -1.01519e-16 0.254
v 2.9 1.75 0.254
f 61/67/3 23/10/3 62/11/3 63/68/3 

vt -118.11 0
vt -66.9291 0
v 1.6 -1.01519e-16 0.254
vt -66.9291 10
vt -118.11 10
f 23/87/2 24/88/2 64/89/2 62/90/2 

v 1.6 1.75 6.7e-16
v 1.6 1.75 0.254
f 24/31/5 65/32/5 66/33/5 64/34/5 

vt -66.9291 72.8346
f 24/28/1 25/29/1 65/91/1

v 1.55 1.75 6.7e-16
vt -64.9606 72.8346
f 65/91/1 25/29/1 67/92/1

v 1.55 -1.01519e-16 0.254
v 1.55 1.75 0.254
f 67/67/3 25/10/3 68/11/3 69/68/3 

vt -64.9606 0
vt -35.4331 0
vt -35.4331 10
vt -64.9606 10
f 25/93/2 26/94/2 28/95/2 68/96/2 

vt 64.9606 3.93701
f 28/46/6 18/21/6 68/97/6

vt 66.9291 3.93701
f 68/97/6 18/21/6 64/98/6

vt 118.11 3.93701
f 64/98/6 18/21/6 62/99/6

vt 120.079 3.93701
f 62/99/6 18/21/6 58/100/6

vt 149.606 3.93701
f 58/100/6 18/21/6 57/101/6

vt 151.575 3.93701
f 57/101/6 18/21/6 48/102/6

vt 181.102 3.93701
f 48/102/6 18/21/6 46/103/6

vt 181.102 72.8346
f 46/103/6 18/21/6 47/104/6

v 4.5 1.8 0.254
vt 181.102 74.8031
f 47/104/6 18/21/6 70/105/6

v 4.5 2.7 0.254
vt 181.102 110.236
f 70/105/6 18/21/6 71/106/6

v 4.5 2.75 0.254
vt 181.102 112.205
f 71/106/6 18/21/6 72/107/6

v 4.5 4.5 0.254
vt 181.102 181.102
f 72/107/6 18/21/6 73/108/6

f 16/50/6 73/108/6 18/21/6

v 3.75 4.5 0.254
vt 151.575 181.102
f 16/50/6 74/109/6 73/108/6

v 3.7 4.5 0.254
vt 149.606 181.102
f 16/50/6 75/110/6 74/109/6

v 2.95 4.5 0.254
vt 120.079 181.102
f 16/50/6 76/111/6 75/110/6

v 2.9 4.5 0.254
vt 118.11 181.102
f 16/50/6 77/112/6 76/111/6

v 1.6 4.5 0.254
vt 66.9291 181.102
f 16/50/6 78/113/6 77/112/6

v 1.55 4.5 0.254
vt 64.9606 181.102
f 16/50/6 79/114/6 78/113/6

v 0.8 4.5 0.254
vt 35.4331 181.102
f 16/50/6 80/115/6 79/114/6

f 16/50/6 32/51/6 80/115/6

v 0.8 2.75 0.254
vt 35.4331 112.205
f 80/115/6 32/51/6 81/116/6

v 0.75 2.7 0.254
vt 33.4646 110.236
f 82/117/6 81/116/6 32/51/6

v 1.25 2.7 0.254
vt 53.1496 110.236
f 81/116/6 82/117/6 83/118/6

v 0.75 2.7 1.03371e-15
v 1.25 2.7 1.03371e-15
f 84/52/4 85/36/4 83/37/4 82/53/4 

vt -33.4646 110.236
v 0.8 2.75 1.05286e-15
vt -35.4331 112.205
vt -53.1496 110.236
f 84/119/1 86/120/1 85/121/1

f 86/120/1 84/119/1 34/55/1

f 33/54/1 34/55/1 84/119/1

vt -110.236 0
vt -110.236 10
f 33/69/3 84/122/3 82/123/3 32/72/3 

vt 112.205 0
vt 181.102 0
vt 181.102 10
vt 112.205 10
f 86/124/5 34/125/5 80/126/5 81/127/5 

vt 64.9606 0
vt 64.9606 10
f 34/35/4 35/128/4 79/129/4 80/38/4 

v 1.55 2.75 1.05286e-15
vt -112.205 0
v 1.55 2.75 0.254
vt -112.205 10
f 35/69/3 87/130/3 88/131/3 79/72/3 

vt -64.9606 112.205
f 35/56/1 36/57/1 87/132/1

v 1.6 2.75 1.05286e-15
vt -66.9291 112.205
f 89/133/1 87/132/1 36/57/1

vt 66.9291 0
v 1.6 2.75 0.254
vt 66.9291 10
f 87/128/4 89/134/4 90/135/4 88/129/4 

f 89/124/5 36/125/5 78/126/5 90/127/5 

vt 118.11 0
vt 118.11 10
f 36/134/4 37/136/4 77/137/4 78/135/4 

v 2.9 2.75 1.05286e-15
v 2.9 2.75 0.254
f 37/69/3 91/130/3 92/131/3 77/72/3 

vt -118.11 112.205
f 37/58/1 38/59/1 91/138/1

v 2.95 2.75 1.05286e-15
vt -120.079 112.205
f 93/139/1 91/138/1 38/59/1

vt 120.079 0
v 2.95 2.75 0.254
vt 120.079 10
f 91/136/4 93/140/4 94/141/4 92/137/4 

f 93/124/5 38/125/5 76/126/5 94/127/5 

f 38/140/4 39/78/4 75/79/4 76/141/4 

v 3.7 2.75 1.05286e-15
v 3.7 2.75 0.254
f 39/69/3 95/130/3 96/131/3 75/72/3 

vt -149.606 112.205
f 39/60/1 40/61/1 95/142/1

v 3.75 2.7 1.03371e-15
vt -151.575 110.236
f 97/143/1 95/142/1 40/61/1

v 3.25 2.7 1.03371e-15
vt -131.89 110.236
f 98/144/1 95/142/1 97/143/1

v 3.25 2.75 1.05286e-15
vt -131.89 112.205
f 95/142/1 98/144/1 99/145/1

v 3.25 2.7 0.254
v 3.25 2.75 0.254
f 99/130/3 98/122/3 100/123/3 101/131/3 

vt 151.575 0
v 3.75 2.7 0.254
vt 151.575 10
f 98/77/4 97/146/4 102/147/4 100/80/4 

vt 110.236 0
vt 110.236 10
f 97/148/5 40/125/5 74/126/5 102/149/5 

f 40/146/4 41/125/4 73/126/4 74/147/4 

f 41/69/3 42/130/3 72/131/3 73/72/3 

v 4.05 2.75 1.05286e-15
vt -163.386 0
v 4.05 2.75 0.254
vt -163.386 10
f 42/69/2 103/150/2 104/151/2 72/72/2 

v 4.05 2.7 1.03371e-15
vt -163.386 110.236
vt -163.386 112.205
f 42/63/1 105/152/1 103/153/1

f 105/152/1 42/63/1 43/64/1

vt 163.386 0
v 4.05 2.7 0.254
vt 163.386 10
f 105/154/4 43/125/4 71/126/4 106/155/4 

f 43/122/3 44/9/3 70/12/3 71/123/3 

v 4.05 1.8 6.89142e-16
v 4.05 1.8 0.254
f 44/69/2 107/150/2 108/151/2 70/72/2 

v 4.05 1.75 6.7e-16
vt -163.386 72.8346
vt -163.386 74.8031
f 44/65/1 109/156/1 107/157/1

f 109/156/1 44/65/1 45/66/1

v 4.05 1.75 0.254
f 109/154/4 45/125/4 47/126/4 110/155/4 

vt 163.386 74.8031
vt 163.386 72.8346
f 47/104/6 108/158/6 110/159/6

f 108/158/6 47/104/6 70/105/6

f 107/9/3 109/67/3 110/68/3 108/12/3 

vt 163.386 112.205
vt 163.386 110.236
f 71/106/6 104/160/6 106/161/6

f 104/160/6 71/106/6 72/107/6

f 103/130/3 105/122/3 106/123/3 104/131/3 

vt 151.575 110.236
f 74/109/6 75/110/6 102/162/6

vt 149.606 112.205
f 96/163/6 102/162/6 75/110/6

vt 131.89 112.205
f 101/164/6 102/162/6 96/163/6

vt 131.89 110.236
f 102/162/6 101/164/6 100/165/6

vt -131.89 0
vt -131.89 10
f 95/81/2 99/166/2 101/167/2 96/84/2 

vt 120.079 112.205
f 76/111/6 77/112/6 94/168/6

vt 118.11 112.205
f 94/168/6 77/112/6 92/169/6

vt 66.9291 112.205
f 78/113/6 79/114/6 90/170/6

vt 64.9606 112.205
f 90/170/6 79/114/6 88/171/6

v 1.25 2.75 1.05286e-15
v 1.25 2.75 0.254
f 111/5/2 86/94/2 81/95/2 112/8/2 

vt -53.1496 112.205
f 85/121/1 86/120/1 111/172/1

f 85/148/5 111/124/5 112/127/5 83/149/5 

vt 53.1496 112.205
f 81/116/6 83/118/6 112/173/6

vt 149.606 72.8346
f 57/101/6 48/102/6 56/174/6

vt 151.575 74.8031
f 50/175/6 56/174/6 48/102/6

vt 131.89 74.8031
f 55/176/6 56/174/6 50/175/6

vt 131.89 72.8346
f 56/174/6 55/176/6 54/177/6

f 49/70/2 53/166/2 55/167/2 50/71/2 

vt 118.11 72.8346
f 62/99/6 58/100/6 63/178/6

vt 120.079 72.8346
f 60/179/6 63/178/6 58/100/6

f 59/82/2 61/87/2 63/90/2 60/83/2 

vt 64.9606 72.8346
f 68/97/6 64/98/6 69/180/6

vt 66.9291 72.8346
f 66/181/6 69/180/6 64/98/6

f 65/88/2 67/93/2 69/96/2 66/89/2 

v 0 2.75 1.05286e-15
v 0 2.75 0.254
f 113/124/5 12/125/5 31/126/5 114/127/5 

vt -3.93701 112.205
f 8/14/1 12/16/1 113/182/1

v 0 2.7 1.03371e-15
vt -3.93701 110.236
f 8/14/1 113/182/1 115/183/1

v 0.45 2.75 1.05286e-15
vt -21.6535 112.205
f 116/184/1 115/183/1 113/182/1

v 0.45 2.7 1.03371e-15
vt -21.6535 110.236
f 115/183/1 116/184/1 117/185/1

v 0.45 2.75 0.254
v 0.45 2.7 0.254
f 117/148/5 116/124/5 118/127/5 119/149/5 

vt -21.6535 0
vt -21.6535 10
f 116/186/2 113/10/2 114/11/2 118/187/2 

vt 3.93701 112.205
vt 21.6535 110.236
vt 21.6535 112.205
f 114/188/6 119/189/6 118/190/6

v 0 2.7 0.254
vt 3.93701 110.236
f 119/189/6 114/188/6 120/191/6

f 31/49/6 120/191/6 114/188/6

v 0 1.80483 0.254
vt 3.93701 74.9932
f 31/49/6 121/192/6 120/191/6

v 0 1.75483 0.254
vt 3.93701 73.0247
f 31/49/6 122/193/6 121/192/6

f 31/49/6 9/48/6 122/193/6

v 0 1.75483 6.71847e-16
vt 73.0247 0
vt 73.0247 10
f 8/31/5 123/194/5 122/195/5 9/34/5 

v 0 1.80483 6.9099e-16
vt -3.93701 74.9932
vt -3.93701 73.0247
f 8/14/1 124/196/1 123/197/1

f 8/14/1 115/183/1 124/196/1

vt 74.9932 0
vt 74.9932 10
f 124/198/5 115/148/5 120/149/5 121/199/5 

vt 21.6535 0
vt 21.6535 10
f 115/31/4 117/200/4 119/201/4 120/34/4 

v 0.45 1.80483 6.9099e-16
v 0.45 1.80483 0.254
f 125/186/2 124/10/2 121/11/2 126/187/2 

vt -21.6535 74.9932
f 125/202/1 123/197/1 124/196/1

v 0.45 1.75483 6.71847e-16
vt -21.6535 73.0247
f 123/197/1 125/202/1 127/203/1

v 0.45 1.75483 0.254
f 127/194/5 125/198/5 126/199/5 128/195/5 

vt 21.6535 73.0247
vt 21.6535 74.9932
f 121/192/6 128/204/6 126/205/6

f 128/204/6 121/192/6 122/193/6

f 123/31/4 127/200/4 128/201/4 122/34/4 

g Mesh2 Component_1_1 Model

v 2.45 4 0.254
vt 100.394 161.417
v 2.45 0.5 0.254
vt 100.394 23.622
v 2.5 0.5 0.254
vt 102.362 23.622
v 2.5 4 0.254
vt 102.362 161.417
f 129/206/6 130/207/6 131/208/6 132/209/6 

v 2.45 4 1.53143e-15
vt -161.417 0
v 2.45 0.5 1.91428e-16
vt -23.622 0
vt -23.622 10
vt -161.417 10
f 133/210/3 134/211/3 130/212/3 129/213/3 

vt -100.394 23.622
vt -100.394 161.417
v 2.5 4 1.53143e-15
vt -102.362 161.417
v 2.5 0.5 1.91428e-16
vt -102.362 23.622
f 134/214/1 133/215/1 135/216/1 136/217/1 

vt -102.362 0
vt -100.394 0
vt -100.394 10
vt -102.362 10
f 135/218/2 133/219/2 129/220/2 132/221/2 

vt 23.622 0
vt 161.417 0
vt 161.417 10
vt 23.622 10
f 136/222/5 135/223/5 132/224/5 131/225/5 

vt 100.394 0
vt 102.362 0
vt 102.362 10
vt 100.394 10
f 134/226/4 136/227/4 131/228/4 130/229/4 

g Mesh3 Component_1_1 Model

v 2.35 2.225 8.51857e-16
vt -96.4567 91.5354
v 2.15 2.225 8.51857e-16
vt -88.5827 91.5354
v 2.15 2.275 8.70999e-16
vt -88.5827 93.5039
v 2.35 2.275 8.70999e-16
vt -96.4567 93.5039
f 137/230/1 138/231/1 139/232/1 140/233/1 

vt 88.5827 0
vt 96.4567 0
v 2.35 2.225 0.254
vt 96.4567 10
v 2.15 2.225 0.254
vt 88.5827 10
f 138/234/4 137/235/4 141/236/4 142/237/4 

vt 91.5354 0
vt 93.5039 0
v 2.35 2.275 0.254
vt 93.5039 10
vt 91.5354 10
f 137/238/5 140/239/5 143/240/5 141/241/5 

vt -96.4567 0
vt -88.5827 0
v 2.15 2.275 0.254
vt -88.5827 10
vt -96.4567 10
f 140/242/2 139/243/2 144/244/2 143/245/2 

vt -93.5039 0
vt -91.5354 0
vt -91.5354 10
vt -93.5039 10
f 139/246/3 138/247/3 142/248/3 144/249/3 

vt 88.5827 91.5354
vt 96.4567 91.5354
vt 96.4567 93.5039
vt 88.5827 93.5039
f 142/250/6 141/251/6 143/252/6 144/253/6 

g Mesh4 Component_1_1 Model

v 2.05 4 1.53143e-15
vt -84.6457 161.417
v 2.05 0.5 1.91428e-16
vt -84.6457 23.622
v 2 0.5 1.91428e-16
vt -82.6772 23.622
v 2 4 1.53143e-15
vt -82.6772 161.417
f 145/254/1 146/255/1 147/256/1 148/257/1 

v 2.05 4 0.254
v 2.05 0.5 0.254
f 146/222/5 145/223/5 149/224/5 150/225/5 

vt -84.6457 0
vt -82.6772 0
v 2 4 0.254
vt -82.6772 10
vt -84.6457 10
f 145/258/2 148/259/2 151/260/2 149/261/2 

v 2 0.5 0.254
f 148/210/3 147/211/3 152/212/3 151/213/3 

vt 82.6772 0
vt 84.6457 0
vt 84.6457 10
vt 82.6772 10
f 147/262/4 146/263/4 150/264/4 152/265/4 

vt 84.6457 23.622
vt 84.6457 161.417
vt 82.6772 161.417
vt 82.6772 23.622
f 150/266/6 149/267/6 151/268/6 152/269/6 

