# Alias OBJ Model File
# Exported from SketchUp, (c) 2000-2012 Trimble Navigation Limited
# File units = meters

mtllib experiment_4_saurav.mtl

g Mesh1 Group_1_1 Model

usemtl M_0103_Blue
v 16 7.21911e-016 3
vt -649.606 118.11
vn 1.80478e-016 1 -6.34652e-033
v 20 0 0
vt -807.087 1.24932e-031
v 16 7.21911e-016 0
vt -649.606 1.24932e-031
f 1/1/1 2/2/1 3/3/1

v 20 0 3
vt -807.087 118.11
f 2/2/1 1/1/1 4/4/1

vt 807.087 19.685
vn -9.02389e-017 1.80478e-017 1
v 16 20 3
vt 649.606 807.087
vt 649.606 19.685
f 4/5/2 5/6/2 1/7/2

v 20 20 3
vt 807.087 807.087
f 5/6/2 4/5/2 6/8/2

vn -1 -2.88765e-016 5.70724e-033
vt -19.685 4.60624e-030
vt -19.685 118.11
f 6/4/3 2/9/3 4/10/3

v 20 20 0
vt -807.087 4.60624e-030
f 2/9/3 6/4/3 7/11/3

vt -807.087 0
vn 0 1 0
f 7/12/4 5/1/4 6/4/4

v 16 20 0
vt -649.606 0
f 5/1/4 7/12/4 8/13/4

vt -807.087 807.087
vn 0 0 -1
vt -649.606 19.685
vt -649.606 807.087
f 7/14/5 3/15/5 8/16/5

vt -807.087 19.685
f 3/15/5 7/14/5 2/17/5

v 20 30 0
vt -807.087 1200.79
f 2/17/5 7/14/5 9/18/5

vt -807.087 1.71959e-028
vn -1 -4.12521e-017 2.13061e-031
v 20 30 3
vt -1200.79 118.11
vt -1200.79 1.71959e-028
f 7/19/6 10/20/6 9/21/6

f 10/20/6 7/19/6 6/4/6

vt 807.087 1200.79
vn 0 0 1
f 10/22/7 6/8/7 4/5/7

v 20.5 -0.5 3
vt 826.772 7.10543e-014
f 4/5/7 11/23/7 10/22/7

f 1/7/7 11/23/7 4/5/7

v 11 0 3
vt 452.756 19.685
f 12/24/7 11/23/7 1/7/7

v 9 0 3
vt 374.016 19.685
f 13/25/7 11/23/7 12/24/7

v 4 0 3
vt 177.165 19.685
f 14/26/7 11/23/7 13/25/7

v 0 0 3
vt 19.685 19.685
f 15/27/7 11/23/7 14/26/7

v -0.5 -0.5 3
vt 0 0
f 15/27/7 16/28/7 11/23/7

v -0.5 30.5 3
vt 2.13163e-014 1220.47
f 16/28/7 15/27/7 17/29/7

v 0 30 3
vt 19.685 1200.79
f 18/30/7 17/29/7 15/27/7

v 20.5 30.5 3
vt 826.772 1220.47
f 17/29/7 18/30/7 19/31/7

f 19/31/7 18/30/7 10/22/7

v 0 30 0
vt 19.685 0
vn 0 -1 0
vt 807.087 118.11
vt 19.685 118.11
f 20/32/8 10/33/8 18/34/8

vt 807.087 0
f 10/33/8 20/32/8 9/35/8

vt -19.685 1200.79
v 20.5 30.5 0
vt -826.772 1220.47
f 20/36/5 21/37/5 9/18/5

v -0.5 30.5 0
vt -2.13163e-014 1220.47
f 21/37/5 20/36/5 22/38/5

v 0 0 0
vt -19.685 19.685
f 23/39/5 22/38/5 20/36/5

v -0.5 -0.5 0
f 23/39/5 24/28/5 22/38/5

v 20.5 -0.5 0
vt -826.772 7.10543e-014
f 24/28/5 23/39/5 25/40/5

v 4 0 0
vt -177.165 19.685
f 25/40/5 23/39/5 26/41/5

vt -177.165 0
vt -19.685 0
f 15/10/4 26/42/4 23/43/4

vt -177.165 118.11
f 26/42/4 15/10/4 14/44/4

vn 2.70717e-016 5.41434e-017 1
v 0 20 3
vt 19.685 807.087
f 14/26/9 27/45/9 15/27/9

v 4 20 3
vt 177.165 807.087
f 27/45/9 14/26/9 28/46/9

vn 1 0 0
v 4 20 0
f 14/34/10 29/35/10 28/33/10

f 29/35/10 14/34/10 26/32/10

v 9 0 0
vt -374.016 0
f 14/44/4 30/47/4 26/42/4

vt -374.016 118.11
f 30/47/4 14/44/4 13/48/4

v 9 20 3
vn -1 0 0
f 31/4/11 30/43/11 13/10/11

v 9 20 0
f 30/43/11 31/4/11 32/12/11

v 11 20 0
vt -452.756 0
f 31/48/4 33/49/4 32/47/4

v 11 20 3
vt -452.756 118.11
f 33/49/4 31/48/4 34/50/4

vt 374.016 807.087
vt 452.756 807.087
f 31/51/7 12/24/7 34/52/7

f 12/24/7 31/51/7 13/25/7

vt 374.016 0
vt 452.756 118.11
vt 374.016 118.11
f 30/53/8 12/54/8 13/55/8

v 11 0 0
vt 452.756 0
f 12/54/8 30/53/8 35/56/8

vt -374.016 19.685
vt -452.756 807.087
vt -452.756 19.685
f 30/57/5 33/58/5 35/59/5

vt -374.016 807.087
f 33/58/5 30/57/5 32/60/5

f 33/35/10 12/34/10 35/32/10

f 12/34/10 33/35/10 34/33/10

vn -1.44382e-016 1 5.77673e-033
vt -649.606 -1.13715e-031
vt -452.756 -1.13715e-031
f 12/50/12 3/61/12 35/62/12

f 3/61/12 12/50/12 1/1/12

f 5/4/11 3/43/11 1/10/11

f 3/43/11 5/4/11 8/12/11

f 25/40/5 35/59/5 3/15/5

f 25/40/5 30/57/5 35/59/5

f 25/40/5 26/41/5 30/57/5

f 25/40/5 3/15/5 2/17/5

f 25/40/5 2/17/5 21/37/5

f 9/18/5 21/37/5 2/17/5

vt 1220.47 0
vt 7.10543e-014 118.11
vt 7.10543e-014 0
f 21/63/10 11/64/10 25/65/10

vt 1220.47 118.11
f 11/64/10 21/63/10 19/66/10

vt -826.772 0
vt -2.13163e-014 118.11
vt -826.772 118.11
f 21/67/4 17/68/4 19/69/4

vt -2.13163e-014 0
f 17/68/4 21/67/4 22/70/4

vn -1 1.74656e-017 0
vt -1220.47 118.11
vt -1220.47 0
f 24/28/13 17/71/13 22/72/13

vt 0 118.11
f 17/71/13 24/28/13 16/73/13

vn 8.59418e-017 -1 0
vt 826.772 118.11
f 24/28/14 11/74/14 16/73/14

vt 826.772 0
f 11/74/14 24/28/14 25/75/14

f 19/31/7 10/22/7 11/23/7

vt -177.165 807.087
f 23/39/5 29/76/5 26/41/5

v 0 20 0
vt -19.685 807.087
f 29/76/5 23/39/5 36/77/5

f 36/35/10 15/34/10 23/32/10

f 15/34/10 36/35/10 27/33/10

vt 1200.79 0
f 20/78/10 27/33/10 36/35/10

vt 1200.79 118.11
f 27/33/10 20/78/10 18/79/10

f 18/30/7 15/27/7 27/45/7

f 27/10/4 29/42/4 36/43/4

f 29/42/4 27/10/4 28/44/4

f 23/39/5 20/36/5 36/77/5

