# Alias OBJ Model File
# Exported from SketchUp, (c) 2000-2012 Trimble Navigation Limited
# File units = meters

mtllib experiment_2_saurav.mtl

g Mesh1 Group1 Model

usemtl M_0103_Blue
v 15.5 20.5 0
vt -629.921 826.772
vn 0 0 -1
v 0 20 0
vt -19.685 807.087
v -0.5 20.5 0
vt -2.13163e-014 826.772
f 1/1/1 2/2/1 3/3/1

v 15 20 0
vt -610.236 807.087
f 2/2/1 1/1/1 4/4/1

v 15 0 0
vt -610.236 19.685
f 4/4/1 1/1/1 5/5/1

v 15.5 -0.5 0
vt -629.921 0
f 6/6/1 5/5/1 1/1/1

v 0 0 0
vt -19.685 19.685
f 6/6/1 7/7/1 5/5/1

v -0.5 -0.5 0
vt 0 3.90799e-014
f 8/8/1 7/7/1 6/6/1

f 7/7/1 8/8/1 3/3/1

vt -3.90799e-014 0
vn -1 2.57826e-017 0
v -0.5 20.5 3
vt -826.772 118.11
vt -826.772 0
f 8/9/2 9/10/2 3/11/2

v -0.5 -0.5 3
vt -3.90799e-014 118.11
f 9/10/2 8/9/2 10/12/2

vt -2.42449e-030 0
vn -6.20393e-017 -1 0
v 15.5 -0.5 3
vt 629.921 118.11
vt -2.42449e-030 118.11
f 8/13/3 11/14/3 10/15/3

vt 629.921 0
f 11/14/3 8/13/3 6/16/3

vt 826.772 0
vn 1 0 0
vt 0 118.11
vt 0 0
f 1/17/4 11/18/4 6/19/4

v 15.5 20.5 3
vt 826.772 118.11
f 11/18/4 1/17/4 12/20/4

vn 0 1 0
vt -2.13163e-014 118.11
vt -629.921 118.11
f 1/6/5 9/21/5 12/22/5

vt -2.13163e-014 0
f 9/21/5 1/6/5 3/23/5

vt 2.13163e-014 826.772
vn 0 0 1
v 0 20 3
vt 19.685 807.087
vt 629.921 826.772
f 9/24/6 13/25/6 12/26/6

v 0 0 3
vt 19.685 19.685
f 13/25/6 9/24/6 14/27/6

f 10/8/6 14/27/6 9/24/6

f 14/27/6 10/8/6 11/16/6

v 15 0 3
vt 610.236 19.685
f 14/27/6 11/16/6 15/28/6

v 15 20 3
vt 610.236 807.087
f 15/28/6 11/16/6 16/29/6

f 12/26/6 16/29/6 11/16/6

f 12/26/6 13/25/6 16/29/6

vt 19.685 0
vn 0 -1 0
vt 610.236 118.11
vt 19.685 118.11
f 2/30/7 16/31/7 13/32/7

vt 610.236 0
f 16/31/7 2/30/7 4/33/7

vt -19.685 0
vn -1 0 0
vt -807.087 118.11
vt -807.087 0
f 5/34/8 16/35/8 4/36/8

vt -19.685 118.11
f 16/35/8 5/34/8 15/37/8

vt -610.236 0
vt -610.236 118.11
f 5/38/5 14/37/5 15/39/5

f 14/37/5 5/38/5 7/34/5

vt 807.087 0
f 2/40/4 14/32/4 7/30/4

vt 807.087 118.11
f 14/32/4 2/40/4 13/41/4

f 7/7/1 3/3/1 2/2/1

g Mesh2 Group1 Model

v 10 5 3
vt 413.386 216.535
v 5 15 3
vt 216.535 610.236
v 5 5 3
vt 216.535 216.535
f 17/42/6 18/43/6 19/44/6

v 10 15 3
vt 413.386 610.236
f 18/43/6 17/42/6 20/45/6

vt 216.535 118.11
v 10 15 0
f 17/46/4 21/33/4 20/31/4

v 10 5 0
vt 216.535 0
f 21/33/4 17/46/4 22/47/4

vt 413.386 118.11
v 5 5 0
vt 413.386 0
f 17/48/7 23/47/7 22/49/7

f 23/47/7 17/48/7 19/46/7

vt -216.535 0
vt -216.535 118.11
f 18/39/8 23/50/8 19/51/8

v 5 15 0
f 23/50/8 18/39/8 24/38/8

vt -413.386 0
f 18/51/5 21/52/5 24/50/5

vt -413.386 118.11
f 21/52/5 18/51/5 20/53/5

vt -413.386 610.236
vt -216.535 216.535
vt -216.535 610.236
f 21/54/1 23/55/1 24/56/1

vt -413.386 216.535
f 23/55/1 21/54/1 22/57/1

