# Alias OBJ Model File
# Exported from SketchUp, (c) 2000-2012 Trimble Navigation Limited
# File units = meters

mtllib simpleICreate.mtl

g Mesh1 icreate1 Model

usemtl FrontColor
v 0.269936 0.0652631 0.0288641
vt -19.5151 11.043
vn 0.00872654 8.57462e-16 -0.999962
v 0.269936 0 0.0288641
vt -19.5151 8.47361
v 0.253045 -0.0630393 0.0287167
vt -18.8501 5.99175
v 0.220415 -0.119559 0.0284319
vt -17.5654 3.76657
v 0.174269 -0.165707 0.0280292
vt -15.7486 1.94972
v 0.117751 -0.198338 0.027536
vt -13.5234 0.665013
v 0.0547145 -0.21523 0.0269859
vt -11.0415 -4.53462e-15
v -0.0105461 -0.21523 0.0264164
vt -8.47212 -9.81903e-16
v -0.073583 -0.198338 0.0258663
vt -5.99026 0.665013
v -0.1301 -0.165707 0.025373
vt -3.76508 1.94972
v -0.176247 -0.119559 0.0249703
vt -1.94823 3.76657
v -0.208877 -0.0630393 0.0246856
vt -0.663527 5.99175
v -0.225768 -4.51195e-17 0.0245382
vt 0.00148624 8.47361
v -0.225768 0.0652631 0.0245382
vt 0.00148624 11.043
v -0.208877 0.128302 0.0246856
vt -0.663527 13.5249
v -0.176247 0.184822 0.0249703
vt -1.94823 15.7501
v -0.1301 0.23097 0.025373
vt -3.76508 17.5669
v -0.073583 0.263601 0.0258663
vt -5.99026 18.8516
v -0.0105461 0.280493 0.0264164
vt -8.47212 19.5166
v 0.0547145 0.280493 0.0269859
vt -11.0415 19.5166
v 0.117751 0.263601 0.027536
vt -13.5234 18.8516
v 0.174269 0.23097 0.0280292
vt -15.7486 17.5669
v 0.220415 0.184822 0.0284319
vt -17.5654 15.7501
v 0.253045 0.128302 0.0287167
vt -18.8501 13.5249
f 1/1/1 2/2/1 3/3/1 4/4/1 5/5/1 6/6/1 7/7/1 8/8/1 9/9/1 10/10/1 11/11/1 12/12/1 13/13/1 14/14/1 15/15/1 16/16/1 17/17/1 18/18/1 19/19/1 20/20/1 21/21/1 22/22/1 23/23/1 24/24/1 

vt 5.28842 8.47361
vn 0.991407 -0.130526 0.00865188
vt 5.28842 11.043
vn 0.991407 0.130526 0.00865188
v 0.268802 0.0652631 0.158859
vt 0.170306 11.043
v 0.268802 -9.02389e-17 0.158859
vt 0.170306 8.47361
f 2/25/2 1/26/3 25/27/3 26/28/2 

vt 5.28842 5.61585
vt 5.28842 8.18526
vn 0.923844 0.382683 0.00806227
v 0.251911 0.128302 0.158712
vt 0.170306 8.18526
vt 0.170306 5.61585
f 1/29/3 24/30/4 27/31/4 25/32/3 

vt 5.28842 2.28783
vt 5.28842 4.85724
vn 0.793323 0.608761 0.00692323
v 0.219281 0.184822 0.158427
vt 0.170306 4.85724
vt 0.170306 2.28783
f 24/33/4 23/34/5 28/35/5 27/36/4 

vt 5.28842 -1.28366
vt 5.28842 1.28576
vn 0.608738 0.793353 0.00531238
v 0.173134 0.23097 0.158024
vt 0.170306 1.28576
vt 0.170306 -1.28366
f 23/37/5 22/38/6 29/39/6 28/40/5 

vt 5.28842 -4.85521
vt 5.28842 -2.2858
vn 0.382669 0.92388 0.0033395
v 0.116617 0.263601 0.157531
vt 0.170306 -2.2858
vt 0.170306 -4.85521
f 22/41/6 21/42/7 30/43/7 29/44/6 

vt 5.28842 -8.18344
vt 5.28842 -5.61403
vn 0.130521 0.991445 0.00113904
v 0.0535801 0.280493 0.156981
vt 0.170306 -5.61403
vt 0.170306 -8.18344
f 21/45/7 20/46/8 31/47/8 30/48/7 

vt 11.0873 5.19186
vt 8.51795 5.21428
vn -0.130521 0.991445 -0.00113904
v -0.0116806 0.280493 0.156411
vt 8.47329 0.0963673
vt 11.0426 0.0739452
f 20/49/8 19/50/9 32/51/9 31/52/8 

vt -5.28842 13.2347
vt -5.28842 10.6653
vn -0.382669 0.92388 -0.0033395
v -0.0747175 0.263601 0.155861
vt -0.170306 10.6653
vt -0.170306 13.2347
f 19/53/9 18/54/10 33/55/10 32/56/9 

vt -5.28842 14.6135
vt -5.28842 12.0441
vn -0.608738 0.793353 -0.00531238
v -0.131235 0.23097 0.155368
vt -0.170306 12.0441
vt -0.170306 14.6135
f 18/57/10 17/58/11 34/59/11 33/60/10 

vt -5.28842 15.084
vt -5.28842 12.5146
vn -0.793323 0.608761 -0.00692323
v -0.177381 0.184822 0.154965
vt -0.170306 12.5146
vt -0.170306 15.084
f 17/61/11 16/62/12 35/63/12 34/64/11 

vt -5.28842 14.6141
vt -5.28842 12.0447
vn -0.923844 0.382683 -0.00806227
v -0.210011 0.128302 0.154681
vt -0.170306 12.0447
vt -0.170306 14.6141
f 16/65/12 15/66/13 36/67/13 35/68/12 

vt -5.28842 13.2358
vt -5.28842 10.6664
vn -0.991407 0.130526 -0.00865188
v -0.226902 0.0652631 0.154533
vt -0.170306 10.6664
vt -0.170306 13.2358
f 15/69/13 14/70/14 37/71/14 36/72/13 

vt -5.28842 11.043
vt -5.28842 8.47361
vn -0.991407 -0.130526 -0.00865188
v -0.226902 -9.02389e-17 0.154533
vt -0.170306 8.47361
vt -0.170306 11.043
f 14/73/14 13/74/15 38/75/15 37/76/14 

vt -5.28842 8.18526
vt -5.28842 5.61585
vn -0.923844 -0.382683 -0.00806227
v -0.210011 -0.0630393 0.154681
vt -0.170306 5.61585
vt -0.170306 8.18526
f 13/77/15 12/78/16 39/79/16 38/80/15 

vt -5.28842 4.85724
vt -5.28842 2.28783
vn -0.793323 -0.608761 -0.00692323
v -0.177381 -0.119559 0.154965
vt -0.170306 2.28783
vt -0.170306 4.85724
f 12/81/16 11/82/17 40/83/17 39/84/16 

vt -5.28842 1.28576
vt -5.28842 -1.28366
vn -0.608738 -0.793353 -0.00531238
v -0.131235 -0.165707 0.155368
vt -0.170306 -1.28366
vt -0.170306 1.28576
f 11/85/17 10/86/18 41/87/18 40/88/17 

vt -5.28842 -2.2858
vt -5.28842 -4.85521
vn -0.382669 -0.92388 -0.0033395
v -0.0747175 -0.198338 0.155861
vt -0.170306 -4.85521
vt -0.170306 -2.2858
f 10/89/18 9/90/19 42/91/19 41/92/18 

vt -5.28842 -5.61403
vt -5.28842 -8.18344
vn -0.130521 -0.991445 -0.00113904
v -0.0116806 -0.21523 0.156411
vt -0.170306 -8.18344
vt -0.170306 -5.61403
f 9/93/19 8/94/20 43/95/20 42/96/19 

vt -8.51795 5.21428
vt -11.0873 5.19186
vn 0.130521 -0.991445 0.00113904
v 0.0535801 -0.21523 0.156981
vt -11.0426 0.0739452
vt -8.47329 0.0963673
f 8/97/20 7/98/21 44/99/21 43/100/20 

vt 5.28842 10.6653
vt 5.28842 13.2347
vn 0.382669 -0.92388 0.0033395
v 0.116617 -0.198338 0.157531
vt 0.170306 13.2347
vt 0.170306 10.6653
f 7/101/21 6/102/22 45/103/22 44/104/21 

vt 5.28842 12.0441
vt 5.28842 14.6135
vn 0.608738 -0.793353 0.00531238
v 0.173134 -0.165707 0.158024
vt 0.170306 14.6135
vt 0.170306 12.0441
f 6/105/22 5/106/23 46/107/23 45/108/22 

vt 5.28842 12.5146
vt 5.28842 15.084
vn 0.793323 -0.608761 0.00692323
v 0.219281 -0.119559 0.158427
vt 0.170306 15.084
vt 0.170306 12.5146
f 5/109/23 4/110/24 47/111/24 46/112/23 

vt 5.28842 12.0447
vt 5.28842 14.6141
vn 0.923844 -0.382683 0.00806227
v 0.251911 -0.0630393 0.158712
vt 0.170306 14.6141
vt 0.170306 12.0447
f 4/113/24 3/114/25 48/115/25 47/116/24 

vt 5.28842 10.6664
vt 5.28842 13.2358
vt 0.170306 13.2358
vt 0.170306 10.6664
f 3/117/25 2/118/2 26/119/2 48/120/25 

vt 19.5151 8.47361
vn -0.00872654 -8.57462e-16 0.999962
vt 19.5151 11.043
vt 18.8501 13.5249
vt 17.5654 15.7501
vt 15.7486 17.5669
vt 13.5234 18.8516
vt 11.0415 19.5166
vt 8.47212 19.5166
vt 5.99026 18.8516
vt 3.76508 17.5669
vt 1.94823 15.7501
vt 0.663527 13.5249
vt -0.00148624 11.043
vt -0.00148624 8.47361
vt 0.663527 5.99175
vt 1.94823 3.76657
vt 3.76508 1.94972
vt 5.99026 0.665013
vt 8.47212 -1.46031e-16
vt 11.0415 -1.46031e-16
vt 13.5234 0.665013
vt 15.7486 1.94972
vt 17.5654 3.76657
vt 18.8501 5.99175
f 26/121/26 25/122/26 27/123/26 28/124/26 29/125/26 30/126/26 31/127/26 32/128/26 33/129/26 34/130/26 35/131/26 36/132/26 37/133/26 38/134/26 39/135/26 40/136/26 41/137/26 42/138/26 43/139/26 44/140/26 45/141/26 46/142/26 47/143/26 48/144/26 

