# Alias OBJ Model File
# Exported from SketchUp, (c) 2000-2012 Trimble Navigation Limited
# File units = meters

mtllib SingleHomotopyEnv.mtl

g Mesh1 Component_1_1 Model

usemtl FrontColor
v 17.979 0.435131 0.0253338
vt -130.312 0
vn 0.994738 0.102449 3.92234e-17
v 17.7373 1.451 0.0253338
vt -89.2016 0
vn 0.934328 0.356416 1.36456e-16
v 17.7373 1.451 3.02533
vt -89.2016 118.11
v 17.979 0.435131 3.02533
vt -130.312 118.11
f 1/1/1 2/2/2 3/3/2 4/4/1 

vt -755.077 45.6613
vn 0 3.82857e-16 -1
v 17.9674 0.0253338 0.0253338
vt -754.621 29.5276
vt -745.563 85.656
f 1/5/3 5/6/3 2/7/3

vt 50.8463 0
vn 0.9996 -0.0282665 -1.0822e-17
vt 66.9865 0
vt 66.9865 118.11
v 17.9674 0.0253338 3.02533
vt 50.8463 118.11
f 5/8/4 1/9/1 4/10/1 6/11/4 

vt 755.077 45.6613
vn 0 -3.82857e-16 1
vt 745.563 85.656
vt 754.621 29.5276
f 4/12/5 3/13/5 6/14/5

v 17.241 2.36971 3.02533
vt 726.023 121.826
f 7/15/5 6/14/5 3/13/5

v 16.5238 3.12865 3.02533
vt 697.786 151.705
f 8/16/5 6/14/5 7/15/5

v 15.6346 3.67611 3.02533
vt 662.779 173.259
f 9/17/5 6/14/5 8/16/5

v 14.634 3.97477 3.02533
vt 623.386 185.017
f 10/18/5 6/14/5 9/17/5

v 13.5902 4.00429 3.02533
vt 582.291 186.179
f 11/19/5 6/14/5 10/18/5

v 12.5743 3.76264 3.02533
vt 542.297 176.666
f 12/20/5 6/14/5 11/19/5

v 11.6556 3.26631 3.02533
vt 506.127 157.125
f 13/21/5 6/14/5 12/20/5

v 10.8967 2.54911 3.02533
vt 476.247 128.889
f 14/22/5 6/14/5 13/21/5

v 10.3492 1.65992 3.02533
vt 454.694 93.8812
f 15/23/5 6/14/5 14/22/5

v 20.88 -0.724666 3.02533
vt 869.291 0
f 15/23/5 16/24/5 6/14/5

v 10.0506 0.659329 3.02533
vt 442.936 54.488
f 17/25/5 16/24/5 15/23/5

v 10.0326 0.0253338 3.02533
vt 442.23 29.5276
f 18/26/5 16/24/5 17/25/5

v 0 0.0253338 3.02533
vt 47.2441 29.5276
f 19/27/5 16/24/5 18/26/5

v -1.2 -0.724666 3.02533
vt 0 0
f 19/27/5 20/28/5 16/24/5

v -1.2 10.8653 3.02533
vt 0 456.299
f 20/28/5 19/27/5 21/29/5

v 0 10.0253 3.02533
vt 47.2441 423.228
f 22/30/5 21/29/5 19/27/5

v 20.88 10.8653 3.02533
vt 869.291 456.299
f 21/29/5 22/30/5 23/31/5

v 10.0061 10.0253 3.02533
vt 441.187 423.228
f 23/31/5 22/30/5 24/32/5

v 0 10.0253 0.0253338
vt 47.2441 0
vn 0 -1 -3.82857e-16
v 10.0061 10.0253 0.0253338
vt 441.187 0
vt 441.187 118.11
vt 47.2441 118.11
f 25/33/6 26/34/6 24/35/6 22/36/6 

vt -47.2441 423.228
v 20.88 10.8653 0.0253338
vt -869.291 456.299
vt -441.187 423.228
f 25/37/3 27/38/3 26/39/3

v -1.2 10.8653 0.0253338
f 25/37/3 28/29/3 27/38/3

v -1.2 -0.724666 0.0253338
f 28/29/3 25/37/3 29/28/3

v 0 0.0253338 0.0253338
vt -47.2441 29.5276
f 30/40/3 29/28/3 25/37/3

v 20.88 -0.724666 0.0253338
vt -869.291 0
f 29/28/3 30/40/3 31/41/3

v 10.0326 0.0253338 0.0253338
vt -442.23 29.5276
f 31/41/3 30/40/3 32/42/3

vt -442.23 0
vn 0 1 3.82857e-16
vt -47.2441 0
vt -47.2441 118.11
vt -442.23 118.11
f 32/43/7 30/44/7 19/45/7 18/46/7 

vt 29.5276 0
vn 1 0 -0
vt 423.228 0
vt 423.228 118.11
vt 29.5276 118.11
f 30/47/8 25/48/8 22/49/8 19/50/8 

v 10.0506 0.659329 0.0253338
vt -66.9865 0
vn -0.987359 0.158499 6.06823e-17
vt -42.0161 0
vn -0.9996 0.0282665 1.0822e-17
vt -42.0161 118.11
vt -66.9865 118.11
f 33/51/9 32/52/10 18/53/10 17/54/9 

vt -442.936 54.488
f 31/41/3 32/42/3 33/55/3

v 10.3492 1.65992 0.0253338
vt -454.694 93.8812
f 31/41/3 33/55/3 34/56/3

vt -220.01 0
vn -0.912693 0.408645 1.56453e-16
vt -178.9 0
vt -178.9 118.11
vt -220.01 118.11
f 34/57/11 33/58/9 17/59/9 15/60/11 

v 10.8967 2.54911 0.0253338
vt -359.442 0
vn -0.775829 0.630944 2.41561e-16
vt -318.331 0
vt -318.331 118.11
vt -359.442 118.11
f 35/61/12 34/62/11 15/63/11 14/64/12 

vt -476.247 128.889
f 5/6/3 34/56/3 35/65/3

f 31/41/3 34/56/3 5/6/3

v 20 0.0253338 0.0253338
vt -834.646 29.5276
f 31/41/3 5/6/3 36/66/3

vt -834.646 0
vn -2.21975e-17 1 3.82857e-16
vt -754.621 0
vt -754.621 118.11
v 20 0.0253338 3.02533
vt -834.646 118.11
f 36/67/13 5/68/13 6/69/13 37/70/13 

vt 834.646 29.5276
f 6/14/5 16/24/5 37/71/5

v 20 10.0253 3.02533
vt 834.646 423.228
f 37/71/5 16/24/5 38/72/5

f 23/31/5 38/72/5 16/24/5

v 17.9939 10.0253 3.02533
vt 755.664 423.228
f 23/31/5 39/73/5 38/72/5

v 10.5607 7.98305 3.02533
vt 463.018 342.824
f 23/31/5 40/74/5 39/73/5

v 10.1493 8.94281 3.02533
vt 446.822 380.609
f 23/31/5 41/75/5 40/74/5

f 23/31/5 24/32/5 41/75/5

v 10.0003 9.97634 3.02533
vt 440.957 421.299
f 41/75/5 24/32/5 42/76/5

vt -472.477 0
vn -0.992969 0.118373 4.53199e-17
v 10.0003 9.97634 0.0253338
vt -470.535 0
vn -0.999925 -0.0122483 -4.68936e-18
vt -470.535 118.11
vt -472.477 118.11
f 26/77/14 43/78/15 42/79/15 24/80/14 

v 10.1493 8.94281 0.0253338
vt -446.822 380.609
vt -440.957 421.299
f 44/81/3 43/82/3 26/39/3

vt -354.083 0
vt -312.973 0
vn -0.962683 -0.270631 -1.03613e-16
vt -312.973 118.11
vt -354.083 118.11
f 43/83/15 44/84/16 41/85/16 42/86/15 

vt -173.792 0
v 10.5607 7.98305 0.0253338
vt -132.682 0
vn -0.859836 -0.51057 -1.95475e-16
vt -132.682 118.11
vt -173.792 118.11
f 44/87/16 45/88/17 40/89/17 41/90/16 

vt -463.018 342.824
f 44/81/3 27/38/3 45/91/3

f 26/39/3 27/38/3 44/81/3

v 17.9939 10.0253 0.0253338
vt -755.664 423.228
f 45/91/3 27/38/3 46/92/3

v 20 10.0253 0.0253338
vt -834.646 423.228
f 46/92/3 27/38/3 47/93/3

f 47/93/3 27/38/3 36/66/3

f 31/41/3 36/66/3 27/38/3

vt 456.299 0
vt 456.299 118.11
vt 0 118.11
f 31/28/8 27/94/8 23/95/8 16/96/8 

vt -869.291 118.11
f 27/41/7 28/28/7 21/96/7 23/97/7 

vt -456.299 0
vn -1 0 0
vt -456.299 118.11
f 28/98/18 29/28/18 20/96/18 21/99/18 

vt 869.291 118.11
f 29/28/6 31/24/6 16/100/6 20/96/6 

vt -423.228 0
vt -29.5276 0
vt -29.5276 118.11
vt -423.228 118.11
f 47/101/18 36/102/18 37/103/18 38/104/18 

vt 755.664 0
vt 834.646 0
vt 834.646 118.11
vt 755.664 118.11
f 46/105/6 47/106/6 38/107/6 39/108/6 

v 17.8761 9.03746 0.0253338
vt 470.535 0
vn 0.969023 -0.246969 -9.45536e-17
vt 509.703 0
vn 0.992969 -0.118373 -4.53199e-17
vt 509.703 118.11
v 17.8761 9.03746 3.02533
vt 470.535 118.11
f 48/109/19 46/110/20 39/111/20 49/112/19 

v 17.4883 8.06791 0.0253338
vt -735.761 346.165
vt -751.027 384.336
f 50/113/3 46/92/3 48/114/3

v 16.8629 7.23176 0.0253338
vt -711.136 313.245
f 51/115/3 46/92/3 50/113/3

v 16.0423 6.58599 0.0253338
vt -678.83 287.821
f 52/116/3 46/92/3 51/115/3

v 15.0825 6.1746 0.0253338
vt -641.044 271.625
f 53/117/3 46/92/3 52/116/3

v 14.049 6.02563 0.0253338
vt -600.354 265.76
f 54/118/3 46/92/3 53/117/3

v 13.0121 6.14924 0.0253338
vt -559.532 270.626
f 55/119/3 46/92/3 54/118/3

v 12.0426 6.537 0.0253338
vt -521.361 285.892
f 56/120/3 46/92/3 55/119/3

v 11.2064 7.16248 0.0253338
vt -488.442 310.517
f 57/121/3 46/92/3 56/120/3

f 45/91/3 46/92/3 57/121/3

vt 16.9419 0
vt 58.0525 0
vn -0.698393 -0.715715 -2.74016e-16
v 11.2064 7.16248 3.02533
vt 58.0525 118.11
vt 16.9419 118.11
f 45/122/17 57/123/21 58/124/21 40/125/17 

vt 205.121 0
vt 246.231 0
vn -0.489355 -0.872085 -3.33884e-16
v 12.0426 6.537 3.02533
vt 246.231 118.11
vt 205.121 118.11
f 57/126/21 56/127/22 59/128/22 58/129/21 

vt 377.92 0
vt 419.031 0
vn -0.246969 -0.969023 -3.70997e-16
v 13.0121 6.14924 3.02533
vt 419.031 118.11
vt 377.92 118.11
f 56/130/22 55/131/23 60/132/23 59/133/22 

vt 523.564 0
vt 564.674 0
vn 0.0122483 -0.999925 -3.82828e-16
v 14.049 6.02563 3.02533
vt 564.674 118.11
vt 523.564 118.11
f 55/134/23 54/135/24 61/136/24 60/137/23 

vt 632.127 0
vt 673.237 0
vn 0.270631 -0.962683 -3.6857e-16
v 15.0825 6.1746 3.02533
vt 673.237 118.11
vt 632.127 118.11
f 54/138/24 53/139/25 62/140/25 61/141/24 

vt 696.211 0
vt 737.321 0
vn 0.51057 -0.859836 -3.29194e-16
v 16.0423 6.58599 3.02533
vt 737.321 118.11
vt 696.211 118.11
f 53/142/25 52/143/26 63/144/26 62/145/25 

vt 711.448 0
vt 752.559 0
vn 0.715715 -0.698393 -2.67385e-16
v 16.8629 7.23176 3.02533
vt 752.559 118.11
vt 711.448 118.11
f 52/146/26 51/147/27 64/148/27 63/149/26 

vt 676.801 0
vt 717.911 0
vn 0.872085 -0.489355 -1.87353e-16
v 17.4883 8.06791 3.02533
vt 717.911 118.11
vt 676.801 118.11
f 51/150/27 50/151/28 65/152/28 64/153/27 

vt 594.63 0
vt 635.74 0
vt 635.74 118.11
vt 594.63 118.11
f 50/154/28 48/155/19 49/156/19 65/157/28 

vt 735.761 346.165
vt 751.027 384.336
f 39/73/5 65/158/5 49/159/5

vt 711.136 313.245
f 39/73/5 64/160/5 65/158/5

vt 678.83 287.821
f 39/73/5 63/161/5 64/160/5

vt 641.044 271.625
f 39/73/5 62/162/5 63/161/5

vt 600.354 265.76
f 39/73/5 61/163/5 62/162/5

vt 559.532 270.626
f 39/73/5 60/164/5 61/163/5

vt 521.361 285.892
f 39/73/5 59/165/5 60/164/5

vt 488.442 310.517
f 39/73/5 58/166/5 59/165/5

f 39/73/5 40/74/5 58/166/5

v 11.6556 3.26631 0.0253338
vt -506.127 157.125
f 5/6/3 35/65/3 66/167/3

vt -475.778 0
vn -0.586093 0.810244 3.10207e-16
vt -434.668 0
vt -434.668 118.11
vt -475.778 118.11
f 66/168/29 35/169/12 14/170/12 13/171/29 

v 12.5743 3.76264 0.0253338
vt -561.092 0
vn -0.356416 0.934328 3.57714e-16
vt -519.982 0
vt -519.982 118.11
vt -561.092 118.11
f 67/172/30 66/173/29 13/174/29 12/175/30 

vt -542.297 176.666
f 5/6/3 66/167/3 67/176/3

v 13.5902 4.00429 0.0253338
vt -582.291 186.179
f 5/6/3 67/176/3 68/177/3

vt -609.57 0
vn -0.102449 0.994738 3.80842e-16
vt -568.459 0
vt -568.459 118.11
vt -609.57 118.11
f 68/178/31 67/179/30 12/180/30 11/181/31 

v 14.634 3.97477 0.0253338
vt -617.907 0
vn 0.158499 0.987359 3.78017e-16
vt -576.796 0
vt -576.796 118.11
vt -617.907 118.11
f 69/182/32 68/183/31 11/184/31 10/185/32 

vt -623.386 185.017
f 5/6/3 68/177/3 69/186/3

v 15.6346 3.67611 0.0253338
vt -662.779 173.259
f 5/6/3 69/186/3 70/187/3

vt -585.535 0
vn 0.408645 0.912693 3.49431e-16
vt -544.425 0
vt -544.425 118.11
vt -585.535 118.11
f 70/188/33 69/189/32 10/190/32 9/191/33 

v 16.5238 3.12865 0.0253338
vt -514.661 0
vn 0.630944 0.775829 2.97031e-16
vt -473.551 0
vt -473.551 118.11
vt -514.661 118.11
f 71/192/34 70/193/33 9/194/33 8/195/34 

vt -697.786 151.705
f 5/6/3 70/187/3 71/196/3

v 17.241 2.36971 0.0253338
vt -726.023 121.826
f 5/6/3 71/196/3 72/197/3

vt -410.115 0
vn 0.810244 0.586093 2.2439e-16
vt -369.004 0
vt -369.004 118.11
vt -410.115 118.11
f 72/198/35 71/199/34 8/200/34 7/201/35 

vt -279.02 0
vt -237.91 0
vt -237.91 118.11
vt -279.02 118.11
f 2/202/2 72/203/35 7/204/35 3/205/2 

f 5/6/3 72/197/3 2/7/3

